<?xml version="1.0" encoding="utf-8"?>
<!-- Generator: Adobe Illustrator 27.7.0, SVG Export Plug-In . SVG Version: 6.00 Build 0)  -->
<svg version="1.1" xmlns="http://www.w3.org/2000/svg" xmlns:xlink="http://www.w3.org/1999/xlink" x="0px" y="0px"
	 viewBox="0 0 1000 480" style="enable-background:new 0 0 1000 480;" xml:space="preserve">
<style type="text/css">
	.st0{opacity:0.1809;}
	.st1{fill:#020202;}
	.st2{fill:#FFFFFF;}
	.st3{fill:none;}
	.st4{fill:#8D5122;}
	.st5{fill:#77411B;}
	.st6{fill:#F9D0AC;}
	.st7{fill:#D9AC80;}
	.st8{fill:#04335F;}
	.st9{fill:#B7DEEB;}
	.st10{fill:#E0F8FF;}
	.st11{fill:#6897B8;}
	.st12{fill:#FAC27A;}
	.st13{fill:#FFE49F;}
	.st14{fill:#FDE8AD;}
	.st15{fill:#FFF4D0;}
	.st16{fill:#C49A70;}
	.st17{fill:#926E43;}
	.st18{fill:#C99E79;}
	.st19{fill:#FCE7D9;}
</style>
<g id="Background">
</g>
<g id="Image_Layer">
</g>
<g id="Image_Layer_2_">
</g>
<g id="Image_Layer_4_">
</g>
<g id="Draw_Layer_1_">
</g>
<g id="Draw_Layer_2_">
</g>
<g id="Layer_8">
</g>
<g id="Layer_9">
</g>
<g id="Draw_Layer" class="st0">
</g>
<g id="Layer_10">
	<g>
		<path class="st3" d="M400.7,372.7h-4.1v14h4.6c3.5,0,6.5-1.9,6.5-7C407.6,375.3,405.9,372.7,400.7,372.7z"/>
		<path class="st3" d="M173,174c-0.4,0.2-0.7,0.4-1.1,0.6c-1.7,2.4-3.7,4.6-5.9,6.5c-1.9,4.1-3.9,8.3-5.8,12.4
			c-3.4,7.5-6.7,15.1-9.4,22.9c-1,2.7-1.8,5.5-2.7,8.3l13.1-0.8l20.5-49.1C178.9,174.8,176,174.5,173,174z"/>
		<path class="st3" d="M430.8,371.9c-3.9,0-6.9,2.4-6.9,16c0,13.9,3.1,16.3,6.9,16.3c3.9,0,6.9-2.4,6.9-16.3
			C437.8,374.2,434.7,371.9,430.8,371.9z"/>
		<path class="st3" d="M686.7,372.7h-5.5v13.1h5.2c4.1,0,6.5-2.5,6.5-6.6C692.8,374.9,691,372.7,686.7,372.7z"/>
		<path class="st3" d="M528.8,371.9c-3.9,0-6.9,2.4-6.9,16c0,13.9,3.1,16.3,6.9,16.3c3.9,0,6.9-2.4,6.9-16.3
			C535.7,374.2,532.7,371.9,528.8,371.9z"/>
		<path class="st3" d="M559.9,372.7h-5.5v13.1h5.2c4.1,0,6.5-2.5,6.5-6.6C566,374.9,564.1,372.7,559.9,372.7z"/>
		<path class="st3" d="M853.8,371.9c-3.9,0-6.9,2.4-6.9,16c0,13.9,3.1,16.3,6.9,16.3c3.9,0,6.9-2.4,6.9-16.3
			C860.7,374.2,857.7,371.9,853.8,371.9z"/>
		<path class="st3" d="M115.4,223.2c0.8-1.6,1.7-3.3,2.5-4.9l-10.4-24c-6,1.4-12.1,2.1-18.5,1.2c-0.2,0-0.4-0.1-0.6-0.1
			c-1.8,0.3-3.6,0.5-5.4,0.7c-4.4,0.3-12.1,0.6-13.8-4.6c-0.3-0.8-0.3-1.6-0.3-2.4c0.3-3.1,2.7-5.7,4.8-7.8c3-2.9,6.4-5.5,9.6-8.2
			c0,0,0.1-0.1,0.1-0.1c-11.3-3.2-18.7-9.1-22.1-12.3c-5.3,2.4-11.2,3.7-17.1,3.7c-4.8,0-9.4-0.8-13.7-2.4l71.5,73.2l10.6-6.2
			C113.5,227,114.5,225.1,115.4,223.2z"/>
		<path class="st3" d="M240.2,164.3c-5.8,0-11.7-1.3-17.1-3.7c-4.7,4.5-17.3,14.2-37.4,14.4l-20.8,49.8l19.8,11.5l71.5-75.2
			C251.1,163.2,245.7,164.3,240.2,164.3z"/>
		<path class="st3" d="M122.2,210.4c3.9-6.8,8.2-13.5,12.8-19.9c-2.7-0.4-5.4-1-7.9-1.9c-3.5,1.2-7.1,2.3-10.7,3.3
			c-1.7,0.5-3.5,1-5.2,1.4l9,20.8C120.8,212.9,121.5,211.7,122.2,210.4z"/>
		<path class="st3" d="M344.4,372.7h-5.5v13.1h5.2c4.1,0,6.5-2.5,6.5-6.6C350.5,374.9,348.7,372.7,344.4,372.7z"/>
		<path class="st3" d="M884.9,372.7h-5.5v13.1h5.2c4.1,0,6.5-2.5,6.5-6.6C891,374.9,889.1,372.7,884.9,372.7z"/>
		<path class="st4" d="M68.6,306.7l0.1-2.7C68.7,305,68.6,306,68.6,306.7z"/>
		<path class="st5" d="M145.7,234.6c-0.2,1.1-0.5,2.2-0.6,3.3c2.5,0.2,4.8,1.2,6.6,2.9c0.6,0.6,1.2,1.3,1.6,2l1.3-3.1L145.7,234.6z"
			/>
		<path class="st5" d="M172.1,255c0.6,0.2,1.2,0.4,1.8,0.7c0.2-0.2,0.5-0.4,0.7-0.6c0.8-0.7,1.6-1.5,2.3-2.3l-1.7-1L172.1,255z"/>
		<path class="st5" d="M155.2,248.1c0,0.2,0.1,0.5,0.1,0.7c2.6,1.5,5.1,3.1,7.5,4.9c1.7-0.1,3.5,0,5.2,0.2l3.9-4.1l-14-8.2
			L155.2,248.1z"/>
		<path class="st6" d="M110.3,234.7c0,0,0-0.1,0.1-0.1l-0.2,0.1C110.2,234.7,110.2,234.7,110.3,234.7z"/>
		<path class="st6" d="M38.5,289.2l0-0.1l0.3,0.2l0.6,0l7.8-4.6c3-3.8,6.5-7.5,10-10.8c4.3-4.1,8.9-8,13.6-11.6
			c4.4-3.3,9-6.4,13.8-9c4-2.2,8.3-4.2,12.7-5.3c0.3-2.5,0.8-4.8,1.7-6.7l-79.8,46.6L38.5,289.2z"/>
		<path class="st7" d="M159.7,227.8l-12.5,0.8c-0.2,0.9-0.5,1.8-0.7,2.7l9.5,5.5L159.7,227.8z"/>
		<polygon class="st7" points="182,239.2 163.5,228.3 159.1,238.7 174.2,247.5 		"/>
		<path class="st7" d="M243.3,288.2l1.9,1.1l20.2-1.4l-25-14.6C241.5,278.2,242.5,283.2,243.3,288.2z"/>
		<path class="st7" d="M177.4,249.4l1.9,1.1c0.5-0.3,1.1-0.4,1.8-0.4c0.3,0,0.6,0,0.9,0.1c0.3,0.1,0.6,0.2,0.9,0.3c0,0,0,0,0,0
			c0.5,0.3,1,0.7,1.4,1.2c1,1.2,2.1,2.4,3.3,3.4c0.3,0.3,0.6,0.5,0.9,0.8l5.2,3l10.8,6.4c8.1,2.9,16.6,3.4,25.1,1.7l-44.4-25.9
			L177.4,249.4z"/>
		<path class="st8" d="M271.3,147.3c2-8.9,3.4-18.1,4-27.2l0-0.2v-0.1c0-49.3-36.1-93.1-89.7-109.1c-14.1-4.2-28.7-6.3-43.4-6.3
			c-14.7,0-29.3,2.1-43.4,6.3C45.2,26.7,9.1,70.6,9.1,119.8l0,0.2l0,0.1c0.6,9.2,2,18.5,4.1,27.5c0.8,3.2,2.3,5.1,3,5.8h0.1
			c1.1,1,2.3,2,3.6,2.9l78.9,80.7L7,290.7l29,2.1L18.1,345l17.6,10.3v58.8l106.1,61.4l106.1-61.4l0.5-59.2l16.9-9.9l-16.4-49.7v-2.6
			l28.7-2.1l-38.8-22.6c-0.4-0.7-0.8-1.3-1.5-1.7c-0.2-0.1-0.5-0.3-0.8-0.3c-0.5-0.2-1-0.2-1.5-0.2l-47.1-27.5l75.9-79.9
			C267.5,154.1,270.9,148.2,271.3,147.3z M235.2,270c2.1,7.8,3.5,15.4,4.5,22.8l-3.4,2l-2,1.2c-0.7-5.8-1.6-11.5-2.9-17.2
			c-0.2-1.1-1.3-1.8-2.3-1.6c-12.7,2-25.2-0.1-36.4-6.3c-3.6-2-7.1-4.4-10.2-7.1c-0.8-0.7-1.9-0.7-2.7,0c-3.1,2.7-6.6,5.1-10.2,7.1
			c-11.3,6.2-23.8,8.3-36.4,6.3c-1.1-0.2-2.1,0.5-2.3,1.6c-4.6,20.9-5.3,42.7-2,63.9l-2.3-1.3l-4.1-2.4c-2.5-19.7-2.2-43.6,4.6-68.9
			c34,9.6,54.1-15.7,54.1-15.7S201.2,279.6,235.2,270z M98.4,251.9c0.1,0.4,0.2,0.7,0.3,1.1c1.5,5.1,6.4,8.4,11.1,10.2
			c4.8,1.9,10.4,2.8,15.6,2.9c-0.1,0.1-0.3,0.1-0.4,0.2c-1,0.6-1.7,1.4-1.9,2.5c-2.3,8.4-3.9,17-4.9,25.6l-21.2-1.9l-12.2,13.2
			c-1.5-0.1-6-0.6-12.8-3.4c2.7-19.7,11.7-36.4,24.7-46.5c-5.1,2-9.8,4.8-12.2,7.9c-1,1.3-2,2.6-2.9,4c-7.8,13.2-11,24.2-12.2,31.4
			c0,0.3-0.1,0.5-0.1,0.8c-0.2,1.5-0.4,2.9-0.5,4l-0.1,2.7c0,0.1,0,0.2,0,0.3L53,297.6l-3.2-1.9l-3.3-1.9l-0.8-0.5
			c1.4-1.7,3-3.7,4.8-6C59.9,275.1,82.5,256.1,98.4,251.9z M117.2,227.8c0.1-0.2,0.2-0.5,0.3-0.7c0.2-0.4,0.4-0.8,0.6-1.2
			c1.9,0.6,4.7,1.2,7.8,1.7c6,1.1,13,2.1,17.1,2.5c-0.2,0.7-0.3,1.3-0.5,2c-4.3-0.5-11.2-1.4-17.1-2.5
			C122.2,229.1,119.2,228.5,117.2,227.8z M105,157.8c0.9-1.8,1.8-3.3,2.7-4.6c0,0,0,0,0-0.1c0.3-0.8,0.9-1.3,1.5-1.7
			c2.5-2.4,5.1-2.8,7.4-1.3c8.3,5.6,8.9,13,22.5,11.9c-0.8,1.4-1.3,3-1.3,4.7c0,1,0.2,1.9,0.4,2.8c-0.8,0.6-1.5,1.1-1.8,1.4
			c-5.7,5-36.5,19.6-53.6,20.8c-19.4,1.3-5.7-8.3,5.5-17.4C96.7,167.4,103.2,161.4,105,157.8z M13.5,119.8
			c0-46.6,33.3-86.5,80.5-102.9C78.5,30.8,41.4,71.1,55.3,128.4C39.9,127,25.1,135.1,18,149v0c0,0,0,0,0,0
			C15.6,139.4,14.1,129.7,13.5,119.8z M266.5,149c-7.1-13.9-21.9-22-37.3-20.6c13.8-57.3-23.3-97.6-38.7-111.5
			c47.2,16.4,80.5,56.3,80.5,102.9C270.4,129.7,268.9,139.4,266.5,149z M151.7,240.8c-1.8-1.7-4.2-2.7-6.6-2.9
			c0.2-1.1,0.4-2.2,0.6-3.3l8.9,5.2l-1.3,3.1C152.9,242.1,152.4,241.4,151.7,240.8z M112.2,240.1c0.2-0.7,0.4-1.3,0.7-1.9
			c2.7,1.6,7.2,2.8,12.1,3.4c5.8,0.7,12,0.6,15.9-0.3c-0.1,0.7-0.2,1.4-0.2,2.1c-4.3,0.9-10.3,0.9-15.9,0.2
			C119.9,243,115.2,241.8,112.2,240.1z M146.4,231.3c0.2-0.9,0.4-1.8,0.7-2.7l12.5-0.8l-3.8,9L146.4,231.3z M145.8,220
			c-3.4-1.6-6.9-2.8-10.4-3.6c-3.8-0.8-7.7-1.3-11.6-1.4c0.4-0.7,0.8-1.4,1.1-2c3.7,0.2,7.4,0.6,10.9,1.4c3.6,0.8,7.2,2,10.6,3.6
			C146.2,218.7,146,219.4,145.8,220z M140,203c-3-0.8-5.9-1-8.6-0.7c0.5-0.7,0.9-1.4,1.4-2.1c2.5-0.1,5.1,0.2,7.7,0.9
			c3.5,0.9,7.1,2.4,10.6,4.6c-0.3,0.6-0.5,1.3-0.8,1.9C146.9,205.4,143.4,203.9,140,203z M147.6,193.2c-3.6-0.9-7-1.2-9.3-1.2
			c0.5-0.7,1-1.3,1.5-2c2.3,0.1,5.3,0.5,8.3,1.2c2.7,0.7,5.4,1.6,7.9,3c-0.3,0.6-0.6,1.3-0.8,1.9
			C152.8,194.8,150.2,193.8,147.6,193.2z M140.2,186.7c-2.8,0-5.5-0.3-8.1-0.9c3.7-1.3,7.4-2.8,11-4.5c3.1-1.4,8.4-4.1,9.7-7.4
			c0,0,0,0,0,0c1-0.8,1.8-1.8,2.3-3c0.6-1.2,1-2.6,1-4.1c0-5-4.1-9.1-9.1-9.1c-1.3,0-2.6,0.3-3.7,0.8c0,0,0,0,0,0
			c6.5-4.8,11-13.7,6.1-19.1c-5.7-6.4-21.4-11.6-33.3-11.3c-0.4,0-1.3,0.2-2.3,0.3c0.1-0.1,0.2-0.2,0.2-0.3c0.2-0.2,0.3-0.4,0.5-0.6
			c0.2-0.2,0.4-0.4,0.6-0.6c0.2-0.2,0.4-0.4,0.5-0.5c0.2-0.2,0.4-0.4,0.6-0.6c0.2-0.2,0.4-0.3,0.5-0.5c0.2-0.2,0.5-0.4,0.7-0.6
			c0.2-0.1,0.3-0.3,0.5-0.4c0.3-0.3,0.6-0.5,1-0.8c0.2-0.1,0.4-0.3,0.5-0.4c0.3-0.2,0.7-0.5,1-0.7c0.2-0.1,0.4-0.2,0.5-0.3
			c0.3-0.2,0.5-0.3,0.8-0.5c0.2-0.1,0.4-0.2,0.6-0.3c0.3-0.2,0.5-0.3,0.8-0.5c0.2-0.1,0.4-0.2,0.6-0.3c0.3-0.1,0.5-0.3,0.8-0.4
			c0.2-0.1,0.4-0.2,0.6-0.3c0.3-0.1,0.6-0.3,0.9-0.4c0.2-0.1,0.4-0.2,0.6-0.3c0.4-0.1,0.7-0.3,1.1-0.4c0.1-0.1,0.3-0.1,0.4-0.2
			c0.5-0.2,1-0.4,1.5-0.5c0.1,0,0.3-0.1,0.4-0.1c0.4-0.1,0.8-0.2,1.1-0.3c0.2-0.1,0.4-0.1,0.6-0.1c0.3-0.1,0.7-0.2,1-0.2
			c0.2,0,0.4-0.1,0.6-0.1c0.3-0.1,0.7-0.1,1-0.2c0.2,0,0.4-0.1,0.7-0.1c0.3,0,0.7-0.1,1-0.1c0.2,0,0.4,0,0.6-0.1
			c0.4,0,0.8-0.1,1.1-0.1c0.2,0,0.4,0,0.5,0c0.6,0,1.1,0,1.7,0c0.6,0,1.2,0,1.7,0c0.2,0,0.4,0,0.6,0c0.4,0,0.8,0.1,1.1,0.1
			c0.2,0,0.4,0.1,0.7,0.1c0.3,0,0.7,0.1,1,0.1c0.2,0,0.5,0.1,0.7,0.1c0.3,0.1,0.6,0.1,1,0.2c0.2,0,0.5,0.1,0.7,0.1
			c0.3,0.1,0.6,0.1,0.9,0.2c0.2,0.1,0.5,0.1,0.7,0.2c0.3,0.1,0.6,0.2,0.9,0.3c0.2,0.1,0.5,0.1,0.7,0.2c0.3,0.1,0.6,0.2,0.9,0.3
			c0.2,0.1,0.4,0.2,0.7,0.2c0.3,0.1,0.6,0.2,0.9,0.4c0.2,0.1,0.4,0.2,0.6,0.3c0.3,0.1,0.6,0.3,0.9,0.4c0.2,0.1,0.4,0.2,0.5,0.3
			c0.4,0.2,0.8,0.4,1.2,0.6c0.1,0,0.2,0.1,0.3,0.1c0.5,0.3,0.9,0.5,1.4,0.8c0.2,0.1,0.3,0.2,0.5,0.3c0.3,0.2,0.6,0.4,0.9,0.5
			c0.2,0.1,0.4,0.3,0.6,0.4c0.3,0.2,0.5,0.3,0.7,0.5c0.2,0.1,0.4,0.3,0.6,0.4c0.2,0.2,0.5,0.4,0.7,0.5c0.2,0.2,0.4,0.3,0.6,0.5
			c0.2,0.2,0.4,0.4,0.6,0.6c0.2,0.2,0.4,0.3,0.6,0.5c0.2,0.2,0.4,0.4,0.6,0.6c0.2,0.2,0.4,0.4,0.6,0.5c0.2,0.2,0.4,0.4,0.6,0.6
			c0.2,0.2,0.4,0.4,0.5,0.6c0.2,0.2,0.4,0.4,0.6,0.6c0.2,0.2,0.3,0.4,0.5,0.6c0.2,0.2,0.4,0.4,0.5,0.7c0.2,0.2,0.3,0.4,0.5,0.6
			c0.2,0.2,0.4,0.5,0.5,0.7c0.2,0.3,0.4,0.6,0.6,0.9c0.2,0.3,0.4,0.6,0.6,1c0.1,0.2,0.3,0.5,0.4,0.7c0.1,0.2,0.3,0.5,0.4,0.7
			c0.1,0.2,0.3,0.5,0.4,0.7c0.1,0.2,0.2,0.5,0.4,0.7c0.1,0.2,0.2,0.5,0.4,0.8c0.1,0.2,0.2,0.5,0.3,0.7c0.1,0.3,0.2,0.5,0.3,0.8
			c0.1,0.2,0.2,0.5,0.3,0.7c0.1,0.3,0.2,0.5,0.3,0.8c0.1,0.3,0.2,0.5,0.3,0.8c0.1,0.3,0.2,0.5,0.3,0.8c0.1,0.3,0.1,0.5,0.2,0.8
			c0.1,0.3,0.2,0.5,0.2,0.8c0.1,0.3,0.1,0.5,0.2,0.8c0.1,0.3,0.1,0.6,0.2,0.8c0.1,0.3,0.1,0.5,0.1,0.8c0,0.3,0.1,0.6,0.1,0.8
			c0,0,0,0.1,0,0.1c0,0,0,0,0,0c0.2,1.7,0.4,3.4,0.4,5.1C175.3,171,159.5,186.7,140.2,186.7z M147,159.9c3.8,0,7,3.1,7,7s-3.1,7-7,7
			s-7-3.1-7-7S143.1,159.9,147,159.9z M134.4,148.8c0-3.1,2.5-5.7,5.7-5.7s5.7,2.5,5.7,5.7s-2.5,5.7-5.7,5.7
			S134.4,151.9,134.4,148.8z M100.1,14.9c13.7-4.1,27.9-6.2,42.1-6.1c14.3,0,28.5,2,42.1,6.1c10.8,8.7,58,50.7,42.2,113.8
			c0,0-8.9-40-48.9-26.6c0.3-4.7,0.4-9.2,0.3-13.5c0-4.3-0.3-8.3-0.6-12.2c-0.2-1.9-0.4-3.8-0.6-5.6c-6.2-49.3-34.7-62-34.7-62
			s-28.5,12.6-34.7,62c-0.2,1.8-0.4,3.7-0.6,5.6c-0.3,3.9-0.5,7.9-0.6,12.2c0,4.3,0.1,8.8,0.3,13.5c-40-13.3-48.9,26.6-48.9,26.6
			C42.1,65.6,89.3,23.6,100.1,14.9z M142.3,11.6c5.9,3.3,35.9,23.5,33.2,87.1c-4.9-6.4-11.9-10.9-19.9-12.7
			c-8.7-2.3-17.9-2.3-26.6,0c-7.9,1.8-14.9,6.4-19.9,12.7C106.4,35.3,136.4,14.9,142.3,11.6z M107.8,143.2c0.7-2.4,2.4-3.9,3.6-3.6
			c1.2,0.4,1.6,2.6,0.9,5c-0.7,2.4-2.4,3.9-3.6,3.6C107.4,147.8,107,145.5,107.8,143.2z M108.2,188.5c7.4-2.8,15-6.1,22-9.9
			c2.4-1.3,4.8-2.7,7-4.2c0.8-0.6,1.8-1.4,2.4-2.2c1.6,2.2,4.1,3.6,6.9,3.7c-6.4,4.1-20.3,8.9-31.3,12c-5.2,1.5-10.4,3-15.7,3.5
			C102.5,190.6,105.5,189.5,108.2,188.5z M116.4,191.9c3.6-1,7.2-2.2,10.7-3.3c2.6,0.9,5.2,1.5,7.9,1.9c-4.6,6.4-8.9,13.1-12.8,19.9
			c-0.7,1.2-1.4,2.5-2.1,3.7l-9-20.8C112.9,192.9,114.6,192.4,116.4,191.9z M110.3,234.7c-0.1,0-0.1,0-0.2,0l0.2-0.1
			C110.3,234.6,110.3,234.7,110.3,234.7z M108.8,238.9c0,0-0.5,0.8-0.7,2.3c0.2,0.3,0.3,0.7,0.2,1.1c-0.2,1.6,0.4,2.9,1.4,4.1
			c2.7,2.4,9.4,5,17,5.3c6.1,0.2,14.2-0.9,16.2-5.3c0.8-1.8,0.5-4.5,0.8-4.5c7.5-0.5,10.8,9.6,3.2,15.4
			c-14.1,10.7-46.6,5.4-45.5-8.2C101.8,243.7,102.9,239.9,108.8,238.9z M153.7,252.7c1.6,0.9,3.1,1.9,4.6,2.9
			c-1.1,0.4-1.8,1-1.7,1.5c0.4-0.2,0.8-0.3,1.3-0.4c3.4-0.9,7.7-0.3,12.5,1.8c-1.8,1.3-3.6,2.5-5.6,3.6c-11.3,6.3-23.7,7.3-36.1,4
			c6.9-0.3,14.4-2.1,19.9-6.3C151.1,258,152.9,255.6,153.7,252.7z M117.9,335.5c-0.1,0.1-0.3,0.3-0.4,0.4l-2.1-1.2
			c0.8-0.8,1.5-1.7,2-2.7c0,0,0-0.1,0.1-0.1C117.7,333.1,117.8,334.3,117.9,335.5z M130.4,339.6c-0.1-0.5-0.1-1-0.2-1.4
			c-0.1-1-0.3-2.1-0.4-3.1c-0.1-0.6-0.1-1.1-0.2-1.7c-0.1-1-0.2-2-0.3-3c0-0.5-0.1-1.1-0.1-1.6c-0.1-1.1-0.1-2.2-0.2-3.3
			c0-0.3,0-0.7-0.1-1c0,0,0,0,0,0.1c-0.1-1.1-0.1-2.1-0.1-3.2c0,0,0,0,0,0c0-0.2,0-0.4,0-0.6c0-1.4-0.1-2.8-0.1-4.2
			c0-0.2,0-0.4,0-0.6c0-1.6,0-3.2,0.1-4.9c0-0.4,0-0.8,0-1.2c0-1.2,0.1-2.5,0.2-3.7c0-0.5,0.1-1,0.1-1.5c0.1-1.2,0.2-2.5,0.3-3.7
			c0-0.4,0.1-0.8,0.1-1.2c0.2-1.6,0.3-3.2,0.5-4.8c0-0.3,0.1-0.6,0.1-0.9c0.2-1.3,0.4-2.6,0.5-3.9c0.1-0.5,0.2-1,0.2-1.5
			c0.2-1.1,0.4-2.3,0.6-3.4c0.1-0.5,0.2-0.9,0.3-1.4c0.3-1.6,0.6-3.1,1-4.7c13,2,25.9,0,37.8-6.6c3.4-1.9,7.2-4.5,10.6-7.3
			c3.4,2.9,7.2,5.5,10.6,7.3c11.9,6.5,24.8,8.6,37.8,6.6c1.3,5.9,2.3,11.9,2.9,17.9l-68.2,40.5l-22,13l-8.5-5l-2.7-1.6
			C130.8,342.5,130.6,341,130.4,339.6z M209.2,373.5l-51.5,30.3L142,354.3l-16.3,49.5l-51.5-30.3l-51.5-30.1l17.3-50.6l102.3,60.7
			L244.2,293l16.6,50.3L209.2,373.5z M71.4,307c0-0.5,0.1-0.9,0.1-1.4c0-0.4,0.1-0.7,0.1-1.1c0,0,0,0,0,0c0,0,0,0,0,0
			c0.2,0.1,0.4,0.2,0.6,0.2c0.2,0.1,0.5,0.2,0.7,0.3c0.3,0.1,0.5,0.2,0.8,0.3c0.2,0.1,0.5,0.2,0.7,0.2c0.2,0.1,0.5,0.2,0.7,0.2
			c0.2,0.1,0.4,0.1,0.6,0.2c0.2,0.1,0.5,0.1,0.7,0.2c0.2,0.1,0.4,0.1,0.6,0.2c0.2,0.1,0.4,0.1,0.6,0.1c0.2,0,0.4,0.1,0.6,0.1
			c0.2,0,0.4,0.1,0.6,0.1c0.2,0,0.3,0.1,0.5,0.1c0.2,0,0.4,0.1,0.6,0.1c0.2,0,0.3,0,0.5,0.1c0.2,0,0.3,0,0.5,0.1c0.1,0,0.3,0,0.4,0
			c0.2,0,0.3,0,0.5,0c0.1,0,0.3,0,0.4,0c0.1,0,0.3,0,0.4,0c0.1,0,0.2,0,0.3,0c0.1,0,0.2,0,0.4,0c0.1,0,0.2,0,0.3,0
			c0.1,0,0.2,0,0.3,0c0.1,0,0.1,0,0.2,0c0.1,0,0.2,0,0.3,0c0,0,0.1,0,0.1,0c0.1,0,0.1,0,0.2,0c0,0,0.1,0,0.1,0c0.1,0,0.1,0,0.1,0
			c0,0,0,0,0.1,0c0,0,0.1,0,0.1,0l0.5,0l6.5-7.2l5.2-5.7l0,0l14.1,1.1l6.7,0.5c0,0.1,0,0.1,0,0.2c0,0.2,0,0.3-0.1,0.5
			c-0.1,0.9-0.2,1.8-0.3,2.7l0,0l-20.3-1.8l-11.5,13.1c0,0,0,0-0.1,0c0,0,0,0-0.1,0c0,0-0.1,0-0.1,0c0,0-0.1,0-0.1,0
			c-0.1,0-0.1,0-0.2,0c-0.1,0-0.1,0-0.2,0c-0.1,0-0.2,0-0.3,0c-0.1,0-0.1,0-0.2,0c-0.1,0-0.2,0-0.3,0c-0.1,0-0.2,0-0.3,0
			c-0.1,0-0.3,0-0.4,0c-0.1,0-0.2,0-0.3,0c-0.1,0-0.3,0-0.4-0.1c-0.1,0-0.2,0-0.4-0.1c-0.2,0-0.3,0-0.5-0.1c-0.1,0-0.3,0-0.4-0.1
			c-0.2,0-0.4-0.1-0.5-0.1c-0.1,0-0.3-0.1-0.4-0.1c-0.2,0-0.4-0.1-0.6-0.1c-0.2,0-0.3-0.1-0.5-0.1c-0.2,0-0.4-0.1-0.7-0.2
			c-0.2,0-0.3-0.1-0.5-0.1c-0.2-0.1-0.5-0.1-0.7-0.2c-0.2,0-0.4-0.1-0.5-0.1c-0.3-0.1-0.5-0.2-0.8-0.2c-0.2-0.1-0.3-0.1-0.5-0.2
			c-0.3-0.1-0.6-0.2-0.9-0.3c-0.2-0.1-0.3-0.1-0.5-0.2c-0.5-0.2-1-0.3-1.4-0.5c0,0,0,0,0,0c0,0,0,0,0,0c-0.4-0.2-0.8-0.3-1.2-0.5
			C71.6,307.1,71.5,307.1,71.4,307z M94.6,307.2c8.4,2.9,13.6-2.4,13.6-2.4s3.1,4,8.9,4.8c0,0.8-0.1,1.6-0.1,2.3
			c-0.9-0.1-1.7-0.3-2.6-0.5c-1.4-0.4-2.7-1-3.9-1.7c-0.3-0.2-0.6-0.4-0.9-0.6c-0.3-0.2-0.6-0.4-0.9-0.7L108,308l-0.7,0.4
			c-0.3,0.2-0.6,0.3-0.9,0.5c-0.3,0.2-0.6,0.3-0.9,0.4c-1.3,0.5-2.6,0.9-3.9,1c-1.4,0.2-2.8,0.1-4.2,0l-1.2-0.2l-0.3,1.2
			c-0.6,2.5-0.8,5-0.9,7.6c0,1.3,0.1,2.6,0.2,3.9l-2.4-1.4C92.5,317.1,92.9,312.2,94.6,307.2z M116.3,328.2
			c-0.3,0.9-0.6,1.8-1.1,2.6c-0.4,0.8-0.9,1.5-1.6,2c-0.2,0.1-0.4,0.3-0.6,0.4l-15-8.9c-0.3-1.8-0.5-3.7-0.5-5.6c0-2,0.2-4,0.6-5.9
			c1.2,0.1,2.4,0.1,3.6-0.1c1.6-0.2,3.1-0.6,4.6-1.2c0.4-0.1,0.7-0.3,1.1-0.5c0.1,0,0.2-0.1,0.3-0.2c0.1,0.1,0.2,0.2,0.3,0.2
			c0.4,0.2,0.7,0.5,1,0.7c1.5,0.9,3,1.5,4.6,2c1.1,0.3,2.1,0.5,3.2,0.6c0,3.5,0,7.1,0.2,10.6C116.9,326.2,116.6,327.2,116.3,328.2z
			 M174.6,255.1c-0.2,0.2-0.4,0.4-0.7,0.6c-0.6-0.3-1.2-0.5-1.8-0.7l3-3.2l1.7,1C176.2,253.6,175.4,254.4,174.6,255.1z M168,254
			c-1.7-0.3-3.5-0.3-5.2-0.2c-2.4-1.8-4.9-3.4-7.5-4.9c0-0.2-0.1-0.5-0.1-0.7l2.7-6.5l14,8.2L168,254z M159.1,238.7l4.3-10.4
			l18.6,10.9l-7.9,8.3L159.1,238.7z M161.3,224l-13.1,0.8c0.8-2.8,1.7-5.6,2.7-8.3c2.7-7.8,6-15.4,9.4-22.9
			c1.9-4.2,3.8-8.3,5.8-12.4c2.2-2,4.2-4.2,5.9-6.5c0.4-0.2,0.7-0.4,1.1-0.6c3,0.5,5.9,0.8,8.7,1L161.3,224z M30.6,162
			c4.4,1.5,9,2.4,13.7,2.4c5.8,0,11.7-1.3,17.1-3.7c3.4,3.2,10.8,9.1,22.1,12.3c0,0-0.1,0.1-0.1,0.1c-3.3,2.7-6.6,5.2-9.6,8.2
			c-2.1,2-4.6,4.7-4.8,7.8c-0.1,0.8,0,1.6,0.3,2.4c1.8,5.3,9.4,4.9,13.8,4.6c1.8-0.1,3.6-0.4,5.4-0.7c0.2,0,0.4,0.1,0.6,0.1
			c6.4,1,12.5,0.2,18.5-1.2l10.4,24c-0.9,1.6-1.7,3.2-2.5,4.9c-0.9,1.9-1.8,3.8-2.7,5.8l-10.6,6.2L30.6,162z M99,241.3
			c-0.9,1.9-1.4,4.1-1.7,6.7c-4.4,1.2-8.7,3.2-12.7,5.3c-4.8,2.6-9.4,5.7-13.8,9c-4.7,3.6-9.3,7.5-13.6,11.6c-3.5,3.4-7,7-10,10.8
			l-7.8,4.6l-0.6,0l-0.3-0.2l0,0.1l-19.3-1.4L99,241.3z M39.4,412v-55.9l33.4,19.5l54.2,31.9l14-42.4v105.7L39.4,412z M143.5,470.3
			v-103l12.8,40.2l54.2-31.9l34.1-19.9l-0.5,56.3L143.5,470.3z M265.4,287.9l-20.2,1.4l-1.9-1.1c-0.8-5-1.7-10-2.9-15L265.4,287.9z
			 M229.7,267c-8.5,1.7-17,1.2-25.1-1.7l-10.8-6.4l-5.2-3c-0.3-0.3-0.6-0.5-0.9-0.8c-1.1-1.1-2.3-2.2-3.3-3.4
			c-0.4-0.5-0.9-0.9-1.4-1.2c0,0,0,0,0,0c-0.3-0.1-0.6-0.2-0.9-0.3c-0.3-0.1-0.6-0.1-0.9-0.1c-0.6,0-1.2,0.1-1.8,0.4l-1.9-1.1
			l7.9-8.3L229.7,267z M184.7,236.4l-19.8-11.5l20.8-49.8c20.2-0.2,32.7-9.9,37.4-14.4c5.3,2.4,11.2,3.7,17.1,3.7
			c5.6,0,10.9-1.1,15.9-3.1L184.7,236.4z"/>
		<path class="st9" d="M190.6,16.9c15.4,13.8,52.5,54.2,38.7,111.5c15.4-1.4,30.2,6.7,37.3,20.6c2.3-9.6,3.8-19.4,4.5-29.2
			C271.1,73.2,237.8,33.4,190.6,16.9z"/>
		<path class="st9" d="M18,149.1L18,149.1c7.1-14,21.9-22.1,37.3-20.7C41.4,71.1,78.5,30.8,93.9,16.9
			C46.7,33.4,13.5,73.2,13.5,119.8C14.1,129.7,15.6,139.4,18,149.1C17.9,149.1,18,149.1,18,149.1z M64.4,40.9
			C36.5,76.4,43,115.8,43,115.8c-8.3-1-16.2,7-16.2,7C21.3,67.8,64.4,40.9,64.4,40.9z"/>
		<path class="st10" d="M128.9,86c8.7-2.3,17.9-2.3,26.6,0c7.9,1.8,14.9,6.4,19.9,12.7c2.7-63.6-27.3-83.8-33.2-87.1
			c-5.9,3.4-35.9,23.7-33.2,87.1C114,92.3,121,87.8,128.9,86z"/>
		<path class="st9" d="M50.4,287.3c-1.8,2.3-3.4,4.3-4.8,6l0.8,0.5c7-11.2,21.2-23.8,32.4-30.8c2.6-1.6,2-1.2,4.7-2.3
			c-11.9,10.7-25.7,20.9-33.8,35c0,0,0,0,0,0l3.2,1.9c6.4-10.7,28.8-30.1,28.8-30.1c0,0.1-0.1,0.2-0.1,0.2c0.9-1.4,1.9-2.7,2.9-4
			c2.4-3.1,7-5.8,12.2-7.9c-13,10.1-22,26.8-24.7,46.5c6.8,2.8,11.3,3.4,12.8,3.4l12.2-13.2l21.2,1.9c1-8.6,2.6-17.2,4.9-25.6
			c0.3-1.1,1-2,1.9-2.5c0.1-0.1,0.3-0.1,0.4-0.2c-5.3-0.1-10.8-1-15.6-2.9c-4.7-1.9-9.6-5.1-11.1-10.2c-0.1-0.4-0.2-0.7-0.3-1.1
			C82.5,256.1,59.9,275.1,50.4,287.3z M111.1,274.6c-0.2,0.9-0.4,1.8-0.6,2.7c0.2,0,0.4,0.1,0.6,0.1c0.9-0.8,1.7-1.6,2.5-2.4
			c0.6,0.1,1.2,0.2,1.8,0.2c-1,0.9-2,1.9-3.1,2.8c0.6,1.3,1.3,2.6,1.9,3.9c-0.6-0.1-1.3-0.2-1.9-0.3c-0.5-1-0.9-2-1.3-3.1
			c-0.3,0-0.6-0.1-0.8-0.1c-0.2,0.9-0.5,1.8-0.7,2.7c-0.5-0.1-1-0.2-1.5-0.3c0.7-2.2,1.2-4.3,1.8-6.5
			C110.2,274.4,110.6,274.5,111.1,274.6z M102.8,272.7c0.5,0.1,0.9,0.3,1.4,0.4c0.5,1.7,1,3.4,1.5,5.1c0,0,0,0,0,0
			c0.5-1.5,0.9-2.9,1.3-4.4c0.5,0.1,0.9,0.2,1.4,0.3c-0.6,2.2-1.2,4.3-1.9,6.5c-0.5-0.1-1-0.2-1.5-0.3c-0.5-1.7-1-3.4-1.5-5.1
			c0,0,0,0,0,0c-0.5,1.5-1,2.9-1.5,4.4c-0.5-0.1-1-0.3-1.5-0.4C101.3,276.9,102.1,274.8,102.8,272.7z M100.8,275
			c-0.1,0.4-0.3,0.8-0.4,1.1c-0.3,0.8-0.8,1.3-1.6,1.7c-0.8,0.3-1.6,0.3-2.5,0c-0.9-0.3-1.4-0.8-1.8-1.5c-0.3-0.7-0.3-1.4,0.1-2.2
			c0.2-0.4,0.3-0.7,0.5-1.1c0.3-0.8,0.8-1.3,1.5-1.6c0.7-0.3,1.4-0.3,2.2,0c0.8,0.3,1.4,0.8,1.7,1.4
			C101.1,273.5,101.1,274.2,100.8,275z M91.5,268.4c-0.4,0.9-0.8,1.7-1.3,2.6c0.9,0.4,1.7,0.8,2.6,1.2c0.4-0.9,0.8-1.7,1.2-2.6
			c0.4,0.2,0.8,0.4,1.3,0.5c-0.9,2.1-1.8,4.1-2.8,6.1c-0.5-0.2-0.9-0.4-1.4-0.6c0.4-0.8,0.8-1.7,1.2-2.5c-0.9-0.4-1.8-0.8-2.6-1.2
			c-0.4,0.8-0.9,1.6-1.3,2.5c-0.3-0.1-0.6-0.3-0.9-0.4c-3.7,8.1-6.7,16-7.5,26.8c-0.1,1.8-1.7,3.1-3.5,3c-1.8-0.1-3.1-1.7-3-3.5
			c1.7-11.9,8.8-28.8,17-37.5l3.7-3.2c-1.3,3-2.6,5.7-3.9,8.4C90.8,268.1,91.1,268.2,91.5,268.4z"/>
		<path class="st9" d="M72.3,304.8c-0.2-0.1-0.4-0.2-0.6-0.2c0,0,0,0,0,0c0.1,0,0.2,0.1,0.3,0.1C72.1,304.7,72.2,304.7,72.3,304.8z"
			/>
		<path class="st9" d="M117.7,299.2c0.1-0.9,0.2-1.8,0.3-2.7C117.9,297.4,117.8,298.3,117.7,299.2L117.7,299.2z"/>
		<path class="st9" d="M118,296c0-0.1,0-0.1,0-0.2l-6.7-0.5l6.7,0.5C118,295.9,118,295.9,118,296z"/>
		<polygon class="st9" points="90.1,305.7 85.9,310.5 97.4,297.4 95.4,299.6 		"/>
		<path class="st9" d="M98.6,272.4c-0.4-0.2-0.9-0.1-1.2,0.1c-0.4,0.2-0.7,0.6-0.9,1.1c-0.2,0.4-0.3,0.8-0.5,1.1
			c-0.2,0.5-0.3,0.9-0.1,1.3c0.1,0.4,0.4,0.7,0.9,0.9c0.5,0.2,0.9,0.1,1.3-0.1c0.4-0.2,0.7-0.6,0.9-1.1c0.1-0.4,0.3-0.8,0.4-1.1
			c0.2-0.5,0.2-0.9,0.1-1.3C99.4,272.8,99.1,272.5,98.6,272.4z"/>
		<path class="st9" d="M101.3,249.2c-1.1,13.6,31.4,18.9,45.5,8.2c7.7-5.8,4.3-16-3.2-15.4c-0.3,0,0.1,2.8-0.8,4.5
			c-2,4.3-10.1,5.5-16.2,5.3c-7.5-0.3-14.2-2.9-17-5.3c5.5,6.3,25.2,7.5,31.9,2.8l0.7-0.5c-3.7,8.3-38.4,8.3-37.4-6.9
			c0.2-0.9,1-1.5,1.9-1.4c0.5,0.1,0.9,0.4,1.2,0.8c0.1-1.6,0.7-2.3,0.7-2.3C102.9,239.9,101.8,243.7,101.3,249.2z M145.9,250.1
			c1.1,0,2,0.9,1.9,2c0,1.1-0.9,2-2,1.9c-1.1,0-2-0.9-1.9-2C143.9,250.9,144.8,250,145.9,250.1z M138.9,254.1c1.1,0,2,1,1.9,2
			c0,1.1-0.9,2-2,1.9c-1.1,0-2-0.9-1.9-2C136.9,255,137.8,254.1,138.9,254.1z M130.2,256c1.1,0,2,0.9,1.9,2c0,1.1-0.9,2-2,1.9
			c-1.1,0-2-0.9-1.9-2C128.2,256.8,129.1,255.9,130.2,256z M120.9,255.3c1.1,0,2,1,1.9,2c0,1.1-1,2-2,1.9c-1.1,0-2-0.9-1.9-2
			C118.9,256.1,119.8,255.2,120.9,255.3z M112.6,252.6c1.1,0,2,0.9,1.9,2c0,1.1-1,2-2,1.9c-1.1,0-2-0.9-1.9-2
			C110.5,253.4,111.5,252.6,112.6,252.6z M107.8,250.5c0,1.1-1,2-2,1.9c-1.1,0-2-1-1.9-2c0-1.1,1-2,2-1.9
			C107,248.4,107.9,249.4,107.8,250.5z"/>
		<path class="st11" d="M175.3,151.6c0-1.7-0.1-3.4-0.4-5.1c-2.4,10.9-9.8,19.9-19.8,24.4c-0.6,1.1-1.4,2.2-2.3,3c0,0,0,0,0,0
			c-1.3,3.3-6.7,5.9-9.7,7.4c-3.5,1.7-7.2,3.1-11,4.5c2.6,0.6,5.3,0.9,8.1,0.9C159.5,186.7,175.3,171,175.3,151.6z"/>
		<path class="st9" d="M174.9,146.5C174.9,146.5,174.9,146.5,174.9,146.5C174.9,146.4,174.9,146.4,174.9,146.5
			c-0.1-0.4-0.1-0.6-0.2-0.9c0-0.3-0.1-0.5-0.1-0.8c-0.1-0.3-0.1-0.6-0.2-0.8c-0.1-0.3-0.1-0.5-0.2-0.8c-0.1-0.3-0.1-0.6-0.2-0.8
			c-0.1-0.3-0.1-0.5-0.2-0.8c-0.1-0.3-0.2-0.5-0.3-0.8c-0.1-0.3-0.2-0.5-0.3-0.8c-0.1-0.3-0.2-0.5-0.3-0.8c-0.1-0.2-0.2-0.5-0.3-0.7
			c-0.1-0.3-0.2-0.5-0.3-0.8c-0.1-0.2-0.2-0.5-0.3-0.7c-0.1-0.3-0.2-0.5-0.4-0.8c-0.1-0.2-0.2-0.5-0.4-0.7c-0.1-0.2-0.2-0.5-0.4-0.7
			c-0.1-0.2-0.3-0.5-0.4-0.7c-0.1-0.2-0.3-0.5-0.4-0.7c-0.2-0.3-0.4-0.6-0.6-1c-0.2-0.3-0.4-0.6-0.6-0.9c-0.2-0.2-0.3-0.5-0.5-0.7
			c-0.2-0.2-0.3-0.4-0.5-0.6c-0.2-0.2-0.3-0.4-0.5-0.7c-0.2-0.2-0.3-0.4-0.5-0.6c-0.2-0.2-0.4-0.4-0.6-0.6c-0.2-0.2-0.4-0.4-0.5-0.6
			c-0.2-0.2-0.4-0.4-0.6-0.6c-0.2-0.2-0.4-0.4-0.6-0.5c-0.2-0.2-0.4-0.4-0.6-0.6c-0.2-0.2-0.4-0.3-0.6-0.5c-0.2-0.2-0.4-0.4-0.6-0.6
			c-0.2-0.2-0.4-0.3-0.6-0.5c-0.2-0.2-0.5-0.4-0.7-0.5c-0.2-0.2-0.4-0.3-0.6-0.4c-0.2-0.2-0.5-0.4-0.7-0.5c-0.2-0.1-0.4-0.3-0.6-0.4
			c-0.3-0.2-0.6-0.4-0.9-0.5c-0.2-0.1-0.3-0.2-0.5-0.3c-0.5-0.3-0.9-0.5-1.4-0.8c-0.1,0-0.2-0.1-0.3-0.1c-0.4-0.2-0.8-0.4-1.2-0.6
			c-0.2-0.1-0.4-0.2-0.5-0.3c-0.3-0.1-0.6-0.3-0.9-0.4c-0.2-0.1-0.4-0.2-0.6-0.3c-0.3-0.1-0.6-0.2-0.9-0.4c-0.2-0.1-0.4-0.2-0.7-0.2
			c-0.3-0.1-0.6-0.2-0.9-0.3c-0.2-0.1-0.5-0.1-0.7-0.2c-0.3-0.1-0.6-0.2-0.9-0.3c-0.2-0.1-0.5-0.1-0.7-0.2c-0.3-0.1-0.6-0.1-0.9-0.2
			c-0.2-0.1-0.5-0.1-0.7-0.1c-0.3-0.1-0.6-0.1-1-0.2c-0.2,0-0.5-0.1-0.7-0.1c-0.3,0-0.7-0.1-1-0.1c-0.2,0-0.4-0.1-0.7-0.1
			c-0.4,0-0.8-0.1-1.1-0.1c-0.2,0-0.4,0-0.6,0c-0.6,0-1.2,0-1.7,0c-0.6,0-1.1,0-1.7,0c-0.2,0-0.4,0-0.5,0c-0.4,0-0.8,0.1-1.1,0.1
			c-0.2,0-0.4,0-0.6,0.1c-0.3,0-0.7,0.1-1,0.1c-0.2,0-0.4,0.1-0.7,0.1c-0.3,0.1-0.7,0.1-1,0.2c-0.2,0-0.4,0.1-0.6,0.1
			c-0.3,0.1-0.7,0.2-1,0.2c-0.2,0-0.4,0.1-0.6,0.1c-0.4,0.1-0.8,0.2-1.1,0.3c-0.1,0-0.3,0.1-0.4,0.1c-0.5,0.2-1,0.3-1.5,0.5
			c-0.1,0.1-0.3,0.1-0.4,0.2c-0.4,0.1-0.7,0.3-1.1,0.4c-0.2,0.1-0.4,0.2-0.6,0.3c-0.3,0.1-0.6,0.3-0.9,0.4c-0.2,0.1-0.4,0.2-0.6,0.3
			c-0.3,0.1-0.6,0.3-0.8,0.4c-0.2,0.1-0.4,0.2-0.6,0.3c-0.3,0.1-0.5,0.3-0.8,0.5c-0.2,0.1-0.4,0.2-0.6,0.3c-0.3,0.2-0.5,0.3-0.8,0.5
			c-0.2,0.1-0.4,0.2-0.5,0.3c-0.3,0.2-0.7,0.5-1,0.7c-0.2,0.1-0.4,0.3-0.5,0.4c-0.3,0.2-0.6,0.5-1,0.8c-0.2,0.1-0.3,0.3-0.5,0.4
			c-0.2,0.2-0.5,0.4-0.7,0.6c-0.2,0.2-0.4,0.3-0.5,0.5c-0.2,0.2-0.4,0.4-0.6,0.6c-0.2,0.2-0.4,0.4-0.5,0.5c-0.2,0.2-0.4,0.4-0.6,0.6
			c-0.2,0.2-0.3,0.4-0.5,0.6c-0.1,0.1-0.2,0.2-0.2,0.3c1-0.2,1.9-0.3,2.3-0.3c11.9-0.3,27.6,4.9,33.3,11.3
			c4.9,5.4,0.4,14.3-6.1,19.1c0,0,0,0,0,0c1.1-0.5,2.4-0.8,3.7-0.8c5,0,9.1,4.1,9.1,9.1c0,1.5-0.4,2.8-1,4.1
			C165.1,166.4,172.5,157.4,174.9,146.5z M143.1,120.2c-8.1-2.7,2,1-6.4-2.2c4.7-0.7,5.6-0.8,10.4,0.3c15.6,3.8,24.7,15.7,25.9,31.5
			c0,1.9-1.6,3.5-3.5,3.4c-1.9,0-3.5-1.6-3.4-3.5C166,134.7,157.1,124.9,143.1,120.2z"/>
		<path class="st9" d="M148.7,259.9c-5.5,4.2-13.1,6-19.9,6.3c12.4,3.4,24.7,2.3,36.1-4c1.9-1.1,3.8-2.3,5.6-3.6
			c-4.8-2.1-9.1-2.7-12.5-1.8c-0.4,0.1-0.9,0.3-1.3,0.4c-0.1-0.6,0.6-1.1,1.7-1.5c-1.5-1-3-2-4.6-2.9
			C152.9,255.6,151.1,258,148.7,259.9z"/>
		<path class="st9" d="M140.7,243.4c0.1-0.7,0.1-1.4,0.2-2.1c-4,0.9-10.1,1-15.9,0.3c-4.9-0.6-9.5-1.7-12.1-3.4
			c-0.2,0.6-0.4,1.3-0.7,1.9c3,1.7,7.7,2.9,12.5,3.5C130.4,244.3,136.4,244.2,140.7,243.4z"/>
		<path class="st9" d="M125.4,229.7c5.9,1.1,12.8,2,17.1,2.5c0.1-0.7,0.3-1.3,0.5-2c-4.2-0.4-11.2-1.4-17.1-2.5
			c-3.1-0.6-5.9-1.2-7.8-1.7c-0.2,0.4-0.4,0.8-0.6,1.2c-0.1,0.2-0.2,0.5-0.3,0.7C119.2,228.5,122.2,229.1,125.4,229.7z"/>
		<path class="st9" d="M124.9,213c-0.4,0.7-0.8,1.3-1.1,2c4,0.1,7.9,0.5,11.6,1.4c3.6,0.8,7,2,10.4,3.6c0.2-0.7,0.4-1.3,0.6-2
			c-3.5-1.6-7-2.8-10.6-3.6C132.2,213.7,128.6,213.2,124.9,213z"/>
		<path class="st9" d="M151.1,205.6c-3.5-2.2-7.1-3.7-10.6-4.6c-2.7-0.7-5.3-1-7.7-0.9c-0.5,0.7-0.9,1.4-1.4,2.1
			c2.7-0.3,5.6,0,8.6,0.7c3.4,0.8,6.9,2.3,10.3,4.5C150.6,206.9,150.8,206.3,151.1,205.6z"/>
		<path class="st9" d="M156,194.2c-2.5-1.4-5.2-2.3-7.9-3c-3-0.7-6-1.1-8.3-1.2c-0.5,0.7-1,1.3-1.5,2c2.3,0,5.7,0.3,9.3,1.2
			c2.6,0.6,5.2,1.5,7.5,2.9C155.4,195.4,155.7,194.8,156,194.2z"/>
		<path class="st9" d="M145.7,148.8c0-3.1-2.5-5.7-5.7-5.7s-5.7,2.5-5.7,5.7s2.5,5.7,5.7,5.7S145.7,151.9,145.7,148.8z M139.9,147.5
			c0-1.4,1.1-2.5,2.5-2.5c1.4,0,2.5,1.1,2.5,2.5c0,1.4-1.1,2.5-2.5,2.5C141,150,139.9,148.9,139.9,147.5z"/>
		<path class="st12" d="M115.2,188c10.9-3.2,24.8-8,31.3-12c-2.8-0.1-5.3-1.6-6.9-3.7c-0.7,0.9-1.6,1.6-2.4,2.2
			c-2.2,1.6-4.7,3-7,4.2c-7,3.8-14.5,7.1-22,9.9c-2.7,1-5.6,2-8.6,3C104.8,190.9,110,189.5,115.2,188z"/>
		<path class="st13" d="M82.8,191.9c17.1-1.2,47.9-15.8,53.6-20.8c0.4-0.3,1-0.8,1.8-1.4c-0.3-0.9-0.4-1.8-0.4-2.8
			c0-1.7,0.5-3.3,1.3-4.7c-13.6,1-14.2-6.3-22.5-11.9c-2.3-1.5-4.9-1.1-7.4,1.3c0.9-0.5,2-0.6,3-0.2c1.8,0.7,2.6,2.8,1.9,4.6
			c-5.3,10.2-8.2,11.3-17.3,17.9c-6.2,4.4-12.6,9.3-19.5,12.6c4.4-6.4,10.6-11.3,16.4-16.5c7.4-6.5,10-7.5,13.9-16.6
			c-0.9,1.2-1.9,2.7-2.7,4.6c-1.7,3.7-8.2,9.6-16.7,16.6C77.1,183.6,63.4,193.2,82.8,191.9z"/>
		<path class="st9" d="M147,173.8c3.8,0,7-3.1,7-7s-3.1-7-7-7s-7,3.1-7,7S143.1,173.8,147,173.8z M143.1,163c2.1-2.1,5.6-2.1,7.7,0
			c2.1,2.1,2.1,5.6,0,7.7c-2.1,2.1-5.6,2.1-7.7,0C141,168.6,141,165.1,143.1,163z"/>
		<path class="st8" d="M150.8,170.7c2.1-2.1,2.1-5.6,0-7.7c-2.1-2.1-5.6-2.1-7.7,0c-2.1,2.1-2.1,5.6,0,7.7
			C145.2,172.8,148.7,172.8,150.8,170.7z M150.1,169.9c-1.5,1.5-3.8,1.7-5.5,0.5l6.1-6.1C151.7,166.1,151.6,168.4,150.1,169.9z
			 M143.9,163.7c1.5-1.5,3.8-1.7,5.5-0.5l-6.1,6.1C142.2,167.6,142.4,165.3,143.9,163.7z"/>
		<path class="st9" d="M149.4,163.2c-1.7-1.1-4-1-5.5,0.5c-1.5,1.5-1.7,3.8-0.5,5.5L149.4,163.2z"/>
		<path class="st9" d="M150.1,169.9c1.5-1.5,1.7-3.8,0.5-5.5l-6.1,6.1C146.2,171.6,148.6,171.4,150.1,169.9z"/>
		<path class="st8" d="M144.8,147.5c0-1.4-1.1-2.5-2.5-2.5c-1.4,0-2.5,1.1-2.5,2.5c0,1.4,1.1,2.5,2.5,2.5
			C143.7,150,144.8,148.9,144.8,147.5z"/>
		<path class="st9" d="M108.6,148.2c1.2,0.4,2.8-1.2,3.6-3.6c0.7-2.4,0.4-4.6-0.9-5c-1.2-0.4-2.8,1.2-3.6,3.6
			C107,145.5,107.4,147.8,108.6,148.2z M110.2,142.9c0.3-1,1-1.7,1.6-1.5c0.5,0.2,0.7,1.1,0.4,2.2c-0.3,1-1,1.7-1.6,1.5
			C110.1,144.9,109.9,144,110.2,142.9z"/>
		<path class="st8" d="M110.6,145.1c0.5,0.2,1.2-0.5,1.6-1.5c0.3-1,0.2-2-0.4-2.2c-0.5-0.2-1.2,0.5-1.6,1.5
			C109.9,144,110.1,144.9,110.6,145.1z"/>
		<path class="st13" d="M117.5,332.1c-0.5,1-1.2,1.9-2,2.7l2.1,1.2c0.1-0.1,0.3-0.2,0.4-0.4c-0.1-1.2-0.2-2.4-0.3-3.6
			C117.5,332,117.5,332,117.5,332.1z"/>
		<path class="st13" d="M95.2,322.7c-0.1-1.3-0.2-2.6-0.2-3.9c0-2.6,0.3-5.1,0.9-7.6l0.3-1.2l1.2,0.2c1.4,0.2,2.8,0.2,4.2,0
			c1.3-0.2,2.6-0.5,3.9-1c0.3-0.1,0.6-0.3,0.9-0.4c0.3-0.2,0.6-0.3,0.9-0.5l0.7-0.4l0.7,0.5c0.3,0.2,0.6,0.4,0.9,0.7
			c0.3,0.2,0.6,0.4,0.9,0.6c1.3,0.8,2.6,1.3,3.9,1.7c0.8,0.2,1.7,0.4,2.6,0.5c0-0.8,0.1-1.6,0.1-2.3c-5.7-0.8-8.9-4.8-8.9-4.8
			s-5.2,5.3-13.6,2.4c-1.7,5-2.1,9.8-1.8,14L95.2,322.7z"/>
		<path class="st14" d="M116.9,314.5c-1.1-0.1-2.2-0.3-3.2-0.6c-1.6-0.5-3.1-1.1-4.6-2c-0.3-0.2-0.7-0.4-1-0.7
			c-0.1-0.1-0.2-0.2-0.3-0.2c-0.1,0.1-0.2,0.1-0.3,0.2c-0.4,0.2-0.7,0.3-1.1,0.5c-1.5,0.6-3,1-4.6,1.2c-1.2,0.1-2.4,0.2-3.6,0.1
			c-0.4,1.9-0.6,3.9-0.6,5.9c0,1.9,0.2,3.7,0.5,5.6l15,8.9c0.2-0.1,0.4-0.3,0.6-0.4c0.6-0.6,1.2-1.3,1.6-2c0.4-0.8,0.8-1.7,1.1-2.6
			c0.3-1,0.6-2,0.8-3.1C116.9,321.6,116.9,318.1,116.9,314.5z"/>
		<path class="st8" d="M103.8,250.3c0,1.1,0.8,2,1.9,2c1.1,0,2-0.8,2-1.9c0-1.1-0.8-2-1.9-2C104.8,248.4,103.9,249.2,103.8,250.3z"
			/>
		<path class="st8" d="M145.8,254c1.1,0,2-0.8,2-1.9c0-1.1-0.8-2-1.9-2c-1.1,0-2,0.8-2,1.9C143.9,253.1,144.7,254,145.8,254z"/>
		<path class="st8" d="M138.8,258.1c1.1,0,2-0.8,2-1.9c0-1.1-0.8-2-1.9-2c-1.1,0-2,0.8-2,1.9C136.8,257.2,137.7,258.1,138.8,258.1z"
			/>
		<path class="st8" d="M130.1,259.9c1.1,0,2-0.8,2-1.9c0-1.1-0.8-2-1.9-2c-1.1,0-2,0.8-2,1.9C128.1,259,129,259.9,130.1,259.9z"/>
		<path class="st8" d="M120.8,259.2c1.1,0,2-0.8,2-1.9c0-1.1-0.8-2-1.9-2c-1.1,0-2,0.8-2,1.9C118.8,258.3,119.7,259.2,120.8,259.2z"
			/>
		<path class="st8" d="M112.4,256.6c1.1,0,2-0.8,2-1.9c0-1.1-0.8-2-1.9-2c-1.1,0-2,0.8-2,1.9C110.5,255.6,111.3,256.6,112.4,256.6z"
			/>
		<path class="st10" d="M169.5,153.3c1.9,0,3.5-1.5,3.5-3.4c-1.2-15.8-10.3-27.8-25.9-31.5c-4.8-1.2-5.7-1.1-10.4-0.3
			c8.4,3.2-1.7-0.5,6.4,2.2c14,4.7,22.8,14.5,22.9,29.6C166,151.8,167.5,153.3,169.5,153.3z"/>
		<path class="st2" d="M93.8,169.9c-5.8,5.1-12.1,10-16.4,16.5c6.8-3.3,13.3-8.2,19.5-12.6c9.1-6.5,12-7.6,17.3-17.9
			c0.7-1.8-0.1-3.8-1.9-4.6c-1-0.4-2.1-0.3-3,0.2c-0.7,0.4-1.2,0.9-1.5,1.7c0,0,0,0,0,0.1C103.8,162.3,101.2,163.3,93.8,169.9z"/>
		<path class="st9" d="M127.1,270c-6.8,25.3-7.1,49.2-4.6,68.9l4.1,2.4c-3-20.9-2.3-42.4,2.3-63c0.5-2.1,2.5-3.5,4.7-3.2
			c12.2,1.9,24.3-0.2,35.1-6.1c3.5-1.9,6.9-4.3,9.9-6.9c1.5-1.3,3.8-1.3,5.3,0c3,2.6,6.4,4.9,9.9,6.9c10.8,6,22.9,8,35.1,6.1
			c2.2-0.3,4.2,1.1,4.7,3.2c1.2,5.4,2.1,11,2.8,16.5l3.4-2c-1-7.4-2.4-15-4.5-22.8c-34,9.6-54.1-15.7-54.1-15.7
			S161.1,279.6,127.1,270z"/>
		<path class="st11" d="M233.5,278.3c-0.5-2.1-2.5-3.5-4.7-3.2c-12.2,1.9-24.3-0.2-35.1-6.1c-3.5-1.9-6.9-4.3-9.9-6.9
			c-1.5-1.3-3.8-1.3-5.3,0c-3,2.6-6.4,4.9-9.9,6.9c-10.8,6-22.9,8-35.1,6.1c-2.2-0.3-4.2,1.1-4.7,3.2c-4.6,20.6-5.3,42.1-2.3,63
			l2.3,1.3c-3.3-21.2-2.6-43,2-63.9c0.2-1.1,1.3-1.8,2.3-1.6c12.7,2,25.2-0.1,36.4-6.3c3.6-2,7.1-4.4,10.2-7.1
			c0.8-0.7,1.9-0.7,2.7,0c3.1,2.7,6.6,5.1,10.2,7.1c11.3,6.2,23.8,8.3,36.4,6.3c1.1-0.2,2.1,0.5,2.3,1.6c1.3,5.7,2.2,11.4,2.9,17.2
			l2-1.2C235.7,289.2,234.7,283.7,233.5,278.3z"/>
		<path class="st13" d="M133.7,345.3c0,0.1,0,0.1,0.1,0.2l8.5,5l22-13c-7.2-2.1-13.9-4.6-20-7.5l-7.7,12.6c0,0,0,0-2.8-10.5
			c-0.7-2.4-1.1-5.3-1.3-8.6c-1.2-0.7-2.3-1.5-3.4-2.3c0,1.1,0.1,2.1,0.1,3.2c0.1,0.7,0.2,1.4,0.3,2.2
			C130.4,332.9,131.8,339.2,133.7,345.3z"/>
		<path class="st15" d="M135.2,282.8c30.1,3.3,46.5-14.2,46.5-14.2L144.1,330c6.1,2.9,12.9,5.4,20,7.5l68.2-40.5
			c-0.7-6-1.6-12-2.9-17.9c-13,2-25.9,0-37.8-6.6c-3.4-1.9-7.2-4.5-10.6-7.3c-3.4,2.9-7.2,5.5-10.6,7.3c-11.9,6.5-24.8,8.6-37.8,6.6
			c-0.3,1.6-0.7,3.1-1,4.7c-0.1,0.5-0.2,0.9-0.3,1.4c-0.2,1.1-0.4,2.3-0.6,3.4c-0.1,0.5-0.2,1-0.2,1.5c-0.2,1.3-0.4,2.6-0.5,3.9
			c0,0.3-0.1,0.6-0.1,0.9c-0.2,1.6-0.4,3.2-0.5,4.8c0,0.4-0.1,0.8-0.1,1.2c-0.1,1.2-0.2,2.5-0.3,3.7c0,0.5-0.1,1-0.1,1.5
			c-0.1,1.2-0.1,2.4-0.2,3.7c0,0.4,0,0.8,0,1.2c0,1.6-0.1,3.2-0.1,4.9c0,0.2,0,0.4,0,0.6c0,1.4,0,2.8,0.1,4.2c0,0.2,0,0.4,0,0.6
			c0,0,0,0,0,0c1.1,0.8,2.3,1.5,3.4,2.3C131.5,312.8,132.8,298.1,135.2,282.8z"/>
		<path class="st10" d="M83.5,260.7c-2.7,1.1-2.1,0.7-4.7,2.3c-11.1,7-25.4,19.6-32.4,30.8l3.3,1.9c0,0,0,0,0,0
			C57.8,281.6,71.6,271.4,83.5,260.7z"/>
		<path class="st11" d="M73,307.7C73,307.7,73,307.7,73,307.7c0.5,0.2,1,0.4,1.4,0.5c0.2,0.1,0.3,0.1,0.5,0.2
			c0.3,0.1,0.6,0.2,0.9,0.3c0.2,0.1,0.3,0.1,0.5,0.2c0.3,0.1,0.5,0.2,0.8,0.2c0.2,0.1,0.4,0.1,0.5,0.1c0.2,0.1,0.5,0.1,0.7,0.2
			c0.2,0,0.3,0.1,0.5,0.1c0.2,0.1,0.4,0.1,0.7,0.2c0.2,0,0.3,0.1,0.5,0.1c0.2,0,0.4,0.1,0.6,0.1c0.2,0,0.3,0.1,0.4,0.1
			c0.2,0,0.4,0.1,0.5,0.1c0.1,0,0.3,0,0.4,0.1c0.2,0,0.3,0.1,0.5,0.1c0.1,0,0.3,0,0.4,0.1c0.2,0,0.3,0,0.4,0.1c0.1,0,0.2,0,0.3,0
			c0.1,0,0.3,0,0.4,0c0.1,0,0.2,0,0.3,0c0.1,0,0.2,0,0.3,0c0.1,0,0.2,0,0.2,0c0.1,0,0.2,0,0.3,0c0.1,0,0.1,0,0.2,0
			c0.1,0,0.1,0,0.2,0c0,0,0.1,0,0.1,0c0.1,0,0.1,0,0.1,0c0,0,0,0,0.1,0c0,0,0.1,0,0.1,0l4.2-4.8l5.3-6.1l1.9-2.2l20.3,1.8
			c0.1-0.9,0.2-1.8,0.3-2.7c0-0.2,0-0.3,0.1-0.5c0-0.1,0-0.1,0-0.2l-6.7-0.5l-14.1-1.1l0,0l-5.2,5.7l-6.5,7.2l-0.5,0c0,0,0,0-0.1,0
			c0,0,0,0-0.1,0c0,0-0.1,0-0.1,0c0,0-0.1,0-0.1,0c-0.1,0-0.1,0-0.2,0c0,0-0.1,0-0.1,0c-0.1,0-0.2,0-0.3,0c-0.1,0-0.1,0-0.2,0
			c-0.1,0-0.2,0-0.3,0c-0.1,0-0.2,0-0.3,0c-0.1,0-0.2,0-0.4,0c-0.1,0-0.2,0-0.3,0c-0.1,0-0.3,0-0.4,0c-0.1,0-0.2,0-0.4,0
			c-0.2,0-0.3,0-0.5,0c-0.1,0-0.3,0-0.4,0c-0.2,0-0.3,0-0.5-0.1c-0.1,0-0.3,0-0.5-0.1c-0.2,0-0.4-0.1-0.6-0.1
			c-0.2,0-0.3-0.1-0.5-0.1c-0.2,0-0.4-0.1-0.6-0.1c-0.2,0-0.4-0.1-0.6-0.1c-0.2,0-0.4-0.1-0.6-0.1c-0.2,0-0.4-0.1-0.6-0.2
			c-0.2-0.1-0.5-0.1-0.7-0.2c-0.2-0.1-0.4-0.1-0.6-0.2c-0.2-0.1-0.5-0.1-0.7-0.2c-0.2-0.1-0.5-0.1-0.7-0.2c-0.2-0.1-0.5-0.2-0.8-0.3
			c-0.2-0.1-0.5-0.2-0.7-0.3c-0.1,0-0.2-0.1-0.3-0.1c-0.1,0-0.2-0.1-0.3-0.1c0,0,0,0,0,0c0,0.4-0.1,0.7-0.1,1.1
			c0,0.5-0.1,0.9-0.1,1.4c0.1,0,0.2,0.1,0.3,0.1C72.2,307.3,72.6,307.5,73,307.7C73,307.7,73,307.7,73,307.7z"/>
		<path class="st10" d="M94.3,259.5l-3.7,3.2c-8.2,8.7-15.3,25.7-17,37.5c-0.1,1.8,1.2,3.3,3,3.5c1.8,0.1,3.3-1.2,3.5-3
			c0.8-10.8,3.7-18.7,7.5-26.8c-0.1-0.1-0.3-0.1-0.4-0.2c1.1-2,2.2-3.9,3.2-5.9c0,0,0.1,0,0.1,0.1C91.7,265.2,93,262.5,94.3,259.5z"
			/>
		<path class="st10" d="M107,240.5c-0.9-0.2-1.8,0.5-1.9,1.4c-1,15.2,33.7,15.2,37.4,6.9l-0.7,0.5c-6.7,4.8-26.4,3.5-31.9-2.8
			c-1.1-1.2-1.6-2.6-1.4-4.1c0.1-0.4,0-0.8-0.2-1.1C107.9,240.9,107.5,240.5,107,240.5z"/>
		<path class="st12" d="M133.7,345.5c0-0.1,0-0.1-0.1-0.2c-1.9-6.1-3.3-12.4-4.3-18.7c-0.1-0.7-0.2-1.4-0.3-2.2c0,0,0,0,0-0.1
			c0,0.3,0,0.7,0.1,1c0.1,1.1,0.1,2.2,0.2,3.3c0,0.5,0.1,1.1,0.1,1.6c0.1,1,0.2,2,0.3,3c0.1,0.6,0.1,1.1,0.2,1.7
			c0.1,1,0.2,2.1,0.4,3.1c0.1,0.5,0.1,1,0.2,1.4c0.2,1.5,0.4,2.9,0.7,4.4L133.7,345.5z"/>
		<path class="st2" d="M181.6,268.7c0,0-16.4,17.4-46.5,14.2c-2.3,15.2-3.7,30-2.9,40.7c0.2,3.3,0.7,6.2,1.3,8.6
			c2.8,10.5,2.8,10.5,2.8,10.5l7.7-12.6L181.6,268.7z"/>
		<path class="st8" d="M87.1,273.7c0.1,0.1,0.3,0.1,0.4,0.2c0.3,0.1,0.6,0.3,0.9,0.4c0.4-0.8,0.9-1.6,1.3-2.5
			c0.9,0.4,1.7,0.8,2.6,1.2c-0.4,0.8-0.8,1.7-1.2,2.5c0.4,0.2,0.9,0.4,1.4,0.6c1-2,1.9-4.1,2.8-6.1c-0.4-0.2-0.8-0.3-1.3-0.5
			c-0.4,0.9-0.8,1.7-1.2,2.6c-0.9-0.4-1.7-0.8-2.6-1.2c0.4-0.9,0.9-1.7,1.3-2.6c-0.4-0.2-0.7-0.4-1.1-0.5c0,0-0.1,0-0.1-0.1
			C89.3,269.8,88.2,271.8,87.1,273.7z"/>
		<path class="st8" d="M99,271.4c-0.8-0.3-1.5-0.3-2.2,0c-0.7,0.3-1.2,0.8-1.5,1.6c-0.2,0.4-0.3,0.7-0.5,1.1
			c-0.3,0.8-0.4,1.5-0.1,2.2c0.3,0.7,0.9,1.2,1.8,1.5c0.9,0.3,1.7,0.3,2.5,0c0.8-0.3,1.3-0.9,1.6-1.7c0.1-0.4,0.3-0.8,0.4-1.1
			c0.3-0.8,0.2-1.5-0.1-2.2C100.4,272.1,99.8,271.7,99,271.4z M99.5,274.5c-0.1,0.4-0.3,0.8-0.4,1.1c-0.2,0.5-0.5,0.9-0.9,1.1
			c-0.4,0.2-0.8,0.3-1.3,0.1c-0.5-0.2-0.8-0.5-0.9-0.9c-0.1-0.4-0.1-0.9,0.1-1.3c0.2-0.4,0.3-0.7,0.5-1.1c0.2-0.5,0.5-0.8,0.9-1.1
			c0.4-0.2,0.8-0.3,1.2-0.1c0.5,0.2,0.7,0.4,0.9,0.8C99.7,273.6,99.6,274,99.5,274.5z"/>
		<path class="st8" d="M102,279.5c0.5-1.4,1-2.9,1.5-4.4c0,0,0,0,0,0c0.5,1.7,0.9,3.4,1.5,5.1c0.5,0.1,1,0.2,1.5,0.3
			c0.7-2.2,1.3-4.3,1.9-6.5c-0.5-0.1-0.9-0.2-1.4-0.3c-0.4,1.5-0.8,2.9-1.3,4.4c0,0,0,0,0,0c-0.5-1.7-1-3.4-1.5-5.1
			c-0.5-0.1-0.9-0.3-1.4-0.4c-0.7,2.1-1.5,4.2-2.3,6.4C101,279.2,101.5,279.3,102,279.5z"/>
		<path class="st8" d="M109.4,281.2c0.3-0.9,0.5-1.8,0.7-2.7c0.3,0,0.5,0.1,0.8,0.1c0.4,1,0.9,2.1,1.3,3.1c0.6,0.1,1.3,0.2,1.9,0.3
			c-0.7-1.3-1.3-2.6-1.9-3.9c1.1-0.9,2.1-1.8,3.1-2.8c-0.6-0.1-1.2-0.1-1.8-0.2c-0.8,0.8-1.7,1.6-2.5,2.4c-0.2,0-0.4-0.1-0.6-0.1
			c0.2-0.9,0.4-1.8,0.6-2.7c-0.5-0.1-1-0.2-1.4-0.3c-0.5,2.2-1.1,4.4-1.8,6.5C108.4,281,108.9,281.1,109.4,281.2z"/>
		<path class="st11" d="M53,297.6l15.7,9.3c0-0.1,0-0.2,0-0.3c0-0.7,0.1-1.6,0.1-2.7c0.1-1.1,0.3-2.5,0.5-4c0-0.3,0.1-0.5,0.1-0.8
			c1.2-7.2,4.4-18.1,12.2-31.4c0-0.1,0.1-0.2,0.1-0.2C81.7,267.5,59.3,287,53,297.6z"/>
		<polygon class="st16" points="141,365.1 127,407.5 72.8,375.6 39.4,356.1 39.4,412 141,470.8 		"/>
		<path class="st17" d="M210.5,375.6l-54.2,31.9l-12.8-40.2v103L244.2,412l0.5-56.3L210.5,375.6z M156.2,447.4v-25.8l39.4-21.8v25.8
			L156.2,447.4z"/>
		<polygon class="st6" points="141.8,353.7 142.2,353.5 39.9,292.8 		"/>
		<polygon class="st6" points="141.8,353.7 22.6,343.4 74.1,373.5 125.6,403.8 142,354.3 		"/>
		<polygon class="st18" points="244.2,293 142.2,353.5 141.8,353.7 142,354.3 157.7,403.8 209.2,373.5 260.8,343.4 		"/>
		<path class="st10" d="M43,115.8c0,0-6.6-39.3,21.4-74.9c0,0-43.1,26.9-37.6,81.9C26.8,122.8,34.8,114.7,43,115.8z"/>
		<path class="st15" d="M106.7,102c-0.3-4.7-0.4-9.2-0.3-13.5c0-4.3,0.3-8.3,0.6-12.2c0.2-1.9,0.4-3.8,0.6-5.6
			c6.2-49.3,34.7-62,34.7-62c-14.3,0-28.5,2-42.1,6.1c-10.8,8.7-58,50.7-42.2,113.8C57.9,128.7,66.8,88.7,106.7,102z M116.2,16.7
			C88.6,47.1,93.4,84.3,93.4,84.3c-18.6-5.3-25.5,6.6-25.5,6.6C74.4,33.3,116.2,16.7,116.2,16.7z"/>
		<path class="st15" d="M176.9,70.7c0.2,1.8,0.4,3.7,0.6,5.6c0.3,3.9,0.5,7.9,0.6,12.2c0,4.3-0.1,8.8-0.3,13.5
			c40-13.3,48.9,26.6,48.9,26.6c15.8-63.1-31.4-105.1-42.2-113.8c-13.7-4.1-27.9-6.2-42.1-6.1C142.3,8.8,170.7,21.4,176.9,70.7z"/>
		<path class="st2" d="M93.4,84.3c0,0-4.8-37.2,22.8-67.5c0,0-41.8,16.6-48.3,74.2C67.9,90.9,74.8,79,93.4,84.3z"/>
		<polygon class="st8" points="195.5,399.9 156.2,421.6 156.2,447.4 195.5,425.6 		"/>
		<polygon class="st19" points="141.8,353.7 39.9,292.8 22.6,343.4 		"/>
		<path class="st8" d="M365.2,123.8h44.4v74.7h-34.5v21.3L414,329.5h36.7v-1.2l-38.9-105.5h12c14-0.4,21-7.6,21-21.6v-85.7
			c0-14.4-7.1-21.6-21.3-21.6h-93.4v235.6h35.2V123.8z"/>
		<path class="st8" d="M563.8,329.5c6.8,0,12-1.8,15.7-5.5c3.7-3.7,5.5-9,5.5-16v-56c0-4.5-0.6-8.1-1.7-10.8c-1.1-2.7-3.1-5.4-6-8.3
			l-70.6-66.5v-42.5H550v44.4h35.2v-52.8c0-6.9-1.9-12.2-5.5-15.9c-3.7-3.7-8.9-5.6-15.7-5.6h-70.9c-6.8,0-12,1.9-15.7,5.5
			c-3.7,3.7-5.5,9-5.5,16v52.3c0,4.5,0.6,8.1,1.7,10.8c1.1,2.7,3.1,5.3,6,8l70.6,66.8v46.2h-43.2v-48.1h-35.2v56.2
			c0,7.1,1.8,12.5,5.5,16.2c3.7,3.7,8.9,5.6,15.7,5.6H563.8z"/>
		<polygon class="st8" points="641.5,329.5 676.7,329.5 676.7,125 715.6,125 715.6,93.9 603,93.9 603,125 641.5,125 		"/>
		<path class="st8" d="M754.7,329.5h74.9c14.4,0,21.6-7.2,21.6-21.6v-214h-35.2v205.7h-47.5V93.9h-35.2v214
			C733.4,322.3,740.5,329.5,754.7,329.5z"/>
		<polygon class="st8" points="914.8,125 975.8,125 975.8,93.9 879.6,93.9 879.6,329.5 914.8,329.5 914.8,225.2 966.9,225.2 
			966.9,194.7 914.8,194.7 		"/>
		<path class="st11" d="M356.8,404.7c-0.1-2.4-0.2-5.6-0.2-8.2c-0.2-5.7-2.3-7.9-6.3-8.3v-0.1c4.4-0.7,6.7-4.7,6.7-9.9
			c0-7.6-4.6-10.4-10.3-10.4h-14.3v40.4h6.5v-17.6h5.3c4.4,0,5.8,1.9,5.9,6.3c0.1,2.9,0.1,5.2,0.3,7.6c0.2,1.6,0.5,2.8,1.1,3.6h7.3
			C357.9,407.7,356.9,406.7,356.8,404.7z M344.1,385.8h-5.2v-13.1h5.5c4.2,0,6.1,2.3,6.1,6.6C350.5,383.3,348.2,385.8,344.1,385.8z"
			/>
		<polygon class="st11" points="369.3,389.9 383.8,389.9 383.8,384.4 369.3,384.4 369.3,373.2 384.7,373.2 384.7,367.8 362.9,367.8 
			362.9,408.2 385.2,408.2 385.2,402.8 369.3,402.8 		"/>
		<path class="st11" d="M402.9,367.8h-12.8v40.4h6.5v-16.7h5.7c7.6,0,11.8-4.7,11.8-12C414.1,372.7,410.7,367.8,402.9,367.8z
			 M401.2,386.6h-4.6v-14h4.1c5.2,0,6.9,2.7,6.9,7C407.6,384.8,404.6,386.6,401.2,386.6z"/>
		<path class="st11" d="M430.8,367c-9.3,0-13.4,6.6-13.4,21c0,14.4,4.1,21,13.4,21c9.3,0,13.4-6.6,13.4-21
			C444.2,373.6,440.1,367,430.8,367z M430.8,404.1c-3.9,0-6.9-2.4-6.9-16.3c0-13.6,3.1-16,6.9-16c3.9,0,6.9,2.4,6.9,16
			C437.8,401.8,434.7,404.1,430.8,404.1z"/>
		<path class="st11" d="M465.9,386.1l-4.4-1.6c-4.3-1.6-6.1-3.4-6.1-6.9c0-4.3,2.7-5.8,5.4-5.8c4,0,5.7,2.2,5.7,5.8v0.8h6.5v-0.9
			c0-4.2-1.1-10.6-11.4-10.6c-7.6,0-12.6,4.1-12.6,11.4c0,5.8,2.5,8.8,8.4,11.1l4.4,1.5c3.6,1.1,5.8,2.9,5.8,7.2c0,3-2,5.9-6.1,5.9
			c-4.5,0-6.6-2.5-6.6-7.4v-1h-6.5v1c0,5.7,2.3,12.3,12.3,12.3c8.2,0,13.4-3.6,13.4-12.2C474.1,391.3,471.6,388.2,465.9,386.1z"/>
		<rect x="479" y="367.8" class="st11" width="6.5" height="40.4"/>
		<polygon class="st11" points="488.9,373.2 498.5,373.2 498.5,408.2 505,408.2 505,373.2 514.4,373.2 514.4,367.8 488.9,367.8 		
			"/>
		<path class="st11" d="M528.8,367c-9.3,0-13.4,6.6-13.4,21c0,14.4,4.1,21,13.4,21s13.4-6.6,13.4-21
			C542.2,373.6,538.1,367,528.8,367z M528.8,404.1c-3.9,0-6.9-2.4-6.9-16.3c0-13.6,3.1-16,6.9-16c3.9,0,6.9,2.4,6.9,16
			C535.7,401.8,532.7,404.1,528.8,404.1z"/>
		<path class="st11" d="M572.3,404.7c-0.1-2.4-0.2-5.6-0.2-8.2c-0.2-5.7-2.3-7.9-6.3-8.3v-0.1c4.4-0.7,6.7-4.7,6.7-9.9
			c0-7.6-4.6-10.4-10.3-10.4h-14.3v40.4h6.5v-17.6h5.3c4.4,0,5.8,1.9,5.9,6.3c0.1,2.9,0.1,5.2,0.3,7.6c0.2,1.6,0.5,2.8,1.1,3.6h7.3
			C573.3,407.7,572.4,406.7,572.3,404.7z M559.5,385.8h-5.2v-13.1h5.5c4.2,0,6.1,2.3,6.1,6.6C566,383.3,563.6,385.8,559.5,385.8z"/>
		<polygon class="st11" points="587.7,385.2 580.9,367.8 573.7,367.8 584.1,392.4 584.1,408.2 590.6,408.2 590.6,392.4 601.4,367.8 
			594.7,367.8 		"/>
		<path class="st11" d="M634.1,386.1l-4.4-1.6c-4.3-1.6-6.1-3.4-6.1-6.9c0-4.3,2.7-5.8,5.4-5.8c4,0,5.7,2.2,5.7,5.8v0.8h6.5v-0.9
			c0-4.2-1.1-10.6-11.4-10.6c-7.6,0-12.6,4.1-12.6,11.4c0,5.8,2.5,8.8,8.4,11.1l4.4,1.5c3.6,1.1,5.8,2.9,5.8,7.2c0,3-2,5.9-6.1,5.9
			c-4.5,0-6.6-2.5-6.6-7.4v-1h-6.5v1c0,5.7,2.3,12.3,12.3,12.3c8.2,0,13.4-3.6,13.4-12.2C642.3,391.3,639.8,388.2,634.1,386.1z"/>
		<polygon class="st11" points="654,389.9 668.5,389.9 668.5,384.4 654,384.4 654,373.2 669.4,373.2 669.4,367.8 647.5,367.8 
			647.5,408.2 669.8,408.2 669.8,402.8 654,402.8 		"/>
		<path class="st11" d="M699.1,404.7c-0.1-2.4-0.2-5.6-0.2-8.2c-0.2-5.7-2.3-7.9-6.3-8.3v-0.1c4.4-0.7,6.7-4.7,6.7-9.9
			c0-7.6-4.6-10.4-10.3-10.4h-14.3v40.4h6.5v-17.6h5.3c4.4,0,5.8,1.9,5.9,6.3c0.1,2.9,0.1,5.2,0.3,7.6c0.2,1.6,0.5,2.8,1.1,3.6h7.3
			C700.2,407.7,699.2,406.7,699.1,404.7z M686.4,385.8h-5.2v-13.1h5.5c4.2,0,6.1,2.3,6.1,6.6C692.8,383.3,690.5,385.8,686.4,385.8z"
			/>
		<polygon class="st11" points="715.3,400.1 715.2,400.1 708.3,367.8 701.5,367.8 711,408.2 719.2,408.2 729.4,367.8 722.6,367.8 		
			"/>
		<rect x="732.1" y="367.8" class="st11" width="6.5" height="40.4"/>
		<path class="st11" d="M763.4,394.4c0,3.7-0.6,9.7-6,9.7c-4.8,0-6.9-3.3-6.9-16.3c0-13,2.2-16,6.9-16c4.6-0.2,5.8,4.1,5.8,7.9v0.7
			h6.5v-0.7c0-4.2-0.7-12.7-12.2-12.7c-10.3,0-13.4,6.6-13.4,21c0,14.4,3.2,21,13.4,21c9.5,0,12.5-7.1,12.5-14.4v-0.8h-6.5V394.4z"
			/>
		<polygon class="st11" points="780.8,389.9 795.3,389.9 795.3,384.4 780.8,384.4 780.8,373.2 796.2,373.2 796.2,367.8 774.4,367.8 
			774.4,408.2 796.7,408.2 796.7,402.8 780.8,402.8 		"/>
		<polygon class="st11" points="815.2,408.2 821.7,408.2 821.7,389.9 835.9,389.9 835.9,384.4 821.7,384.4 821.7,373.2 836.8,373.2 
			836.8,367.8 815.2,367.8 		"/>
		<path class="st11" d="M853.8,367c-9.3,0-13.4,6.6-13.4,21c0,14.4,4.1,21,13.4,21s13.4-6.6,13.4-21
			C867.2,373.6,863.1,367,853.8,367z M853.8,404.1c-3.9,0-6.9-2.4-6.9-16.3c0-13.6,3.1-16,6.9-16c3.9,0,6.9,2.4,6.9,16
			C860.7,401.8,857.7,404.1,853.8,404.1z"/>
		<path class="st11" d="M897.3,404.7c-0.1-2.4-0.2-5.6-0.2-8.2c-0.2-5.7-2.3-7.9-6.3-8.3v-0.1c4.4-0.7,6.7-4.7,6.7-9.9
			c0-7.6-4.6-10.4-10.3-10.4h-14.3v40.4h6.5v-17.6h5.3c4.4,0,5.8,1.9,5.9,6.3c0.1,2.9,0.1,5.2,0.3,7.6c0.2,1.6,0.5,2.8,1.1,3.6h7.3
			C898.3,407.7,897.4,406.7,897.3,404.7z M884.5,385.8h-5.2v-13.1h5.5c4.2,0,6.1,2.3,6.1,6.6C891,383.3,888.7,385.8,884.5,385.8z"/>
		<polygon class="st11" points="911.8,373.2 921.5,373.2 921.5,408.2 927.9,408.2 927.9,373.2 937.4,373.2 937.4,367.8 911.8,367.8 
					"/>
		<path class="st11" d="M958.8,396.8c0,5.1-2,7.4-5.9,7.4c-3.9,0-5.9-2.3-5.9-7.4v-29h-6.5v28.5c0,9.3,4.6,12.7,12.4,12.7
			c7.7,0,12.3-3.4,12.3-12.7v-28.5h-6.5V396.8z"/>
		<polygon class="st11" points="993,373.2 993,367.8 971.5,367.8 971.5,408.2 977.9,408.2 977.9,389.9 992.1,389.9 992.1,384.4 
			977.9,384.4 977.9,373.2 		"/>
	</g>
</g>
</svg>
