<?xml version="1.0" encoding="utf-8"?>
<!-- Generator: Adobe Illustrator 27.7.0, SVG Export Plug-In . SVG Version: 6.00 Build 0)  -->
<svg version="1.1" xmlns="http://www.w3.org/2000/svg" xmlns:xlink="http://www.w3.org/1999/xlink" x="0px" y="0px"
	 viewBox="0 0 1000 480" style="enable-background:new 0 0 1000 480;" xml:space="preserve">
<style type="text/css">
	.st0{opacity:0.1809;}
	.st1{fill:#020202;}
	.st2{fill:#FFFFFF;}
	.st3{fill:none;}
	.st4{fill:#8D5122;}
	.st5{fill:#77411B;}
	.st6{fill:#F9D0AC;}
	.st7{fill:#D9AC80;}
	.st8{fill:#04335F;}
	.st9{fill:#B7DEEB;}
	.st10{fill:#E0F8FF;}
	.st11{fill:#6897B8;}
	.st12{fill:#FAC27A;}
	.st13{fill:#FFE49F;}
	.st14{fill:#FDE8AD;}
	.st15{fill:#FFF4D0;}
	.st16{fill:#C49A70;}
	.st17{fill:#926E43;}
	.st18{fill:#C99E79;}
	.st19{fill:#FCE7D9;}
</style>
<g id="Background">
</g>
<g id="Image_Layer">
</g>
<g id="Image_Layer_2_">
</g>
<g id="Image_Layer_4_">
</g>
<g id="Draw_Layer_1_">
</g>
<g id="Draw_Layer_2_">
</g>
<g id="Layer_8">
</g>
<g id="Layer_9">
</g>
<g id="Draw_Layer" class="st0">
</g>
<g id="Layer_10">
	<g>
		<g>
			<g>
				<path class="st2" d="M414,329.5l-38.9-109.6v-21.3h34.5v-74.7h-44.4v205.7h-35.2V93.9h93.4c14.2,0,21.3,7.2,21.3,21.6v85.7
					c0,14-7,21.2-21,21.6h-12l38.9,105.5v1.2H414z"/>
				<path class="st2" d="M579.6,323.9c-3.7,3.7-8.9,5.5-15.7,5.5h-70.9c-6.8,0-12-1.9-15.7-5.6c-3.7-3.7-5.5-9.1-5.5-16.2v-56.2
					h35.2v48.1H550v-46.2l-70.6-66.8c-2.9-2.7-4.9-5.3-6-8c-1.1-2.7-1.7-6.3-1.7-10.8v-52.3c0-7,1.8-12.3,5.5-16
					c3.7-3.7,8.9-5.5,15.7-5.5h70.9c6.8,0,12,1.9,15.7,5.6c3.7,3.7,5.5,9,5.5,15.9v52.8H550v-44.4h-43.2v42.5l70.6,66.5
					c2.9,2.9,4.9,5.6,6,8.3c1.1,2.7,1.7,6.3,1.7,10.8v56C585.1,314.9,583.3,320.2,579.6,323.9z"/>
				<path class="st2" d="M676.7,125v204.5h-35.2V125H603V93.9h112.6V125H676.7z"/>
				<path class="st2" d="M829.7,329.5h-74.9c-14.2,0-21.3-7.2-21.3-21.6v-214h35.2v205.7h47.5V93.9h35.2v214
					C851.2,322.3,844,329.5,829.7,329.5z"/>
				<path class="st2" d="M914.8,125v69.7h52.1v30.5h-52.1v104.2h-35.2V93.9h96.2V125H914.8z"/>
			</g>
			<g>
				<path class="st2" d="M332.5,367.8h14.3c5.7,0,10.3,2.8,10.3,10.4c0,5.2-2.3,9.2-6.7,9.9v0.1c4,0.4,6.1,2.6,6.3,8.3
					c0.1,2.6,0.1,5.8,0.2,8.2c0.1,2,1.1,2.9,1.9,3.5h-7.3c-0.6-0.7-0.9-2-1.1-3.6c-0.2-2.4-0.2-4.7-0.3-7.6
					c-0.1-4.4-1.5-6.3-5.9-6.3h-5.3v17.6h-6.5V367.8z M344.1,385.8c4.1,0,6.5-2.5,6.5-6.6c0-4.3-1.9-6.6-6.1-6.6h-5.5v13.1H344.1z"
					/>
				<path class="st2" d="M362.9,367.8h21.9v5.4h-15.4v11.2h14.5v5.4h-14.5v12.9h15.9v5.4h-22.3V367.8z"/>
				<path class="st2" d="M390.1,367.8h12.8c7.8,0,11.2,4.9,11.2,11.8c0,7.3-4.2,12-11.8,12h-5.7v16.7h-6.5V367.8z M396.6,386.6h4.6
					c3.5,0,6.5-1.9,6.5-7c0-4.4-1.8-7-6.9-7h-4.1V386.6z"/>
				<path class="st2" d="M417.5,388c0-14.4,4.1-21,13.4-21s13.4,6.6,13.4,21c0,14.4-4.1,21-13.4,21S417.5,402.4,417.5,388z
					 M437.7,387.8c0-13.6-3.1-16-6.9-16s-6.9,2.4-6.9,16c0,13.9,3.1,16.3,6.9,16.3S437.7,401.8,437.7,387.8z"/>
				<path class="st2" d="M454.9,395.7v1c0,4.9,2.2,7.4,6.6,7.4c4.1,0,6.1-2.9,6.1-5.9c0-4.2-2.2-6.1-5.8-7.2l-4.4-1.5
					c-5.9-2.3-8.4-5.3-8.4-11.1c0-7.4,5-11.4,12.6-11.4c10.4,0,11.4,6.5,11.4,10.6v0.9h-6.5v-0.8c0-3.7-1.6-5.8-5.7-5.8
					c-2.8,0-5.4,1.5-5.4,5.8c0,3.5,1.8,5.2,6.1,6.9l4.4,1.6c5.7,2,8.2,5.2,8.2,10.7c0,8.6-5.2,12.2-13.4,12.2
					c-10,0-12.3-6.7-12.3-12.4v-1H454.9z"/>
				<path class="st2" d="M479,367.8h6.5v40.4H479V367.8z"/>
				<path class="st2" d="M498.5,373.2h-9.6v-5.4h25.5v5.4H505v35h-6.5V373.2z"/>
				<path class="st2" d="M515.4,388c0-14.4,4.1-21,13.4-21s13.4,6.6,13.4,21c0,14.4-4.1,21-13.4,21S515.4,402.4,515.4,388z
					 M535.7,387.8c0-13.6-3.1-16-6.9-16c-3.9,0-6.9,2.4-6.9,16c0,13.9,3.1,16.3,6.9,16.3C532.7,404.1,535.7,401.8,535.7,387.8z"/>
				<path class="st2" d="M547.9,367.8h14.3c5.7,0,10.3,2.8,10.3,10.4c0,5.2-2.3,9.2-6.7,9.9v0.1c4,0.4,6.1,2.6,6.3,8.3
					c0.1,2.6,0.1,5.8,0.2,8.2c0.1,2,1.1,2.9,1.9,3.5h-7.3c-0.6-0.7-0.9-2-1.1-3.6c-0.2-2.4-0.2-4.7-0.3-7.6
					c-0.1-4.4-1.5-6.3-5.9-6.3h-5.3v17.6h-6.5V367.8z M559.5,385.8c4.1,0,6.5-2.5,6.5-6.6c0-4.3-1.9-6.6-6.1-6.6h-5.5v13.1H559.5z"
					/>
				<path class="st2" d="M584.1,392.4l-10.4-24.6h7.2l6.8,17.4l7-17.4h6.7l-10.8,24.6v15.8h-6.5V392.4z"/>
				<path class="st2" d="M623.1,395.7v1c0,4.9,2.2,7.4,6.6,7.4c4.1,0,6.1-2.9,6.1-5.9c0-4.2-2.2-6.1-5.8-7.2l-4.4-1.5
					c-5.9-2.3-8.4-5.3-8.4-11.1c0-7.4,5-11.4,12.6-11.4c10.4,0,11.4,6.5,11.4,10.6v0.9h-6.5v-0.8c0-3.7-1.6-5.8-5.7-5.8
					c-2.8,0-5.4,1.5-5.4,5.8c0,3.5,1.8,5.2,6.1,6.9l4.4,1.6c5.7,2,8.2,5.2,8.2,10.7c0,8.6-5.2,12.2-13.4,12.2
					c-10,0-12.3-6.7-12.3-12.4v-1H623.1z"/>
				<path class="st2" d="M647.5,367.8h21.9v5.4H654v11.2h14.5v5.4H654v12.9h15.9v5.4h-22.3V367.8z"/>
				<path class="st2" d="M674.8,367.8H689c5.7,0,10.3,2.8,10.3,10.4c0,5.2-2.3,9.2-6.7,9.9v0.1c4,0.4,6.1,2.6,6.3,8.3
					c0.1,2.6,0.1,5.8,0.2,8.2c0.1,2,1.1,2.9,1.9,3.5h-7.3c-0.6-0.7-0.9-2-1.1-3.6c-0.2-2.4-0.2-4.7-0.3-7.6
					c-0.1-4.4-1.5-6.3-5.9-6.3h-5.3v17.6h-6.5V367.8z M686.4,385.8c4.1,0,6.5-2.5,6.5-6.6c0-4.3-1.9-6.6-6.1-6.6h-5.5v13.1H686.4z"
					/>
				<path class="st2" d="M701.5,367.8h6.9l6.9,32.3h0.1l7.3-32.3h6.9l-10.2,40.4H711L701.5,367.8z"/>
				<path class="st2" d="M732.1,367.8h6.5v40.4h-6.5V367.8z"/>
				<path class="st2" d="M769.8,393.7v0.8c0,7.3-2.9,14.4-12.5,14.4c-10.2,0-13.4-6.6-13.4-21c0-14.4,3.2-21,13.4-21
					c11.5,0,12.2,8.5,12.2,12.7v0.7h-6.5v-0.7c0-3.7-1.1-8-5.8-7.9c-4.8,0-6.9,2.9-6.9,16c0,13,2.2,16.3,6.9,16.3c5.4,0,6-6,6-9.7
					v-0.7H769.8z"/>
				<path class="st2" d="M774.4,367.8h21.9v5.4h-15.4v11.2h14.5v5.4h-14.5v12.9h15.9v5.4h-22.3V367.8z"/>
				<path class="st2" d="M815.2,367.8h21.6v5.4h-15.1v11.2h14.2v5.4h-14.2v18.4h-6.5V367.8z"/>
				<path class="st2" d="M840.5,388c0-14.4,4.1-21,13.4-21s13.4,6.6,13.4,21c0,14.4-4.1,21-13.4,21S840.5,402.4,840.5,388z
					 M860.7,387.8c0-13.6-3.1-16-6.9-16c-3.9,0-6.9,2.4-6.9,16c0,13.9,3.1,16.3,6.9,16.3C857.7,404.1,860.7,401.8,860.7,387.8z"/>
				<path class="st2" d="M872.9,367.8h14.3c5.7,0,10.3,2.8,10.3,10.4c0,5.2-2.3,9.2-6.7,9.9v0.1c4,0.4,6.1,2.6,6.3,8.3
					c0.1,2.6,0.1,5.8,0.2,8.2c0.1,2,1.1,2.9,1.9,3.5h-7.3c-0.6-0.7-0.9-2-1.1-3.6c-0.2-2.4-0.2-4.7-0.3-7.6
					c-0.1-4.4-1.5-6.3-5.9-6.3h-5.3v17.6h-6.5V367.8z M884.5,385.8c4.1,0,6.5-2.5,6.5-6.6c0-4.3-1.9-6.6-6.1-6.6h-5.5v13.1H884.5z"
					/>
				<path class="st2" d="M921.5,373.2h-9.6v-5.4h25.5v5.4h-9.5v35h-6.5V373.2z"/>
				<path class="st2" d="M947,367.8v29c0,5.1,2,7.4,5.9,7.4c3.9,0,5.9-2.3,5.9-7.4v-29h6.5v28.5c0,9.3-4.6,12.7-12.3,12.7
					c-7.8,0-12.4-3.4-12.4-12.7v-28.5H947z"/>
				<path class="st2" d="M971.5,367.8H993v5.4h-15.1v11.2h14.2v5.4h-14.2v18.4h-6.5V367.8z"/>
			</g>
		</g>
		<path class="st2" d="M277.6,290.7l-38.6-22.6c-0.4-0.7-0.9-1.3-1.7-1.8c-0.2-0.1-0.5-0.3-0.8-0.3c-0.5-0.2-1-0.2-1.5-0.2
			l-47.1-27.5l75.9-79.9c3.9-4.6,7.5-11,7.6-11.2c2-8.9,3.4-18,4-27.1l0-0.2v-0.1c0-49.3-36.1-93.1-89.7-109.1
			c-14.1-4.2-28.7-6.3-43.4-6.3c-14.7,0-29.3,2.1-43.4,6.3C45.2,26.7,9.1,70.6,9.1,119.8l0,0.2l0,0.1c0.6,9,1.9,18.1,3.9,26.9
			c0.8,3.6,2.4,5.6,3.2,6.4h0c0.1,0.1,0.1,0.1,0.2,0.2c0,0,0,0,0,0c1.2,1.1,2.4,2,3.6,2.9l78.7,80.6L7,290.7l29,2.1L18.1,345
			l17.6,10.3v58.8l106.1,61.4l106.1-61.4l0.5-59.2l16.9-9.9l-16.4-49.7v-2.6L277.6,290.7z M98.4,251.9c0.1,0.4,0.2,0.7,0.3,1.1
			c1.5,5.1,6.4,8.4,11.2,10.2c4.8,1.9,10.4,2.8,15.6,2.9c-0.1,0.1-0.3,0.1-0.4,0.2c-1,0.6-1.7,1.4-1.9,2.5c-2.3,8.4-3.9,17-4.9,25.6
			l-21.2-1.9l-12.2,13.2c-1.5-0.1-6-0.6-12.8-3.4c2.7-19.7,11.7-36.4,24.7-46.5c-5.1,2-9.8,4.8-12.2,7.9c-1,1.3-2,2.6-2.9,4
			c-7.7,13-10.9,23.8-12.1,31c-0.1,0.5-0.2,1-0.3,1.5c-0.2,1.4-0.4,2.6-0.4,3.6l-0.2,2.8c0,0.1,0,0.2,0,0.3l-15.7-9.3l-3.2-1.9
			l-3.3-2l-0.8-0.5c1.4-1.7,3-3.7,4.8-6C59.9,275.1,82.5,256.1,98.4,251.9z M117.2,227.8c0.1-0.2,0.2-0.5,0.3-0.7
			c0.2-0.4,0.4-0.8,0.6-1.2c1.9,0.6,4.7,1.2,7.8,1.7c6,1.1,13,2.1,17.1,2.5c-0.2,0.7-0.3,1.3-0.5,2c-4.3-0.5-11.2-1.4-17.1-2.5
			C122.2,229.1,119.2,228.5,117.2,227.8z M105,157.8c0.9-1.8,1.8-3.3,2.7-4.6c0,0,0,0,0-0.1c0.3-0.8,0.9-1.3,1.5-1.7
			c2.5-2.4,5.1-2.8,7.4-1.3c8.3,5.6,8.9,13,22.5,11.9c-0.8,1.4-1.3,3-1.3,4.7c0,1,0.2,1.9,0.4,2.8c-0.8,0.6-1.5,1.1-1.8,1.4
			c-5.7,5-36.5,19.6-53.6,20.8c-19.4,1.3-5.7-8.3,5.5-17.4C96.8,167.4,103.2,161.4,105,157.8z M13.5,119.8
			c0-46.6,33.3-86.4,80.5-102.9C78.5,30.8,41.4,71.1,55.3,128.4C39.9,127,25.1,135.1,18,149v0c0,0,0,0,0,0
			C15.6,139.4,14.1,129.7,13.5,119.8z M266.5,149c-7.1-13.9-21.9-22-37.3-20.7c13.8-57.3-23.2-97.6-38.7-111.5
			c47.2,16.4,80.5,56.3,80.5,102.9C270.4,129.7,268.9,139.4,266.5,149z M235.2,270c2.1,7.8,3.6,15.4,4.5,22.8l-3.4,2l-1.9,1.2
			c-0.7-5.8-1.6-11.5-2.9-17.2c-0.2-1.1-1.3-1.8-2.3-1.6c-12.7,2-25.2-0.1-36.4-6.3c-3.6-2-7.1-4.4-10.2-7.1c-0.8-0.7-1.9-0.7-2.7,0
			c-3.1,2.7-6.6,5.1-10.2,7.1c-11.3,6.2-23.8,8.3-36.4,6.3c-1.1-0.2-2.1,0.5-2.3,1.6c-4.6,20.9-5.3,42.7-2,63.9l-2.3-1.4l-4-2.4
			c-2.5-19.7-2.2-43.6,4.6-68.9c34,9.6,54.1-15.7,54.1-15.7S201.2,279.6,235.2,270z M209.2,373.5l-51.5,30.3L142,354.3l-16.3,49.5
			l-51.5-30.3l-51.5-30.1l17.3-50.6l102.3,60.7L244.2,293l16.6,50.3L209.2,373.5z M117.9,335.5c-0.1,0.1-0.3,0.3-0.4,0.4l-2-1.2
			c0.8-0.8,1.5-1.7,2-2.7c0,0,0-0.1,0.1-0.1C117.7,333.1,117.8,334.3,117.9,335.5z M130.4,339.6c-0.1-0.5-0.1-1-0.2-1.4
			c-0.1-1-0.3-2.1-0.4-3.1c-0.1-0.6-0.1-1.1-0.2-1.7c-0.1-1-0.2-2-0.3-3c0-0.5-0.1-1.1-0.1-1.6c-0.1-1.1-0.1-2.2-0.2-3.3
			c0-0.3,0-0.7-0.1-1c0,0,0,0,0,0.1c-0.1-1.1-0.1-2.1-0.1-3.2c0,0,0,0,0,0c0-0.2,0-0.4,0-0.6c0-1.4-0.1-2.8-0.1-4.2
			c0-0.2,0-0.4,0-0.6c0-1.6,0-3.2,0.1-4.9c0-0.4,0-0.8,0-1.2c0-1.2,0.1-2.5,0.2-3.7c0-0.5,0.1-1,0.1-1.5c0.1-1.2,0.2-2.5,0.3-3.7
			c0-0.4,0.1-0.8,0.1-1.2c0.2-1.6,0.3-3.2,0.5-4.8c0-0.3,0.1-0.6,0.1-0.9c0.2-1.3,0.4-2.6,0.5-3.9c0.1-0.5,0.2-1,0.2-1.5
			c0.2-1.1,0.4-2.3,0.6-3.4c0.1-0.5,0.2-0.9,0.3-1.4c0.3-1.6,0.6-3.1,1-4.7c13,2,25.9,0,37.8-6.6c3.4-1.9,7.2-4.5,10.6-7.3
			c3.4,2.9,7.2,5.5,10.6,7.3c11.9,6.5,24.8,8.6,37.8,6.6c1.3,5.9,2.3,11.9,3,17.9l-68.3,40.5l-21.9,13l-8.5-5l-2.7-1.6
			C130.8,342.5,130.6,341,130.4,339.6z M116.3,328.2c-0.3,0.9-0.6,1.8-1.1,2.6c-0.4,0.8-0.9,1.5-1.6,2c-0.2,0.1-0.4,0.3-0.6,0.4
			l-15.1-8.9c-0.3-1.8-0.5-3.7-0.5-5.6c0-2,0.2-4,0.6-5.9c1.2,0.1,2.4,0.1,3.6-0.1c1.6-0.2,3.1-0.6,4.6-1.2c0.4-0.1,0.7-0.3,1.1-0.5
			c0.1,0,0.2-0.1,0.3-0.2c0.1,0.1,0.2,0.2,0.3,0.2c0.4,0.2,0.7,0.5,1,0.7c1.5,0.9,3,1.5,4.6,2c1.1,0.3,2.1,0.5,3.2,0.6
			c0,3.5,0,7.1,0.2,10.6C116.9,326.2,116.6,327.2,116.3,328.2z M118,296c0,0.2,0,0.3-0.1,0.5c-0.1,0.9-0.2,1.8-0.3,2.7l0,0
			l-20.3-1.8l-11.5,13.1c0,0,0,0-0.1,0c0,0,0,0-0.1,0c0,0-0.1,0-0.1,0c0,0-0.1,0-0.1,0c-0.1,0-0.1,0-0.2,0c0,0-0.1,0-0.2,0
			c-0.1,0-0.2,0-0.3,0c-0.1,0-0.1,0-0.2,0c-0.1,0-0.2,0-0.3,0c-0.1,0-0.2,0-0.3,0c-0.1,0-0.3,0-0.4,0c-0.1,0-0.2,0-0.3,0
			c-0.1,0-0.3,0-0.4-0.1c-0.1,0-0.2,0-0.4-0.1c-0.2,0-0.3,0-0.5-0.1c-0.1,0-0.3,0-0.4-0.1c-0.2,0-0.4-0.1-0.5-0.1
			c-0.1,0-0.3-0.1-0.4-0.1c-0.2,0-0.4-0.1-0.6-0.1c-0.2,0-0.3-0.1-0.5-0.1c-0.2,0-0.4-0.1-0.7-0.2c-0.2,0-0.3-0.1-0.5-0.1
			c-0.2-0.1-0.5-0.1-0.7-0.2c-0.2,0-0.4-0.1-0.5-0.1c-0.3-0.1-0.5-0.2-0.8-0.2c-0.2-0.1-0.3-0.1-0.5-0.2c-0.3-0.1-0.6-0.2-0.9-0.3
			c-0.2-0.1-0.3-0.1-0.5-0.2c-0.5-0.2-1-0.3-1.4-0.5c0,0,0,0,0,0c0,0,0,0,0,0c-0.4-0.2-0.8-0.3-1.2-0.5c-0.1,0-0.2-0.1-0.3-0.1
			c0-0.5,0.1-0.9,0.1-1.4c0-0.4,0.1-0.7,0.1-1.1c0,0,0,0,0,0c0,0,0,0,0,0c0.2,0.1,0.4,0.2,0.6,0.2c0.2,0.1,0.5,0.2,0.7,0.3
			c0.3,0.1,0.5,0.2,0.8,0.3c0.2,0.1,0.5,0.2,0.7,0.2c0.2,0.1,0.5,0.2,0.7,0.2c0.2,0.1,0.4,0.1,0.6,0.2c0.2,0.1,0.5,0.1,0.7,0.2
			c0.2,0.1,0.4,0.1,0.6,0.2c0.2,0.1,0.4,0.1,0.6,0.1c0.2,0,0.4,0.1,0.6,0.1c0.2,0,0.4,0.1,0.6,0.1c0.2,0,0.3,0.1,0.5,0.1
			c0.2,0,0.4,0.1,0.6,0.1c0.2,0,0.3,0,0.5,0.1c0.2,0,0.3,0,0.5,0.1c0.1,0,0.3,0,0.4,0c0.2,0,0.3,0,0.5,0c0.1,0,0.3,0,0.4,0
			c0.1,0,0.3,0,0.4,0c0.1,0,0.2,0,0.3,0c0.1,0,0.2,0,0.4,0c0.1,0,0.2,0,0.3,0c0.1,0,0.2,0,0.3,0c0.1,0,0.1,0,0.2,0
			c0.1,0,0.2,0,0.3,0c0,0,0.1,0,0.1,0c0.1,0,0.1,0,0.2,0c0,0,0.1,0,0.1,0c0.1,0,0.1,0,0.1,0c0,0,0,0,0.1,0c0,0,0.1,0,0.1,0l0.5,0
			l6.5-7.2l5.2-5.7l0,0l14.1,1.1l6.7,0.5C118,295.9,118,295.9,118,296z M94.6,307.2c8.4,2.9,13.6-2.4,13.6-2.4s3.1,4,8.9,4.8
			c0,0.8-0.1,1.6-0.1,2.3c-0.9-0.1-1.7-0.3-2.6-0.5c-1.4-0.4-2.7-1-3.9-1.7c-0.3-0.2-0.6-0.4-0.9-0.6c-0.3-0.2-0.6-0.4-0.9-0.7
			L108,308l-0.7,0.4c-0.3,0.2-0.6,0.3-0.9,0.5c-0.3,0.2-0.6,0.3-0.9,0.4c-1.3,0.5-2.6,0.9-3.9,1c-1.4,0.2-2.8,0.1-4.2,0l-1.2-0.2
			l-0.3,1.2c-0.6,2.5-0.8,5-0.9,7.6c0,1.3,0.1,2.6,0.2,3.9l-2.4-1.4C92.5,317.1,92.9,312.2,94.6,307.2z M153.7,252.7
			c1.6,0.9,3.1,1.9,4.6,2.9c-1.1,0.4-1.8,1-1.7,1.5c0.4-0.2,0.8-0.3,1.3-0.4c3.4-0.9,7.7-0.3,12.5,1.8c-1.8,1.3-3.6,2.5-5.6,3.6
			c-11.3,6.3-23.7,7.3-36.1,4c6.9-0.3,14.4-2.1,19.9-6.3C151.1,258,152.9,255.6,153.7,252.7z M174.6,255.1c-0.2,0.2-0.4,0.4-0.7,0.6
			c-0.6-0.3-1.2-0.5-1.8-0.7l3-3.2l1.8,1C176.2,253.6,175.4,254.4,174.6,255.1z M168,254c-1.8-0.3-3.5-0.3-5.2-0.2
			c-2.4-1.8-4.9-3.4-7.5-4.9c0-0.3,0-0.5-0.1-0.8l2.7-6.4l14,8.2L168,254z M151.7,240.8c-1.8-1.7-4.2-2.7-6.6-2.9
			c0.2-1.1,0.4-2.2,0.6-3.3l9,5.2l-1.3,3C152.9,242.1,152.4,241.4,151.7,240.8z M112.2,240.1c0.2-0.7,0.4-1.3,0.7-1.9
			c2.7,1.6,7.2,2.8,12.1,3.4c5.8,0.7,12,0.6,15.9-0.3c-0.1,0.7-0.2,1.4-0.2,2.1c-4.3,0.9-10.3,0.9-15.9,0.2
			C119.9,243,115.2,241.8,112.2,240.1z M143.1,181.3c3.1-1.4,8.4-4.1,9.7-7.4c0,0,0,0,0,0c1-0.8,1.8-1.8,2.3-3c0.6-1.2,1-2.6,1-4.1
			c0-5-4.1-9.1-9.1-9.1c-1.3,0-2.6,0.3-3.7,0.8c0,0,0,0,0,0c6.5-4.8,11-13.7,6.1-19.1c-5.7-6.4-21.4-11.6-33.3-11.3
			c-0.4,0-1.3,0.2-2.3,0.3c0.1-0.1,0.2-0.2,0.2-0.3c0.2-0.2,0.3-0.4,0.5-0.6c0.2-0.2,0.4-0.4,0.6-0.6c0.2-0.2,0.4-0.4,0.5-0.5
			c0.2-0.2,0.4-0.4,0.6-0.6c0.2-0.2,0.4-0.3,0.5-0.5c0.2-0.2,0.5-0.4,0.7-0.6c0.2-0.1,0.3-0.3,0.5-0.4c0.3-0.3,0.6-0.5,1-0.8
			c0.2-0.1,0.4-0.3,0.5-0.4c0.3-0.2,0.7-0.5,1-0.7c0.2-0.1,0.4-0.2,0.5-0.3c0.3-0.2,0.5-0.3,0.8-0.5c0.2-0.1,0.4-0.2,0.6-0.4
			c0.3-0.2,0.5-0.3,0.8-0.5c0.2-0.1,0.4-0.2,0.6-0.3c0.3-0.1,0.5-0.3,0.8-0.4c0.2-0.1,0.4-0.2,0.6-0.3c0.3-0.1,0.6-0.3,0.9-0.4
			c0.2-0.1,0.4-0.2,0.6-0.3c0.4-0.1,0.7-0.3,1.1-0.4c0.1-0.1,0.3-0.1,0.4-0.2c0.5-0.2,1-0.4,1.5-0.5c0.1,0,0.3-0.1,0.4-0.1
			c0.4-0.1,0.8-0.2,1.1-0.3c0.2-0.1,0.4-0.1,0.6-0.1c0.3-0.1,0.7-0.2,1-0.2c0.2,0,0.4-0.1,0.6-0.1c0.3-0.1,0.7-0.1,1-0.2
			c0.2,0,0.4-0.1,0.7-0.1c0.3,0,0.7-0.1,1-0.1c0.2,0,0.4,0,0.6-0.1c0.4,0,0.8-0.1,1.1-0.1c0.2,0,0.4,0,0.5,0c0.6,0,1.1,0,1.7,0
			c0.6,0,1.2,0,1.7,0c0.2,0,0.4,0,0.6,0c0.4,0,0.8,0,1.1,0.1c0.2,0,0.4,0.1,0.7,0.1c0.3,0,0.7,0.1,1,0.1c0.2,0,0.5,0.1,0.7,0.1
			c0.3,0.1,0.6,0.1,1,0.2c0.2,0,0.5,0.1,0.7,0.1c0.3,0.1,0.6,0.1,0.9,0.2c0.2,0.1,0.5,0.1,0.7,0.2c0.3,0.1,0.6,0.2,0.9,0.3
			c0.2,0.1,0.5,0.1,0.7,0.2c0.3,0.1,0.6,0.2,0.9,0.3c0.2,0.1,0.4,0.2,0.7,0.2c0.3,0.1,0.6,0.2,0.9,0.4c0.2,0.1,0.4,0.2,0.6,0.3
			c0.3,0.1,0.6,0.3,0.9,0.4c0.2,0.1,0.4,0.2,0.5,0.3c0.4,0.2,0.8,0.4,1.2,0.6c0.1,0,0.2,0.1,0.3,0.1c0.5,0.3,0.9,0.5,1.4,0.8
			c0.2,0.1,0.3,0.2,0.5,0.3c0.3,0.2,0.6,0.4,0.9,0.5c0.2,0.1,0.4,0.3,0.6,0.4c0.3,0.2,0.5,0.3,0.7,0.5c0.2,0.1,0.4,0.3,0.6,0.4
			c0.2,0.2,0.5,0.4,0.7,0.5c0.2,0.2,0.4,0.3,0.6,0.5c0.2,0.2,0.4,0.4,0.6,0.6c0.2,0.2,0.4,0.3,0.6,0.5c0.2,0.2,0.4,0.4,0.6,0.6
			c0.2,0.2,0.4,0.4,0.6,0.5c0.2,0.2,0.4,0.4,0.6,0.6c0.2,0.2,0.4,0.4,0.5,0.6c0.2,0.2,0.4,0.4,0.5,0.6c0.2,0.2,0.3,0.4,0.5,0.6
			c0.2,0.2,0.4,0.4,0.5,0.7c0.2,0.2,0.3,0.4,0.5,0.6c0.2,0.2,0.4,0.5,0.5,0.7c0.2,0.3,0.4,0.6,0.6,0.9c0.2,0.3,0.4,0.6,0.6,1
			c0.1,0.2,0.3,0.5,0.4,0.7c0.1,0.2,0.3,0.5,0.4,0.7c0.1,0.2,0.3,0.5,0.4,0.7c0.1,0.2,0.2,0.5,0.4,0.7c0.1,0.2,0.2,0.5,0.4,0.8
			c0.1,0.2,0.2,0.5,0.3,0.7c0.1,0.3,0.2,0.5,0.3,0.8c0.1,0.2,0.2,0.5,0.3,0.7c0.1,0.3,0.2,0.5,0.3,0.8c0.1,0.3,0.2,0.5,0.3,0.8
			c0.1,0.3,0.2,0.5,0.3,0.8c0.1,0.3,0.1,0.5,0.2,0.8c0.1,0.3,0.2,0.5,0.2,0.8c0.1,0.3,0.1,0.5,0.2,0.8c0.1,0.3,0.1,0.6,0.2,0.8
			c0.1,0.3,0.1,0.5,0.1,0.8c0,0.3,0.1,0.6,0.1,0.8c0,0,0,0.1,0,0.1c0,0,0,0,0,0c0.2,1.7,0.4,3.4,0.4,5.1c0,19.4-15.7,35.1-35.1,35.1
			c-2.8,0-5.5-0.3-8.1-0.9C135.8,184.4,139.5,183,143.1,181.3z M147,159.9c3.8,0,7,3.1,7,7c0,3.8-3.1,7-7,7c-3.8,0-7-3.1-7-7
			C140,163,143.1,159.9,147,159.9z M134.4,148.8c0-3.1,2.5-5.7,5.7-5.7c3.1,0,5.7,2.5,5.7,5.7c0,3.1-2.5,5.7-5.7,5.7
			C136.9,154.5,134.4,151.9,134.4,148.8z M100.1,14.9c13.7-4.1,27.9-6.2,42.1-6.1c14.3,0,28.5,2,42.1,6.1
			c10.8,8.7,58,50.7,42.2,113.8c0,0-8.9-40-48.9-26.6c0.3-5.9,0.4-11.4,0.3-16.7c-0.2-6.3-0.7-12-1.5-17.4c-0.1-0.9-0.3-1.8-0.4-2.6
			c-7.5-44.9-33.9-56.6-33.9-56.6s-26.4,11.7-33.9,56.6c-0.1,0.9-0.3,1.7-0.4,2.6c-0.8,5.3-1.3,11.1-1.5,17.4
			c-0.2,5.2-0.1,10.8,0.3,16.7c-0.6-0.2-1.2-0.4-1.9-0.6c-1.2-0.4-2.4-0.7-3.6-0.9c-2.9-0.7-5.6-1-8.2-1.1c-1,0-2-0.1-3,0
			c-2.9,0.1-5.5,0.5-8,1.2c-0.8,0.2-1.6,0.5-2.3,0.8c-0.4,0.1-0.8,0.3-1.1,0.5c-2.6,1.1-4.8,2.5-6.9,4.1c-1.4,1.1-2.7,2.4-3.9,3.7
			c-1.6,1.8-3.1,3.7-4.2,5.6c-0.2,0.3-0.3,0.5-0.5,0.8c-0.5,0.8-0.9,1.6-1.3,2.4c-3,5.7-4.1,10.4-4.1,10.4
			C42.1,65.6,89.3,23.6,100.1,14.9z M142.3,11.6c5.9,3.3,36,23.5,33.2,87.1l0,0c-0.6-0.8-1.3-1.6-1.9-2.3c-1.2-1.3-2.5-2.5-3.8-3.6
			s-2.8-2.1-4.3-3c-1-0.6-2-1.1-3.1-1.6c-2.1-1-4.4-1.7-6.7-2.3c-2.2-0.6-4.4-1-6.6-1.3c-2.2-0.3-4.5-0.4-6.7-0.4
			c-2.2,0-4.5,0.1-6.7,0.4c-2.2,0.3-4.4,0.7-6.6,1.3c-2.3,0.5-4.6,1.3-6.7,2.3c-5.2,2.4-9.7,6-13.2,10.5
			C106.3,35.2,136.4,14.9,142.3,11.6z M107.8,143.2c0.7-2.4,2.4-3.9,3.6-3.6c1.2,0.4,1.6,2.6,0.9,5c-0.7,2.4-2.4,3.9-3.6,3.6
			C107.4,147.8,107,145.5,107.8,143.2z M139.8,190c2.3,0.1,5.3,0.5,8.3,1.2c2.7,0.7,5.4,1.6,7.9,3c-0.3,0.6-0.6,1.3-0.8,1.9
			c-2.3-1.3-5-2.2-7.5-2.9c-3.6-0.9-7-1.2-9.3-1.2C138.8,191.3,139.3,190.7,139.8,190z M140.5,201.1c3.5,0.9,7.1,2.4,10.6,4.6
			c-0.3,0.6-0.5,1.3-0.8,1.9c-3.4-2.2-6.9-3.7-10.3-4.5c-3-0.8-5.9-1-8.6-0.7c0.5-0.7,0.9-1.4,1.4-2.1
			C135.2,200.1,137.8,200.4,140.5,201.1z M135.8,214.5c3.6,0.8,7.2,2,10.6,3.6c-0.2,0.7-0.4,1.3-0.6,2c-3.4-1.6-6.9-2.8-10.4-3.6
			c-3.8-0.8-7.7-1.3-11.6-1.4c0.4-0.7,0.8-1.4,1.1-2C128.6,213.2,132.2,213.7,135.8,214.5z M147.1,228.6l12.6-0.8l-3.8,9l-9.5-5.5
			C146.6,230.4,146.9,229.5,147.1,228.6z M159.1,238.7l4.3-10.4l18.6,10.9l-7.9,8.3L159.1,238.7z M161.3,224l-13.1,0.8
			c0.8-2.8,1.7-5.6,2.7-8.3c2.7-7.8,6-15.4,9.4-22.9c1.9-4.2,3.8-8.3,5.8-12.4c2.3-2,4.2-4.2,6-6.6c0.4-0.2,0.7-0.4,1.1-0.6
			c2.9,0.5,5.9,0.9,8.7,1L161.3,224z M108.2,188.5c7.4-2.8,15-6.1,22-9.9c2.4-1.3,4.8-2.7,7-4.2c0.8-0.6,1.8-1.4,2.4-2.2
			c1.6,2.2,4.1,3.6,6.9,3.7c-6.4,4.1-20.3,8.8-31.3,12c-5.2,1.5-10.4,3-15.7,3.5C102.5,190.6,105.5,189.5,108.2,188.5z M116.4,191.9
			c3.6-1,7.2-2.2,10.7-3.3c2.6,0.9,5.2,1.5,7.9,1.9c-4.6,6.4-8.9,13.1-12.8,19.9c-0.7,1.2-1.4,2.5-2.1,3.7l-8.9-20.8
			C112.9,192.9,114.6,192.4,116.4,191.9z M110.3,234.7c-0.1,0-0.1,0-0.2,0l0.2-0.1C110.3,234.6,110.3,234.7,110.3,234.7z
			 M108.8,238.9c0,0-0.5,0.8-0.7,2.3c0.2,0.3,0.3,0.7,0.2,1.1c-0.2,1.6,0.4,2.9,1.4,4.1c2.7,2.4,9.4,5,17,5.3
			c6.1,0.2,14.2-0.9,16.2-5.3c0.8-1.8,0.5-4.5,0.8-4.5c7.5-0.5,10.8,9.6,3.2,15.4c-14.1,10.7-46.6,5.4-45.5-8.2
			C101.8,243.7,102.9,239.9,108.8,238.9z M265.4,287.9l-20.2,1.4l-1.9-1.1c-0.8-5-1.7-10-2.9-15L265.4,287.9z M229.7,267
			c-8.5,1.7-17,1.2-25-1.6l-10.9-6.4l-5.2-3c-0.3-0.3-0.6-0.5-0.9-0.8c-1.1-1.1-2.3-2.2-3.3-3.4c-0.4-0.5-0.9-0.9-1.4-1.2
			c0,0,0,0,0,0c-0.3-0.1-0.6-0.2-0.9-0.3c-0.3-0.1-0.6-0.1-0.9-0.1c-0.6,0-1.2,0.1-1.8,0.4l-1.9-1.1l7.9-8.3L229.7,267z
			 M184.7,236.4l-19.8-11.5l20.8-49.8c20.1-0.2,32.7-9.9,37.4-14.4c5.3,2.4,11.2,3.7,17.1,3.7c5.6,0,10.9-1.1,15.9-3.1L184.7,236.4z
			 M30.6,162c4.3,1.5,8.9,2.3,13.7,2.3c5.8,0,11.7-1.3,17.1-3.7c3.4,3.2,10.8,9.1,22.1,12.3c0,0-0.1,0.1-0.1,0.1
			c-3.3,2.7-6.6,5.2-9.6,8.2c-2.1,2-4.6,4.7-4.8,7.8c-0.1,0.8,0,1.6,0.3,2.4c1.8,5.3,9.4,4.9,13.8,4.6c1.8-0.1,3.6-0.4,5.4-0.7
			c0.2,0,0.4,0.1,0.6,0.1c6.4,1,12.5,0.2,18.5-1.2l10.3,24c-0.9,1.6-1.7,3.2-2.5,4.9c-0.9,1.9-1.8,3.8-2.7,5.8l-10.6,6.2L30.6,162z
			 M99,241.3c-0.9,1.9-1.4,4.1-1.7,6.7c-4.4,1.2-8.7,3.2-12.7,5.3c-4.8,2.6-9.4,5.7-13.8,9c-4.7,3.6-9.3,7.5-13.6,11.6
			c-3.5,3.4-7,7-10,10.8l-7.8,4.6l-0.6,0l-0.3-0.2l0,0.1l-19.3-1.4L99,241.3z M39.4,356.1l33.4,19.5l54.2,31.9l14-42.4v105.7
			L39.4,412V356.1z M143.5,470.3v-103l12.8,40.2l54.2-31.9l34.1-19.9l-0.5,56.3L143.5,470.3z"/>
		<path class="st2" d="M150.8,170.7c2.1-2.1,2.1-5.6,0-7.7c-2.1-2.1-5.6-2.1-7.7,0c-2.1,2.1-2.1,5.6,0,7.7
			C145.2,172.8,148.7,172.8,150.8,170.7z M150.1,169.9c-1.5,1.5-3.8,1.7-5.5,0.5l6.1-6.1C151.7,166.1,151.6,168.4,150.1,169.9z
			 M143.9,163.7c1.5-1.5,3.8-1.7,5.5-0.5l-6.1,6.1C142.2,167.6,142.4,165.2,143.9,163.7z"/>
		<path class="st2" d="M144.8,147.5c0-1.4-1.1-2.5-2.5-2.5c-1.4,0-2.5,1.1-2.5,2.5s1.1,2.5,2.5,2.5
			C143.7,150,144.8,148.9,144.8,147.5z"/>
		<path class="st2" d="M110.6,145.1c0.5,0.2,1.2-0.5,1.6-1.5c0.3-1,0.2-2-0.4-2.2c-0.5-0.2-1.2,0.5-1.6,1.5
			C109.9,144,110.1,144.9,110.6,145.1z"/>
		<path class="st2" d="M103.8,250.3c0,1.1,0.8,2,1.9,2c1.1,0,2-0.8,2-1.9c0-1.1-0.8-2-1.9-2C104.8,248.4,103.9,249.2,103.8,250.3z"
			/>
		<path class="st2" d="M145.8,254c1.1,0,2-0.8,2-1.9c0-1.1-0.8-2-1.9-2c-1.1,0-2,0.8-2,1.9C143.9,253.1,144.7,254,145.8,254z"/>
		<path class="st2" d="M138.8,258.1c1.1,0,2-0.8,2-1.9c0-1.1-0.8-2-1.9-2c-1.1,0-2,0.8-2,1.9C136.8,257.2,137.7,258.1,138.8,258.1z"
			/>
		<path class="st2" d="M130.1,259.9c1.1,0,2-0.8,2-1.9c0-1.1-0.8-2-1.9-2c-1.1,0-2,0.8-2,1.9C128.1,259,129,259.9,130.1,259.9z"/>
		<path class="st2" d="M120.8,259.2c1.1,0,2-0.8,2-1.9c0-1.1-0.8-2-1.9-2c-1.1,0-2,0.8-2,1.9C118.8,258.3,119.7,259.2,120.8,259.2z"
			/>
		<path class="st2" d="M112.4,256.6c1.1,0,2-0.8,2-1.9c0-1.1-0.8-2-1.9-2c-1.1,0-2,0.8-2,1.9C110.5,255.6,111.3,256.6,112.4,256.6z"
			/>
		<path class="st2" d="M87.1,273.7c0.1,0.1,0.3,0.1,0.4,0.2c0.3,0.1,0.6,0.3,0.9,0.4c0.4-0.8,0.9-1.6,1.3-2.5
			c0.9,0.4,1.7,0.8,2.6,1.2c-0.4,0.8-0.8,1.7-1.2,2.5c0.4,0.2,0.9,0.4,1.4,0.6c1-2,1.9-4.1,2.8-6.1c-0.4-0.2-0.8-0.3-1.3-0.5
			c-0.4,0.9-0.8,1.7-1.2,2.6c-0.9-0.4-1.7-0.8-2.6-1.2c0.4-0.9,0.9-1.7,1.3-2.6c-0.4-0.2-0.7-0.4-1.1-0.5c0,0-0.1,0-0.1-0.1
			C89.3,269.8,88.2,271.8,87.1,273.7z"/>
		<path class="st2" d="M99,271.4c-0.8-0.3-1.5-0.3-2.2,0c-0.7,0.3-1.2,0.8-1.5,1.6c-0.2,0.4-0.3,0.7-0.5,1.1
			c-0.3,0.8-0.4,1.5-0.1,2.2c0.3,0.7,0.9,1.2,1.7,1.5c0.9,0.3,1.7,0.3,2.5,0c0.8-0.3,1.3-0.9,1.6-1.7c0.1-0.4,0.3-0.8,0.4-1.1
			c0.3-0.8,0.2-1.5-0.1-2.2C100.4,272.1,99.8,271.7,99,271.4z M99.5,274.5c-0.1,0.4-0.3,0.8-0.4,1.1c-0.2,0.5-0.5,0.9-0.9,1.1
			c-0.4,0.2-0.8,0.3-1.3,0.1c-0.5-0.2-0.8-0.5-0.9-0.9c-0.1-0.4-0.1-0.9,0.1-1.3c0.2-0.4,0.3-0.7,0.5-1.1c0.2-0.5,0.5-0.8,0.9-1.1
			c0.4-0.2,0.8-0.3,1.2-0.1c0.5,0.2,0.7,0.4,0.9,0.8C99.7,273.6,99.6,274,99.5,274.5z"/>
		<path class="st2" d="M102,279.5c0.5-1.4,1-2.9,1.5-4.4c0,0,0,0,0,0c0.5,1.7,0.9,3.4,1.5,5.1c0.5,0.1,1,0.2,1.5,0.3
			c0.7-2.2,1.3-4.3,1.9-6.5c-0.5-0.1-0.9-0.2-1.4-0.3c-0.4,1.5-0.8,2.9-1.3,4.4c0,0,0,0,0,0c-0.5-1.7-1-3.4-1.5-5.1
			c-0.5-0.1-0.9-0.3-1.4-0.4c-0.7,2.1-1.5,4.2-2.3,6.4C101,279.2,101.5,279.3,102,279.5z"/>
		<path class="st2" d="M109.4,281.2c0.3-0.9,0.5-1.8,0.7-2.7c0.3,0,0.5,0.1,0.8,0.1c0.4,1,0.9,2.1,1.3,3.1c0.6,0.1,1.3,0.2,1.9,0.3
			c-0.7-1.3-1.3-2.6-1.9-3.9c1.1-0.9,2.1-1.8,3.1-2.8c-0.6-0.1-1.2-0.1-1.8-0.2c-0.8,0.8-1.7,1.6-2.5,2.4c-0.2,0-0.4-0.1-0.6-0.1
			c0.2-0.9,0.4-1.8,0.6-2.7c-0.5-0.1-1-0.2-1.4-0.3c-0.5,2.2-1.1,4.4-1.8,6.5C108.4,281,108.9,281.1,109.4,281.2z"/>
		<polygon class="st2" points="195.5,425.6 195.5,399.9 156.2,421.6 156.2,447.4 		"/>
	</g>
</g>
</svg>
