<?xml version="1.0" encoding="utf-8"?>
<!-- Generator: Adobe Illustrator 27.7.0, SVG Export Plug-In . SVG Version: 6.00 Build 0)  -->
<svg version="1.1" xmlns="http://www.w3.org/2000/svg" xmlns:xlink="http://www.w3.org/1999/xlink" x="0px" y="0px"
	 viewBox="0 0 525 1000" style="enable-background:new 0 0 525 1000;" xml:space="preserve">
<style type="text/css">
	.st0{opacity:0.1809;}
	.st1{fill:#020202;}
	.st2{fill:#FFFFFF;}
	.st3{fill:none;}
	.st4{fill:#8D5122;}
	.st5{fill:#77411B;}
	.st6{fill:#F9D0AC;}
	.st7{fill:#D9AC80;}
	.st8{fill:#04335F;}
	.st9{fill:#B7DEEB;}
	.st10{fill:#E0F8FF;}
	.st11{fill:#6897B8;}
	.st12{fill:#FAC27A;}
	.st13{fill:#FFE49F;}
	.st14{fill:#FDE8AD;}
	.st15{fill:#FFF4D0;}
	.st16{fill:#C49A70;}
	.st17{fill:#926E43;}
	.st18{fill:#C99E79;}
	.st19{fill:#FCE7D9;}
</style>
<g id="Background">
</g>
<g id="Image_Layer">
</g>
<g id="Image_Layer_2_">
</g>
<g id="Image_Layer_4_">
</g>
<g id="Draw_Layer_1_">
</g>
<g id="Draw_Layer_2_">
</g>
<g id="Layer_8">
</g>
<g id="Layer_9">
</g>
<g id="Draw_Layer" class="st0">
</g>
<g id="Layer_10">
	<g>
		<g>
			<path class="st3" d="M307.2,254.4c-0.5,0.3-1.1,0.6-1.6,0.9c-2.5,3.4-5.4,6.6-8.6,9.5c-2.8,6-5.6,12-8.4,18
				c-5,10.9-9.7,22-13.7,33.3c-1.4,4-2.7,8-3.9,12.1l19-1.1l29.8-71.3C315.7,255.5,311.5,255.1,307.2,254.4z"/>
			<path class="st3" d="M223.4,325.9c1.2-2.4,2.4-4.7,3.6-7.1l-15-34.9c-8.8,2-17.6,3.1-26.9,1.7c-0.3,0-0.6-0.1-0.9-0.1
				c-2.6,0.4-5.2,0.8-7.8,1c-6.4,0.4-17.5,0.9-20.1-6.7c-0.4-1.1-0.5-2.3-0.4-3.4c0.4-4.4,4-8.3,7-11.3c4.4-4.3,9.3-8,14-11.9
				c0.1,0,0.1-0.1,0.2-0.1c-16.5-4.6-27.2-13.1-32.2-17.9c-7.8,3.5-16.3,5.4-24.8,5.4c-6.9,0-13.6-1.2-20-3.4l103.9,106.3l15.4-9
				C220.8,331.4,222.1,328.6,223.4,325.9z"/>
			<path class="st3" d="M404.8,240.4c-8.5,0-17-1.8-24.8-5.3c-6.9,6.6-25.1,20.7-54.4,20.9l-30.3,72.4l28.7,16.8l103.8-109.3
				C420.7,238.8,412.8,240.4,404.8,240.4z"/>
			<path class="st3" d="M233.4,307.4c5.7-9.9,12-19.6,18.6-29c-3.9-0.5-7.8-1.4-11.5-2.8c-5.2,1.7-10.3,3.3-15.6,4.9
				c-2.5,0.7-5,1.4-7.5,2.1l13,30.2C231.4,311,232.3,309.1,233.4,307.4z"/>
			<path class="st4" d="M155.5,447.2l0.2-3.9C155.6,444.8,155.5,446.2,155.5,447.2z"/>
			<path class="st5" d="M267.5,342.4c-0.3,1.6-0.7,3.2-0.9,4.8c3.6,0.3,7,1.7,9.7,4.2c0.9,0.9,1.7,1.9,2.4,3l1.9-4.4L267.5,342.4z"
				/>
			<path class="st5" d="M305.9,372.1c0.9,0.3,1.8,0.6,2.6,1c0.3-0.3,0.7-0.6,1-0.8c1.1-1.1,2.3-2.2,3.3-3.3l-2.5-1.5L305.9,372.1z"
				/>
			<path class="st5" d="M281.3,362.1c0,0.4,0.1,0.7,0.1,1.1c3.8,2.1,7.4,4.5,10.9,7.1c2.5-0.2,5,0,7.6,0.3l5.7-6l-20.4-11.9
				L281.3,362.1z"/>
			<path class="st6" d="M216.1,342.7c0-0.1,0.1-0.1,0.1-0.2l-0.3,0.2C215.9,342.7,216,342.7,216.1,342.7z"/>
			<path class="st6" d="M111.7,421.9l0.1-0.2l0.4,0.2l0.9,0.1l11.3-6.7c4.3-5.6,9.4-10.8,14.5-15.7c6.2-6,12.9-11.6,19.8-16.8
				c6.4-4.8,13.1-9.3,20.1-13.1c5.8-3.2,12.1-6.1,18.5-7.8c0.4-3.7,1.1-6.9,2.4-9.7L83.7,419.9L111.7,421.9z"/>
			<path class="st7" d="M287.8,332.6l-18.2,1.1c-0.3,1.3-0.7,2.6-1,4l13.7,8L287.8,332.6z"/>
			<polygon class="st7" points="320.3,349.1 293.3,333.4 287,348.4 308.8,361.2 			"/>
			<path class="st7" d="M409.2,420.4l2.7,1.6l29.4-2.1L405,398.6C406.7,405.8,408.1,413,409.2,420.4z"/>
			<path class="st7" d="M313.6,364l2.8,1.6c0.8-0.4,1.7-0.6,2.6-0.6c0.5,0,0.9,0.1,1.4,0.1c0.4,0.1,0.9,0.2,1.2,0.4c0,0,0,0,0,0
				c0.8,0.4,1.5,1,2.1,1.7c1.4,1.8,3.1,3.4,4.8,5c0.4,0.4,0.9,0.8,1.4,1.2l7.6,4.4l15.7,9.3c11.8,4.2,24.1,4.9,36.5,2.5l-64.5-37.7
				L313.6,364z"/>
			<path class="st8" d="M450,215.7c2.9-13,4.9-26.3,5.9-39.6l0-0.2v-0.2c0-71.6-52.4-135.2-130.4-158.4c-20.5-6.1-41.7-9.2-63-9.2
				c-21.4,0-42.6,3.1-63,9.2c-78,23.2-130.4,86.9-130.4,158.4l0,0.2l0,0.2c0.9,13.4,2.9,26.8,5.9,40c1.2,4.7,3.4,7.4,4.4,8.4h0.1
				c1.7,1.5,3.4,2.9,5.2,4.3L199.4,346L65.9,424l42.2,3l-26,75.9l25.6,15v85.4l154.1,89.2l154.1-89.2l0.7-86.1l24.6-14.4l-23.8-72.2
				V427l41.8-3l-56.3-32.9c-0.5-1-1.2-1.9-2.2-2.5c-0.4-0.2-0.7-0.4-1.1-0.5c-0.7-0.2-1.4-0.3-2.1-0.2l-68.5-40l110.2-116.1
				C444.4,225.5,449.3,216.9,450,215.7z M397.6,393.9c3,11.3,5.1,22.4,6.5,33.1l-4.9,2.9l-2.8,1.7c-1-8.4-2.4-16.8-4.2-25
				c-0.3-1.5-1.8-2.6-3.4-2.3c-18.4,2.9-36.6-0.2-52.9-9.2c-5.2-2.9-10.3-6.4-14.9-10.3c-1.1-1-2.8-1-3.9,0
				c-4.6,3.9-9.7,7.4-14.9,10.3c-16.4,9-34.5,12.1-52.9,9.2c-1.6-0.2-3,0.8-3.4,2.3c-6.7,30.4-7.7,62.1-2.9,92.8l-3.3-2l-5.9-3.5
				c-3.7-28.6-3.2-63.3,6.7-100.1C289.8,407.8,319,371,319,371S348.2,407.8,397.6,393.9z M198.8,367.6c0.1,0.5,0.2,1.1,0.4,1.6
				c2.2,7.4,9.4,12.2,16.2,14.9c7,2.8,15.1,4.1,22.7,4.3c-0.2,0.1-0.4,0.2-0.6,0.3c-1.4,0.8-2.4,2.1-2.8,3.7
				c-3.3,12.2-5.6,24.7-7.1,37.2l-30.9-2.7L179,446c-2.2-0.1-8.7-0.9-18.6-5c3.9-28.7,17-52.9,35.9-67.6
				c-7.5,2.9-14.2,6.9-17.7,11.4c-1.5,1.9-2.9,3.8-4.2,5.8c-11.4,19.2-15.9,35.2-17.7,45.6c-0.1,0.4-0.1,0.7-0.2,1.1
				c-0.4,2.2-0.6,4.2-0.7,5.9l-0.2,3.9c0,0.2,0,0.3,0,0.4l-22.8-13.5l-4.7-2.8l-4.8-2.8l-1.2-0.7c2-2.5,4.3-5.3,6.9-8.7
				C142.8,401.3,175.7,373.7,198.8,367.6z M226,332.6c0.2-0.3,0.3-0.7,0.5-1c0.3-0.6,0.5-1.1,0.8-1.7c2.7,0.8,6.8,1.7,11.3,2.5
				c8.6,1.6,18.9,3,24.9,3.6c-0.2,1-0.5,1.9-0.7,2.9c-6.2-0.7-16.3-2-24.8-3.6C233.3,334.5,229,333.5,226,332.6z M208.3,230.9
				c1.3-2.6,2.6-4.8,4-6.6c0,0,0-0.1,0-0.1c0.5-1.1,1.3-1.9,2.2-2.5c3.6-3.4,7.4-4,10.7-1.8c12.1,8.2,13,18.9,32.7,17.4
				c-1.2,2-1.9,4.3-1.9,6.8c0,1.4,0.2,2.8,0.6,4.1c-1.2,0.9-2.1,1.6-2.7,2.1c-8.4,7.3-53,28.5-77.9,30.2c-28.2,1.9-8.2-12,7.9-25.4
				C196.4,244.9,205.8,236.2,208.3,230.9z M75.4,175.7c0-67.7,48.4-125.6,116.9-149.5c-22.4,20.1-76.3,78.7-56.2,162
				c-22.4-2-43.9,9.8-54.2,30v0.1c0,0-0.1,0-0.1-0.1C78.5,204.2,76.4,190,75.4,175.7z M443.1,218.2c-10.3-20.2-31.8-32-54.2-30
				c20.1-83.3-33.8-141.9-56.2-162c68.6,23.9,116.9,81.8,116.9,149.5C448.6,190,446.4,204.2,443.1,218.2z M276.2,351.5
				c-2.7-2.5-6.1-4-9.7-4.2c0.3-1.6,0.6-3.2,0.9-4.8l13,7.6l-1.9,4.4C277.9,353.4,277.2,352.4,276.2,351.5z M218.8,350.5
				c0.3-0.9,0.6-1.9,1-2.8c3.9,2.4,10.5,4,17.6,4.9c8.4,1,17.4,0.9,23.2-0.4c-0.1,1-0.2,2.1-0.3,3.1c-6.2,1.2-15,1.3-23.2,0.3
				C230,354.7,223.2,353,218.8,350.5z M268.6,337.7c0.3-1.3,0.6-2.6,1-4l18.2-1.1l-5.5,13.1L268.6,337.7z M267.7,321.3
				c-5-2.3-10-4-15.2-5.2c-5.5-1.2-11.1-1.9-16.9-2c0.6-1,1.1-2,1.7-2.9c5.4,0.2,10.7,0.9,15.9,2c5.3,1.2,10.4,2.9,15.5,5.2
				C268.3,319.4,268,320.3,267.7,321.3z M259.2,296.6c-4.4-1.1-8.6-1.4-12.5-1.1c0.7-1,1.3-2.1,2-3.1c3.6-0.1,7.4,0.3,11.2,1.3
				c5.1,1.3,10.3,3.5,15.4,6.6c-0.4,0.9-0.8,1.9-1.1,2.8C269.2,300,264.1,297.9,259.2,296.6z M270.3,282.3
				c-5.2-1.3-10.2-1.7-13.5-1.7c0.7-1,1.4-2,2.1-2.9c3.4,0.2,7.6,0.7,12.1,1.7c3.9,0.9,7.9,2.3,11.4,4.3c-0.4,0.9-0.8,1.8-1.2,2.7
				C277.8,284.6,274,283.2,270.3,282.3z M259.4,272.9c-4,0-7.9-0.5-11.7-1.4c5.4-1.9,10.8-4.1,15.9-6.5c4.5-2.1,12.2-5.9,14.1-10.7
				c0,0,0,0,0-0.1c1.4-1.2,2.6-2.6,3.4-4.3c0.9-1.8,1.4-3.8,1.4-5.9c0-7.3-5.9-13.3-13.3-13.3c-1.9,0-3.8,0.4-5.4,1.2c0,0,0,0,0,0
				c9.4-6.9,15.9-19.9,8.9-27.8c-8.2-9.2-31.1-16.9-48.4-16.4c-0.5,0-1.9,0.2-3.3,0.5c0.1-0.1,0.2-0.3,0.3-0.4
				c0.2-0.3,0.5-0.5,0.8-0.8c0.3-0.3,0.5-0.6,0.8-0.9c0.3-0.3,0.5-0.5,0.8-0.8c0.3-0.3,0.6-0.6,0.9-0.8c0.3-0.2,0.5-0.5,0.8-0.7
				c0.3-0.3,0.7-0.6,1-0.9c0.2-0.2,0.5-0.4,0.7-0.6c0.5-0.4,0.9-0.7,1.4-1.1c0.3-0.2,0.5-0.4,0.8-0.6c0.5-0.4,1-0.7,1.5-1
				c0.3-0.2,0.5-0.3,0.8-0.5c0.4-0.3,0.8-0.5,1.2-0.8c0.3-0.2,0.6-0.3,0.9-0.5c0.4-0.2,0.8-0.4,1.2-0.7c0.3-0.2,0.6-0.3,0.9-0.5
				c0.4-0.2,0.8-0.4,1.2-0.6c0.3-0.1,0.6-0.3,0.9-0.4c0.4-0.2,0.9-0.4,1.3-0.6c0.3-0.1,0.6-0.2,0.8-0.4c0.5-0.2,1-0.4,1.6-0.6
				c0.2-0.1,0.4-0.2,0.6-0.2c0.7-0.3,1.5-0.5,2.2-0.7c0.2-0.1,0.4-0.1,0.6-0.2c0.6-0.2,1.1-0.3,1.7-0.5c0.3-0.1,0.6-0.1,0.9-0.2
				c0.5-0.1,1-0.2,1.5-0.3c0.3-0.1,0.6-0.1,0.9-0.2c0.5-0.1,1-0.2,1.4-0.3c0.3-0.1,0.6-0.1,1-0.1c0.5-0.1,1-0.1,1.5-0.2
				c0.3,0,0.6-0.1,0.9-0.1c0.5-0.1,1.1-0.1,1.6-0.1c0.3,0,0.5,0,0.8-0.1c0.8,0,1.6-0.1,2.5-0.1c0.8,0,1.7,0,2.5,0.1
				c0.3,0,0.6,0,0.8,0.1c0.6,0,1.1,0.1,1.7,0.1c0.3,0,0.6,0.1,1,0.1c0.5,0.1,1,0.1,1.5,0.2c0.3,0.1,0.7,0.1,1,0.2
				c0.5,0.1,0.9,0.2,1.4,0.2c0.3,0.1,0.7,0.1,1,0.2c0.5,0.1,0.9,0.2,1.3,0.3c0.3,0.1,0.7,0.2,1,0.3c0.4,0.1,0.9,0.2,1.3,0.4
				c0.3,0.1,0.7,0.2,1,0.3c0.4,0.1,0.9,0.3,1.3,0.4c0.3,0.1,0.6,0.2,1,0.3c0.4,0.2,0.9,0.3,1.3,0.5c0.3,0.1,0.6,0.2,0.9,0.4
				c0.5,0.2,0.9,0.4,1.4,0.6c0.3,0.1,0.5,0.2,0.8,0.4c0.6,0.3,1.1,0.6,1.7,0.9c0.1,0.1,0.3,0.1,0.4,0.2c0.7,0.4,1.4,0.8,2,1.2
				c0.2,0.2,0.5,0.3,0.7,0.5c0.4,0.3,0.8,0.5,1.2,0.8c0.3,0.2,0.6,0.4,0.8,0.6c0.4,0.3,0.7,0.5,1.1,0.8c0.3,0.2,0.6,0.4,0.9,0.7
				c0.3,0.3,0.7,0.5,1,0.8c0.3,0.2,0.6,0.5,0.8,0.7c0.3,0.3,0.6,0.5,0.9,0.8c0.3,0.2,0.6,0.5,0.8,0.8c0.3,0.3,0.6,0.6,0.9,0.8
				c0.3,0.3,0.5,0.5,0.8,0.8c0.3,0.3,0.6,0.6,0.8,0.9c0.3,0.3,0.5,0.5,0.8,0.8c0.3,0.3,0.5,0.6,0.8,0.9c0.2,0.3,0.5,0.6,0.7,0.9
				c0.3,0.3,0.5,0.6,0.8,1c0.2,0.3,0.5,0.6,0.7,0.9c0.3,0.4,0.5,0.7,0.8,1.1c0.3,0.4,0.6,0.9,0.9,1.3c0.3,0.5,0.6,0.9,0.9,1.4
				c0.2,0.3,0.4,0.7,0.6,1c0.2,0.3,0.4,0.7,0.6,1.1c0.2,0.3,0.4,0.7,0.6,1.1c0.2,0.3,0.4,0.7,0.5,1c0.2,0.4,0.3,0.7,0.5,1.1
				c0.2,0.3,0.3,0.7,0.5,1c0.2,0.4,0.3,0.8,0.5,1.1c0.1,0.4,0.3,0.7,0.4,1.1c0.1,0.4,0.3,0.8,0.4,1.2c0.1,0.4,0.3,0.7,0.4,1.1
				c0.1,0.4,0.3,0.8,0.4,1.2c0.1,0.4,0.2,0.7,0.3,1.1c0.1,0.4,0.2,0.8,0.3,1.2c0.1,0.4,0.2,0.8,0.3,1.2c0.1,0.4,0.2,0.8,0.3,1.2
				c0.1,0.4,0.1,0.8,0.2,1.2c0.1,0.4,0.1,0.8,0.2,1.2c0,0,0,0.1,0,0.1c0,0,0,0,0,0c0.4,2.4,0.5,4.9,0.5,7.4
				C310.4,250,287.6,272.9,259.4,272.9z M269.3,233.9c5.6,0,10.1,4.5,10.1,10.1c0,5.6-4.5,10.1-10.1,10.1s-10.1-4.5-10.1-10.1
				C259.2,238.5,263.7,233.9,269.3,233.9z M251,217.8c0-4.6,3.7-8.2,8.2-8.2s8.2,3.7,8.2,8.2c0,4.6-3.7,8.2-8.2,8.2
				S251,222.4,251,217.8z M201.3,23.3c19.9-6,40.5-9,61.2-8.9c20.7-0.1,41.4,2.9,61.2,8.9C339.5,35.9,408,97,385.1,188.6
				c0,0-12.9-58.1-71-38.7c0.4-6.9,0.6-13.4,0.5-19.6c-0.1-6.2-0.4-12.1-0.8-17.7c-0.2-2.8-0.5-5.5-0.9-8.2c-9-71.6-50.4-90-50.4-90
				s-41.3,18.4-50.4,90c-0.3,2.7-0.6,5.4-0.9,8.2c-0.5,5.6-0.8,11.5-0.8,17.7c-0.1,6.2,0.1,12.7,0.5,19.6
				c-58.1-19.4-71,38.7-71,38.7C117,97,185.5,35.9,201.3,23.3z M262.5,18.4c8.6,4.9,52.2,34.1,48.2,126.6
				c-7.2-9.2-17.3-15.8-28.9-18.5c-12.7-3.3-26-3.3-38.7,0c-11.5,2.7-21.7,9.2-28.9,18.5C210.3,52.8,253.9,23.3,262.5,18.4z
				 M212.4,209.7c1.1-3.4,3.4-5.7,5.2-5.2c1.8,0.6,2.4,3.8,1.3,7.2c-1.1,3.4-3.4,5.7-5.2,5.2C211.8,216.3,211.3,213.1,212.4,209.7z
				 M212.9,275.5c10.8-4,21.8-8.9,31.9-14.3c3.4-1.8,7-3.9,10.2-6.2c1.2-0.9,2.6-2,3.5-3.2c2.3,3.1,5.9,5.2,10,5.4
				c-9.3,5.9-29.5,12.9-45.4,17.5c-7.6,2.2-15.1,4.3-22.8,5.1C204.8,278.5,209,277,212.9,275.5z M224.9,280.5
				c5.2-1.5,10.4-3.1,15.6-4.9c3.7,1.3,7.6,2.2,11.5,2.8c-6.6,9.3-12.9,19.1-18.6,29c-1,1.8-2,3.6-3,5.4l-13-30.2
				C219.9,281.9,222.4,281.2,224.9,280.5z M216.1,342.7c-0.1,0-0.2,0-0.2,0l0.3-0.2C216.1,342.5,216.1,342.6,216.1,342.7z
				 M213.9,348.8c0,0-0.8,1.1-1,3.4c0.3,0.5,0.4,1,0.3,1.6c-0.2,2.3,0.5,4.3,2.1,6c4,3.5,13.7,7.3,24.6,7.7
				c8.8,0.3,20.6-1.3,23.5-7.7c1.2-2.6,0.7-6.6,1.1-6.6c10.9-0.8,15.7,14,4.6,22.4c-20.5,15.5-67.7,7.8-66.1-12
				C203.7,355.7,205.2,350.2,213.9,348.8z M279.2,368.8c2.3,1.3,4.5,2.7,6.7,4.2c-1.6,0.6-2.6,1.4-2.5,2.2c0.6-0.2,1.2-0.4,1.8-0.6
				c5-1.3,11.1-0.4,18.1,2.6c-2.6,1.9-5.3,3.7-8.1,5.2c-16.5,9.1-34.4,10.7-52.4,5.8c10-0.4,20.9-3,29-9.1
				C275.3,376.5,278,373,279.2,368.8z M227.1,489.1c-0.2,0.2-0.4,0.4-0.6,0.6l-3-1.8c1.2-1.1,2.2-2.4,3-3.9c0-0.1,0.1-0.1,0.1-0.2
				C226.8,485.6,226.9,487.4,227.1,489.1z M245.2,495c-0.1-0.7-0.2-1.4-0.3-2.1c-0.2-1.5-0.4-3-0.6-4.6c-0.1-0.8-0.2-1.6-0.3-2.4
				c-0.1-1.5-0.3-2.9-0.4-4.4c-0.1-0.8-0.1-1.6-0.2-2.4c-0.1-1.6-0.2-3.2-0.3-4.8c0-0.5-0.1-1-0.1-1.5c0,0,0,0.1,0,0.1
				c-0.1-1.5-0.1-3.1-0.2-4.6c0,0,0,0,0,0c0-0.3,0-0.6,0-0.8c-0.1-2-0.1-4.1-0.1-6.1c0-0.3,0-0.6,0-0.9c0-2.4,0-4.7,0.1-7.1
				c0-0.6,0-1.2,0.1-1.7c0.1-1.8,0.1-3.6,0.3-5.3c0-0.7,0.1-1.4,0.1-2.2c0.1-1.8,0.3-3.6,0.4-5.4c0.1-0.6,0.1-1.1,0.1-1.7
				c0.2-2.3,0.5-4.6,0.8-7c0.1-0.4,0.1-0.9,0.2-1.3c0.2-1.9,0.5-3.8,0.8-5.7c0.1-0.7,0.2-1.5,0.3-2.2c0.3-1.7,0.6-3.3,0.9-5
				c0.1-0.7,0.2-1.4,0.4-2.1c0.4-2.3,0.9-4.6,1.4-6.8c18.9,3,37.6-0.1,54.9-9.6c5-2.7,10.5-6.5,15.4-10.7
				c4.9,4.2,10.4,7.9,15.4,10.7c17.2,9.5,36,12.5,54.8,9.6c1.9,8.6,3.3,17.3,4.3,26.1l-99.2,58.8L262.4,511l-12.4-7.3l-3.9-2.3
				C245.9,499.2,245.5,497.1,245.2,495z M359.8,544.2l-74.9,44.1l-22.8-71.9l-23.7,71.9l-74.9-44.1l-74.9-43.7l25.2-73.5l148.7,88.2
				l148.1-87.8l24.1,73.1L359.8,544.2z M159.6,447.7c0.1-0.7,0.1-1.3,0.2-2c0.1-0.5,0.1-1.1,0.2-1.6c0,0,0,0,0,0c0,0,0,0,0,0
				c0.3,0.1,0.6,0.2,0.9,0.3c0.4,0.1,0.7,0.3,1.1,0.4c0.4,0.1,0.7,0.3,1.1,0.4c0.3,0.1,0.7,0.2,1,0.3c0.4,0.1,0.7,0.2,1.1,0.3
				c0.3,0.1,0.6,0.2,0.9,0.3c0.3,0.1,0.7,0.2,1,0.3c0.3,0.1,0.6,0.2,0.9,0.2c0.3,0.1,0.6,0.1,0.9,0.2c0.3,0.1,0.5,0.1,0.8,0.2
				c0.3,0.1,0.6,0.1,0.9,0.2c0.3,0,0.5,0.1,0.7,0.1c0.3,0,0.6,0.1,0.8,0.1c0.2,0,0.5,0.1,0.7,0.1c0.3,0,0.5,0.1,0.7,0.1
				c0.2,0,0.4,0,0.6,0.1c0.2,0,0.5,0,0.7,0.1c0.2,0,0.4,0,0.5,0c0.2,0,0.4,0,0.6,0c0.2,0,0.3,0,0.5,0c0.2,0,0.4,0,0.5,0
				c0.1,0,0.3,0,0.4,0c0.2,0,0.3,0,0.5,0c0.1,0,0.2,0,0.3,0c0.1,0,0.3,0,0.4,0c0.1,0,0.1,0,0.2,0c0.1,0,0.2,0,0.3,0c0,0,0.1,0,0.1,0
				c0.1,0,0.1,0,0.2,0c0,0,0.1,0,0.1,0c0.1,0,0.1,0,0.1,0l0.7,0l9.4-10.5l7.5-8.3l0,0l20.4,1.7l9.7,0.8c0,0.1,0,0.2,0,0.2
				c0,0.2,0,0.5-0.1,0.7c-0.1,1.3-0.3,2.6-0.4,4l0,0l-29.5-2.6l-16.7,19c0,0,0,0-0.1,0c0,0-0.1,0-0.1,0c-0.1,0-0.1,0-0.2,0
				c0,0-0.1,0-0.1,0c-0.1,0-0.2,0-0.3,0c-0.1,0-0.2,0-0.2,0c-0.1,0-0.2,0-0.4,0c-0.1,0-0.2,0-0.3,0c-0.2,0-0.3,0-0.5,0
				c-0.1,0-0.3,0-0.4,0c-0.2,0-0.4,0-0.6-0.1c-0.1,0-0.3,0-0.5-0.1c-0.2,0-0.4-0.1-0.6-0.1c-0.2,0-0.4-0.1-0.5-0.1
				c-0.2,0-0.5-0.1-0.7-0.1c-0.2,0-0.4-0.1-0.6-0.1c-0.3,0-0.5-0.1-0.8-0.1c-0.2,0-0.4-0.1-0.7-0.1c-0.3-0.1-0.6-0.1-0.9-0.2
				c-0.2-0.1-0.5-0.1-0.7-0.2c-0.3-0.1-0.6-0.1-0.9-0.2c-0.2-0.1-0.5-0.1-0.7-0.2c-0.3-0.1-0.7-0.2-1-0.3c-0.3-0.1-0.5-0.1-0.8-0.2
				c-0.4-0.1-0.8-0.2-1.1-0.3c-0.3-0.1-0.5-0.1-0.8-0.2c-0.4-0.1-0.9-0.3-1.3-0.4c-0.2-0.1-0.4-0.1-0.7-0.2
				c-0.7-0.2-1.4-0.5-2.1-0.8c0,0,0,0,0,0c0,0,0,0,0,0c-0.6-0.2-1.2-0.5-1.8-0.7C159.9,447.9,159.7,447.8,159.6,447.7z M193.2,448
				c12.2,4.2,19.7-3.5,19.7-3.5s4.6,5.9,12.9,7c0,1.1-0.1,2.3-0.1,3.4c-1.3-0.2-2.5-0.4-3.7-0.7c-2-0.6-3.9-1.4-5.7-2.5
				c-0.4-0.3-0.9-0.5-1.3-0.9c-0.4-0.3-0.9-0.6-1.3-1l-1-0.8l-1.1,0.6c-0.4,0.2-0.9,0.5-1.3,0.7c-0.5,0.2-0.9,0.4-1.3,0.6
				c-1.9,0.8-3.8,1.3-5.7,1.5c-2,0.2-4,0.2-6-0.1l-1.7-0.2l-0.4,1.7c-0.8,3.6-1.2,7.3-1.2,11c0,1.9,0.1,3.8,0.3,5.6l-3.5-2.1
				C190.2,462.3,190.8,455.3,193.2,448z M224.8,478.5c-0.4,1.3-0.9,2.6-1.6,3.8c-0.6,1.1-1.3,2.2-2.3,3c-0.2,0.2-0.6,0.4-0.9,0.6
				L198.3,473c-0.5-2.7-0.8-5.4-0.8-8.1c0-2.9,0.3-5.8,0.8-8.6c1.8,0.1,3.5,0.1,5.3-0.1c2.3-0.3,4.5-0.8,6.7-1.7
				c0.5-0.2,1-0.4,1.6-0.7c0.1-0.1,0.3-0.1,0.5-0.2c0.2,0.1,0.3,0.2,0.5,0.4c0.5,0.4,1,0.7,1.5,1c2.1,1.3,4.3,2.2,6.6,2.9
				c1.5,0.4,3.1,0.7,4.7,0.9c0,5.1,0,10.3,0.3,15.4C225.6,475.6,225.3,477.1,224.8,478.5z M309.5,372.3c-0.3,0.3-0.7,0.6-1,0.8
				c-0.8-0.4-1.8-0.7-2.6-1l4.4-4.7l2.5,1.5C311.8,370.1,310.7,371.2,309.5,372.3z M299.9,370.6c-2.5-0.4-5.1-0.5-7.6-0.3
				c-3.5-2.6-7.1-5-10.9-7.1c0-0.4-0.1-0.7-0.1-1.1l3.9-9.4l20.4,11.9L299.9,370.6z M287,348.4l6.3-15l27,15.8l-11.4,12L287,348.4z
				 M290.1,327.1l-19,1.1c1.2-4.1,2.5-8.1,3.9-12.1c4-11.3,8.7-22.4,13.7-33.3c2.7-6,5.5-12,8.4-18c3.3-2.9,6.1-6.1,8.6-9.5
				c0.5-0.3,1.1-0.6,1.6-0.9c4.3,0.8,8.5,1.2,12.7,1.4L290.1,327.1z M100.2,237c6.3,2.2,13,3.4,20,3.4c8.5,0,17-1.8,24.8-5.4
				c4.9,4.7,15.7,13.3,32.2,17.9c-0.1,0-0.1,0.1-0.2,0.1c-4.8,3.9-9.6,7.6-14,11.9c-3,3-6.6,6.9-7,11.3c-0.1,1.2,0,2.3,0.4,3.4
				c2.6,7.7,13.7,7.2,20.1,6.7c2.6-0.2,5.2-0.5,7.8-1c0.3,0.1,0.6,0.1,0.9,0.1c9.3,1.4,18.1,0.3,26.9-1.7l15,34.9
				c-1.2,2.3-2.5,4.7-3.6,7.1c-1.4,2.8-2.7,5.6-3.9,8.4l-15.4,9L100.2,237z M199.6,352.1c-1.3,2.8-2,6-2.4,9.7
				c-6.4,1.7-12.7,4.6-18.5,7.8c-7,3.8-13.7,8.3-20.1,13.1c-6.9,5.2-13.5,10.8-19.8,16.8c-5.1,4.9-10.2,10.1-14.5,15.7l-11.3,6.7
				l-0.9-0.1l-0.4-0.2l-0.1,0.2l-28.1-2L199.6,352.1z M113.1,600.2V519l48.6,28.4l78.7,46.4l20.3-61.6v153.6L113.1,600.2z
				 M264.3,684.9V535.3l18.5,58.4l78.8-46.4l49.6-29l-0.7,81.9L264.3,684.9z M441.3,419.9l-29.4,2.1l-2.7-1.6
				c-1.1-7.3-2.5-14.6-4.3-21.7L441.3,419.9z M389.6,389.6c-12.4,2.4-24.7,1.7-36.5-2.5l-15.7-9.3l-7.6-4.4
				c-0.5-0.4-0.9-0.8-1.4-1.2c-1.7-1.5-3.4-3.2-4.8-5c-0.6-0.7-1.3-1.3-2.1-1.7c0,0,0,0,0,0c-0.4-0.2-0.8-0.3-1.2-0.4
				c-0.4-0.1-0.9-0.1-1.4-0.1c-0.9,0-1.8,0.2-2.6,0.6l-2.8-1.6l11.4-12L389.6,389.6z M324.1,345.1l-28.7-16.8l30.3-72.4
				c29.3-0.2,47.5-14.3,54.4-20.9c7.8,3.5,16.3,5.3,24.8,5.3c8.1,0,15.9-1.6,23.1-4.6L324.1,345.1z"/>
			<path class="st9" d="M332.7,26.2c22.4,20.1,76.3,78.7,56.2,162c22.4-2,43.9,9.8,54.2,30c3.4-13.9,5.6-28.1,6.6-42.5
				C449.6,108,401.3,50.1,332.7,26.2z"/>
			<path class="st9" d="M81.9,218.2L81.9,218.2c10.3-20.3,31.8-32.1,54.2-30.1c-20.1-83.3,33.8-141.9,56.2-162
				C123.7,50.1,75.4,108,75.4,175.7C76.4,190,78.5,204.2,81.9,218.2C81.9,218.2,81.9,218.2,81.9,218.2z M149.4,61
				c-40.6,51.6-31.1,108.8-31.1,108.8c-12-1.5-23.6,10.2-23.6,10.2C86.7,100.1,149.4,61,149.4,61z"/>
			<path class="st10" d="M243.1,126.5c12.7-3.3,26-3.3,38.7,0c11.5,2.7,21.7,9.2,28.9,18.5c3.9-92.5-39.6-121.7-48.2-126.6
				c-8.6,4.9-52.2,34.4-48.2,126.6C221.5,135.8,231.6,129.2,243.1,126.5z"/>
			<path class="st9" d="M129,419c-2.6,3.4-4.9,6.2-6.9,8.7l1.2,0.7c10.2-16.2,30.8-34.6,47-44.7c3.8-2.4,2.9-1.8,6.8-3.4
				c-17.3,15.5-37.4,30.3-49.1,50.9c0,0,0,0,0,0l4.7,2.8c9.2-15.5,41.8-43.7,41.8-43.7c-0.1,0.1-0.1,0.2-0.2,0.3
				c1.3-2,2.7-3.9,4.2-5.8c3.5-4.5,10.2-8.5,17.7-11.4c-18.9,14.7-32,39-35.9,67.6c9.9,4.1,16.4,4.9,18.6,5l17.7-19.2l30.9,2.7
				c1.5-12.6,3.8-25,7.1-37.2c0.4-1.6,1.4-2.8,2.8-3.7c0.2-0.1,0.4-0.2,0.6-0.3c-7.7-0.1-15.7-1.5-22.7-4.3
				c-6.8-2.7-14-7.4-16.2-14.9c-0.2-0.5-0.3-1.1-0.4-1.6C175.7,373.7,142.8,401.3,129,419z M217.2,400.6c-0.3,1.3-0.6,2.6-0.9,3.9
				c0.3,0.1,0.6,0.1,0.9,0.2c1.3-1.1,2.5-2.3,3.7-3.5c0.9,0.1,1.7,0.2,2.6,0.3c-1.5,1.4-3,2.7-4.5,4c0.9,1.9,1.9,3.8,2.8,5.7
				c-0.9-0.1-1.8-0.2-2.8-0.4c-0.7-1.5-1.3-3-2-4.5c-0.4-0.1-0.8-0.1-1.2-0.2c-0.3,1.3-0.7,2.7-1.1,4c-0.7-0.1-1.5-0.3-2.2-0.4
				c0.9-3.2,1.8-6.3,2.6-9.5C215.9,400.4,216.5,400.5,217.2,400.6z M205.2,397.8c0.7,0.2,1.3,0.4,2,0.6c0.7,2.5,1.4,5,2.1,7.4
				c0,0,0,0,0,0c0.7-2.1,1.3-4.3,1.9-6.4c0.7,0.2,1.3,0.3,2,0.4c-0.8,3.2-1.7,6.3-2.7,9.4c-0.7-0.2-1.4-0.3-2.2-0.5
				c-0.7-2.5-1.5-5-2.1-7.5c0,0,0,0,0,0c-0.7,2.1-1.4,4.2-2.2,6.3c-0.7-0.2-1.4-0.4-2.1-0.6C203,404,204.1,400.9,205.2,397.8z
				 M202.3,401.1c-0.2,0.6-0.4,1.1-0.6,1.7c-0.4,1.1-1.2,1.9-2.3,2.4c-1.1,0.5-2.3,0.5-3.6,0c-1.3-0.4-2.1-1.2-2.5-2.2
				c-0.4-1-0.4-2.1,0.1-3.2c0.2-0.5,0.5-1.1,0.7-1.6c0.5-1.1,1.2-1.9,2.3-2.3c1-0.4,2.1-0.5,3.3-0.1c1.2,0.4,2,1.1,2.5,2.1
				C202.6,399,202.7,400,202.3,401.1z M188.7,391.6c-0.6,1.3-1.2,2.5-1.9,3.7c1.2,0.6,2.5,1.2,3.8,1.7c0.6-1.3,1.2-2.5,1.7-3.8
				c0.6,0.3,1.2,0.5,1.8,0.8c-1.3,3-2.6,5.9-4.1,8.9c-0.7-0.3-1.3-0.6-2-0.8c0.6-1.2,1.2-2.4,1.8-3.6c-1.3-0.6-2.6-1.1-3.8-1.7
				c-0.6,1.2-1.3,2.4-1.9,3.6c-0.4-0.2-0.8-0.4-1.3-0.6c-5.4,11.8-9.7,23.3-10.9,39c-0.2,2.6-2.5,4.5-5,4.3c-2.6-0.2-4.5-2.5-4.3-5
				c2.5-17.2,12.8-41.9,24.7-54.5l5.4-4.7c-1.9,4.3-3.8,8.3-5.7,12.2C187.7,391.1,188.2,391.3,188.7,391.6z"/>
			<path class="st9" d="M160.9,444.4c-0.3-0.1-0.6-0.2-0.9-0.3c0,0,0,0,0,0c0.1,0.1,0.3,0.1,0.4,0.2
				C160.5,444.3,160.7,444.4,160.9,444.4z"/>
			<path class="st9" d="M226.8,436.4c0.1-1.3,0.2-2.6,0.4-4C227,433.7,226.9,435,226.8,436.4L226.8,436.4z"/>
			<path class="st9" d="M227.2,431.7c0-0.1,0-0.2,0-0.2l-9.7-0.8l9.7,0.8C227.3,431.5,227.3,431.6,227.2,431.7z"/>
			<polygon class="st9" points="186.7,445.8 180.5,452.8 197.3,433.8 194.5,437 			"/>
			<path class="st9" d="M199.1,397.3c-0.7-0.2-1.2-0.2-1.8,0.1c-0.5,0.3-1,0.8-1.3,1.5c-0.2,0.5-0.5,1.1-0.7,1.6
				c-0.3,0.7-0.4,1.4-0.2,2c0.2,0.6,0.6,1,1.3,1.3c0.7,0.2,1.3,0.2,1.9-0.1c0.6-0.3,1-0.8,1.3-1.6c0.2-0.6,0.4-1.1,0.6-1.7
				c0.3-0.7,0.3-1.4,0.1-1.9C200.2,398,199.7,397.6,199.1,397.3z"/>
			<path class="st9" d="M203,363.7c-1.6,19.7,45.6,27.5,66.1,12c11.1-8.5,6.3-23.2-4.6-22.4c-0.4,0,0.1,4-1.1,6.6
				c-2.9,6.3-14.7,8-23.5,7.7c-11-0.4-20.7-4.2-24.6-7.7c8,9.1,36.6,11,46.4,4l1.1-0.8c-5.4,12.1-55.8,12.1-54.4-10.1
				c0.2-1.3,1.5-2.2,2.8-2c0.7,0.1,1.3,0.6,1.7,1.2c0.2-2.3,1-3.4,1-3.4C205.2,350.2,203.7,355.7,203,363.7z M267.8,364.9
				c1.6,0,2.9,1.4,2.8,3c0,1.6-1.4,2.9-3,2.8c-1.6,0-2.9-1.4-2.8-3C264.9,366.2,266.2,364.9,267.8,364.9z M257.6,370.8
				c1.6,0,2.9,1.4,2.8,3c0,1.6-1.4,2.9-3,2.8c-1.6,0-2.9-1.4-2.8-3C254.6,372.1,256,370.8,257.6,370.8z M245,373.5
				c1.6,0,2.9,1.4,2.8,3c0,1.6-1.4,2.9-3,2.8c-1.6,0-2.9-1.4-2.8-3C242.1,374.7,243.4,373.5,245,373.5z M231.5,372.5
				c1.6,0,2.9,1.4,2.8,3c0,1.6-1.4,2.9-3,2.8c-1.6,0-2.9-1.4-2.8-3C228.5,373.7,229.9,372.4,231.5,372.5z M219.3,368.6
				c1.6,0,2.9,1.4,2.8,3c0,1.6-1.4,2.9-3,2.8c-1.6,0-2.9-1.4-2.8-3C216.4,369.9,217.7,368.6,219.3,368.6z M212.5,365.5
				c0,1.6-1.4,2.9-3,2.8c-1.6,0-2.9-1.4-2.8-3c0-1.6,1.4-2.9,3-2.8C211.3,362.6,212.5,363.9,212.5,365.5z"/>
			<path class="st11" d="M310.4,221.9c0-2.5-0.2-5-0.5-7.4c-3.5,15.8-14.3,28.9-28.7,35.5c-0.8,1.7-2,3.1-3.4,4.3c0,0,0,0,0,0.1
				c-1.9,4.8-9.7,8.6-14.1,10.7c-5.1,2.4-10.5,4.5-15.9,6.5c3.8,0.9,7.7,1.4,11.7,1.4C287.6,272.9,310.4,250,310.4,221.9z"/>
			<path class="st9" d="M309.9,214.4C309.9,214.4,309.9,214.4,309.9,214.4c0-0.1,0-0.1,0-0.1c-0.1-0.4-0.1-0.8-0.2-1.2
				c-0.1-0.4-0.1-0.8-0.2-1.2c-0.1-0.4-0.2-0.8-0.3-1.2c-0.1-0.4-0.2-0.8-0.3-1.2c-0.1-0.4-0.2-0.8-0.3-1.2
				c-0.1-0.4-0.2-0.8-0.3-1.1c-0.1-0.4-0.2-0.8-0.4-1.2c-0.1-0.4-0.2-0.7-0.4-1.1c-0.1-0.4-0.3-0.8-0.4-1.2
				c-0.1-0.4-0.3-0.7-0.4-1.1c-0.2-0.4-0.3-0.8-0.5-1.1c-0.2-0.4-0.3-0.7-0.5-1c-0.2-0.4-0.3-0.7-0.5-1.1c-0.2-0.4-0.4-0.7-0.5-1
				c-0.2-0.4-0.4-0.7-0.6-1.1c-0.2-0.4-0.4-0.7-0.6-1.1c-0.2-0.3-0.4-0.7-0.6-1c-0.3-0.5-0.6-0.9-0.9-1.4c-0.3-0.5-0.6-0.9-0.9-1.3
				c-0.3-0.4-0.5-0.7-0.8-1.1c-0.2-0.3-0.5-0.6-0.7-0.9c-0.3-0.3-0.5-0.7-0.8-1c-0.2-0.3-0.5-0.6-0.7-0.9c-0.3-0.3-0.5-0.6-0.8-0.9
				c-0.3-0.3-0.5-0.6-0.8-0.8c-0.3-0.3-0.6-0.6-0.8-0.9c-0.3-0.3-0.5-0.5-0.8-0.8c-0.3-0.3-0.6-0.6-0.9-0.8
				c-0.3-0.3-0.5-0.5-0.8-0.8c-0.3-0.3-0.6-0.5-0.9-0.8c-0.3-0.2-0.6-0.5-0.8-0.7c-0.3-0.3-0.7-0.5-1-0.8c-0.3-0.2-0.6-0.4-0.9-0.7
				c-0.4-0.3-0.7-0.5-1.1-0.8c-0.3-0.2-0.6-0.4-0.8-0.6c-0.4-0.3-0.8-0.5-1.2-0.8c-0.2-0.2-0.5-0.3-0.7-0.5c-0.7-0.4-1.3-0.8-2-1.2
				c-0.1-0.1-0.3-0.1-0.4-0.2c-0.6-0.3-1.1-0.6-1.7-0.9c-0.3-0.1-0.5-0.2-0.8-0.4c-0.5-0.2-0.9-0.4-1.4-0.6
				c-0.3-0.1-0.6-0.2-0.9-0.4c-0.4-0.2-0.9-0.4-1.3-0.5c-0.3-0.1-0.6-0.2-1-0.3c-0.4-0.2-0.9-0.3-1.3-0.4c-0.3-0.1-0.7-0.2-1-0.3
				c-0.4-0.1-0.9-0.3-1.3-0.4c-0.3-0.1-0.7-0.2-1-0.3c-0.4-0.1-0.9-0.2-1.3-0.3c-0.3-0.1-0.7-0.1-1-0.2c-0.5-0.1-0.9-0.2-1.4-0.2
				c-0.3-0.1-0.7-0.1-1-0.2c-0.5-0.1-1-0.1-1.5-0.2c-0.3,0-0.6-0.1-1-0.1c-0.5-0.1-1.1-0.1-1.7-0.1c-0.3,0-0.6,0-0.8-0.1
				c-0.8,0-1.7-0.1-2.5-0.1c-0.8,0-1.6,0-2.5,0.1c-0.3,0-0.5,0-0.8,0.1c-0.6,0-1.1,0.1-1.6,0.1c-0.3,0-0.6,0.1-0.9,0.1
				c-0.5,0.1-1,0.1-1.5,0.2c-0.3,0-0.6,0.1-1,0.1c-0.5,0.1-1,0.2-1.4,0.3c-0.3,0.1-0.6,0.1-0.9,0.2c-0.5,0.1-1,0.2-1.5,0.3
				c-0.3,0.1-0.6,0.1-0.9,0.2c-0.6,0.1-1.1,0.3-1.7,0.5c-0.2,0.1-0.4,0.1-0.6,0.2c-0.7,0.2-1.5,0.5-2.2,0.7
				c-0.2,0.1-0.4,0.2-0.6,0.2c-0.5,0.2-1,0.4-1.6,0.6c-0.3,0.1-0.6,0.2-0.8,0.4c-0.4,0.2-0.9,0.4-1.3,0.6c-0.3,0.1-0.6,0.3-0.9,0.4
				c-0.4,0.2-0.8,0.4-1.2,0.6c-0.3,0.2-0.6,0.3-0.9,0.5c-0.4,0.2-0.8,0.4-1.2,0.7c-0.3,0.2-0.6,0.3-0.9,0.5
				c-0.4,0.2-0.8,0.5-1.2,0.8c-0.3,0.2-0.5,0.3-0.8,0.5c-0.5,0.3-1,0.7-1.5,1c-0.3,0.2-0.5,0.4-0.8,0.6c-0.5,0.4-0.9,0.7-1.4,1.1
				c-0.3,0.2-0.5,0.4-0.7,0.6c-0.3,0.3-0.7,0.6-1,0.9c-0.3,0.2-0.5,0.5-0.8,0.7c-0.3,0.3-0.6,0.6-0.9,0.8c-0.3,0.3-0.5,0.5-0.8,0.8
				c-0.3,0.3-0.6,0.6-0.8,0.9c-0.3,0.3-0.5,0.5-0.8,0.8c-0.1,0.1-0.2,0.3-0.3,0.4c1.4-0.2,2.8-0.5,3.3-0.5
				c17.2-0.5,40.1,7.1,48.4,16.4c7,7.9,0.6,20.8-8.9,27.8c0,0,0,0,0,0c1.7-0.8,3.5-1.2,5.4-1.2c7.3,0,13.3,5.9,13.3,13.3
				c0,2.1-0.5,4.1-1.4,5.9C295.6,243.4,306.4,230.3,309.9,214.4z M263.8,176.3c-11.8-4,2.8,1.4-9.4-3.2c6.8-1.1,8.2-1.2,15.1,0.5
				c22.7,5.5,35.9,22.9,37.6,45.8c0,2.8-2.3,5-5.1,5c-2.8,0-5-2.3-5-5.1C297,197.3,284.1,183.2,263.8,176.3z"/>
			<path class="st9" d="M271.8,379.2c-8,6.1-19,8.7-29,9.1c18,4.9,35.9,3.3,52.4-5.8c2.8-1.5,5.5-3.3,8.1-5.2
				c-7-3-13.2-3.9-18.1-2.6c-0.6,0.2-1.2,0.4-1.8,0.6c-0.1-0.8,0.8-1.6,2.5-2.2c-2.2-1.5-4.4-2.9-6.7-4.2
				C278,373,275.3,376.5,271.8,379.2z"/>
			<path class="st9" d="M260.2,355.2c0.1-1,0.2-2.1,0.3-3.1c-5.8,1.4-14.7,1.5-23.2,0.4c-7.1-0.9-13.8-2.5-17.6-4.9
				c-0.3,0.9-0.7,1.9-1,2.8c4.4,2.5,11.1,4.2,18.2,5C245.2,356.6,254,356.5,260.2,355.2z"/>
			<path class="st9" d="M238.1,335.4c8.5,1.6,18.6,3,24.8,3.6c0.2-1,0.4-2,0.7-2.9c-6-0.6-16.3-2-24.9-3.6
				c-4.5-0.8-8.6-1.7-11.3-2.5c-0.3,0.6-0.5,1.1-0.8,1.7c-0.2,0.3-0.3,0.7-0.5,1C229,333.5,233.3,334.5,238.1,335.4z"/>
			<path class="st9" d="M237.2,311.2c-0.6,1-1.1,2-1.7,2.9c5.8,0.2,11.4,0.8,16.9,2c5.2,1.2,10.2,2.8,15.2,5.2
				c0.3-1,0.6-1.9,0.9-2.9c-5.1-2.3-10.2-4-15.5-5.2C247.9,312,242.6,311.4,237.2,311.2z"/>
			<path class="st9" d="M275.3,300.4c-5.1-3.2-10.3-5.4-15.4-6.6c-3.9-1-7.7-1.4-11.2-1.3c-0.7,1-1.3,2.1-2,3.1
				c3.9-0.4,8.1,0,12.5,1.1c4.9,1.2,10,3.4,15,6.5C274.6,302.2,274.9,301.3,275.3,300.4z"/>
			<path class="st9" d="M282.4,283.8c-3.6-2-7.6-3.4-11.4-4.3c-4.4-1.1-8.7-1.6-12.1-1.7c-0.7,1-1.4,1.9-2.1,2.9
				c3.3,0,8.3,0.4,13.5,1.7c3.7,0.9,7.5,2.3,10.9,4.2C281.6,285.6,282,284.7,282.4,283.8z"/>
			<path class="st9" d="M267.5,217.8c0-4.6-3.7-8.2-8.2-8.2s-8.2,3.7-8.2,8.2c0,4.6,3.7,8.2,8.2,8.2S267.5,222.4,267.5,217.8z
				 M259.1,216c0-2,1.6-3.6,3.6-3.6c2,0,3.6,1.6,3.6,3.6s-1.6,3.6-3.6,3.6C260.7,219.6,259.1,218,259.1,216z"/>
			<path class="st12" d="M223.2,274.7c15.9-4.6,36.1-11.6,45.4-17.5c-4.1-0.2-7.8-2.3-10-5.4c-1,1.3-2.3,2.4-3.5,3.2
				c-3.2,2.3-6.8,4.3-10.2,6.2c-10.2,5.5-21.1,10.3-31.9,14.3c-3.9,1.5-8.2,3-12.5,4.3C208.1,279,215.7,276.9,223.2,274.7z"/>
			<path class="st13" d="M176.1,280.4c24.9-1.7,69.6-22.9,77.9-30.2c0.5-0.5,1.5-1.2,2.7-2.1c-0.4-1.3-0.6-2.6-0.6-4.1
				c0-2.5,0.7-4.8,1.9-6.8c-19.8,1.5-20.6-9.2-32.7-17.4c-3.3-2.2-7.1-1.6-10.7,1.8c1.3-0.7,2.9-0.9,4.4-0.3c2.6,1.1,3.8,4,2.7,6.6
				c-7.7,14.8-11.9,16.5-25.2,25.9c-9,6.4-18.4,13.6-28.3,18.4c6.4-9.4,15.5-16.5,23.9-23.9c10.7-9.5,14.6-10.9,20.2-24.2
				c-1.4,1.8-2.7,4-4,6.6c-2.5,5.3-12,14-24.3,24.2C167.8,268.4,147.9,282.3,176.1,280.4z"/>
			<path class="st9" d="M269.3,254.1c5.6,0,10.1-4.5,10.1-10.1c0-5.6-4.5-10.1-10.1-10.1s-10.1,4.5-10.1,10.1
				C259.2,249.6,263.7,254.1,269.3,254.1z M263.7,238.4c3.1-3.1,8.1-3.1,11.2,0c3.1,3.1,3.1,8.1,0,11.2c-3.1,3.1-8.1,3.1-11.2,0
				C260.6,246.6,260.6,241.5,263.7,238.4z"/>
			<path class="st8" d="M274.9,249.7c3.1-3.1,3.1-8.1,0-11.2c-3.1-3.1-8.1-3.1-11.2,0c-3.1,3.1-3.1,8.1,0,11.2
				C266.8,252.8,271.8,252.8,274.9,249.7z M273.8,248.5c-2.2,2.2-5.6,2.4-8,0.8l8.8-8.8C276.3,243,276,246.3,273.8,248.5z
				 M264.8,239.5c2.2-2.2,5.6-2.4,8-0.8l-8.8,8.8C262.4,245.1,262.6,241.7,264.8,239.5z"/>
			<path class="st9" d="M272.9,238.7c-2.5-1.7-5.9-1.4-8,0.8s-2.4,5.6-0.8,8L272.9,238.7z"/>
			<path class="st9" d="M273.8,248.5c2.2-2.2,2.4-5.6,0.8-8l-8.8,8.8C268.3,251,271.6,250.7,273.8,248.5z"/>
			<path class="st8" d="M266.2,216c0-2-1.6-3.6-3.6-3.6c-2,0-3.6,1.6-3.6,3.6s1.6,3.6,3.6,3.6C264.6,219.6,266.2,218,266.2,216z"/>
			<path class="st9" d="M213.6,216.9c1.8,0.6,4.1-1.7,5.2-5.2c1.1-3.4,0.5-6.7-1.3-7.2c-1.8-0.6-4.1,1.7-5.2,5.2
				C211.3,213.1,211.8,216.3,213.6,216.9z M216,209.3c0.5-1.5,1.5-2.5,2.3-2.2c0.8,0.2,1,1.6,0.6,3.1c-0.5,1.5-1.5,2.5-2.3,2.2
				C215.8,212.2,215.5,210.8,216,209.3z"/>
			<path class="st8" d="M216.5,212.4c0.8,0.2,1.8-0.8,2.3-2.2c0.5-1.5,0.2-2.9-0.6-3.1c-0.8-0.2-1.8,0.8-2.3,2.2
				C215.5,210.8,215.8,212.2,216.5,212.4z"/>
			<path class="st13" d="M226.5,484.1c-0.8,1.4-1.7,2.7-3,3.9l3,1.8c0.2-0.2,0.4-0.4,0.6-0.6c-0.2-1.8-0.3-3.5-0.5-5.3
				C226.6,483.9,226.6,484,226.5,484.1z"/>
			<path class="st13" d="M194.1,470.5c-0.2-1.9-0.3-3.8-0.3-5.6c0-3.7,0.4-7.4,1.2-11l0.4-1.7l1.7,0.2c2,0.3,4,0.3,6,0.1
				c1.9-0.2,3.8-0.7,5.7-1.5c0.4-0.2,0.9-0.4,1.3-0.6c0.5-0.2,0.9-0.5,1.3-0.7l1.1-0.6l1,0.8c0.4,0.3,0.9,0.7,1.3,1
				c0.4,0.3,0.9,0.6,1.3,0.9c1.8,1.1,3.7,1.9,5.7,2.5c1.2,0.4,2.5,0.6,3.7,0.7c0-1.1,0.1-2.3,0.1-3.4c-8.3-1.1-12.9-7-12.9-7
				s-7.5,7.7-19.7,3.5c-2.5,7.3-3,14.3-2.6,20.4L194.1,470.5z"/>
			<path class="st14" d="M225.7,458.6c-1.6-0.2-3.2-0.4-4.7-0.9c-2.3-0.7-4.5-1.6-6.6-2.9c-0.5-0.3-1-0.6-1.5-1
				c-0.2-0.1-0.3-0.2-0.5-0.4c-0.2,0.1-0.3,0.2-0.5,0.2c-0.5,0.3-1,0.5-1.6,0.7c-2.2,0.9-4.4,1.5-6.7,1.7c-1.7,0.2-3.5,0.2-5.3,0.1
				c-0.5,2.8-0.8,5.7-0.8,8.6c0,2.7,0.3,5.4,0.8,8.1l21.8,12.9c0.3-0.2,0.6-0.4,0.9-0.6c0.9-0.8,1.7-1.8,2.3-3
				c0.6-1.2,1.1-2.5,1.6-3.8c0.5-1.5,0.9-2.9,1.2-4.5C225.7,468.9,225.6,463.8,225.7,458.6z"/>
			<path class="st8" d="M206.7,365.3c0,1.6,1.2,2.9,2.8,3c1.6,0,2.9-1.2,3-2.8c0-1.6-1.2-2.9-2.8-3
				C208.1,362.5,206.7,363.8,206.7,365.3z"/>
			<path class="st8" d="M267.7,370.7c1.6,0,2.9-1.2,3-2.8c0-1.6-1.2-2.9-2.8-3c-1.6,0-2.9,1.2-3,2.8
				C264.8,369.3,266.1,370.7,267.7,370.7z"/>
			<path class="st8" d="M257.4,376.6c1.6,0,2.9-1.2,3-2.8c0-1.6-1.2-2.9-2.8-3c-1.6,0-2.9,1.2-3,2.8
				C254.6,375.3,255.8,376.6,257.4,376.6z"/>
			<path class="st8" d="M244.8,379.3c1.6,0,2.9-1.2,3-2.8c0-1.6-1.2-2.9-2.8-3c-1.6,0-2.9,1.2-3,2.8
				C242,377.9,243.2,379.2,244.8,379.3z"/>
			<path class="st8" d="M231.3,378.3c1.6,0,2.9-1.2,3-2.8c0-1.6-1.2-2.9-2.8-3c-1.6,0-2.9,1.2-3,2.8
				C228.4,376.9,229.7,378.2,231.3,378.3z"/>
			<path class="st8" d="M219.2,374.4c1.6,0,2.9-1.2,3-2.8c0-1.6-1.2-2.9-2.8-3c-1.6,0-2.9,1.2-3,2.8
				C216.3,373,217.6,374.4,219.2,374.4z"/>
			<path class="st10" d="M302,224.4c2.8,0,5.1-2.2,5.1-5c-1.7-22.9-14.9-40.3-37.6-45.8c-6.9-1.7-8.3-1.6-15.1-0.5
				c12.2,4.6-2.4-0.8,9.4,3.2c20.3,6.9,33.2,21,33.3,43C297,222.1,299.2,224.4,302,224.4z"/>
			<path class="st2" d="M192.1,248.4c-8.4,7.5-17.5,14.6-23.9,23.9c9.9-4.8,19.3-12,28.3-18.4c13.3-9.5,17.5-11.1,25.2-25.9
				c1.1-2.6-0.1-5.5-2.7-6.6c-1.5-0.6-3.1-0.5-4.4,0.3c-1,0.5-1.8,1.4-2.2,2.5c0,0,0,0.1,0,0.1C206.7,237.5,202.8,238.9,192.1,248.4
				z"/>
			<path class="st9" d="M240.4,393.9c-9.9,36.8-10.4,71.5-6.7,100.1l5.9,3.5c-4.4-30.4-3.3-61.6,3.3-91.5c0.7-3.1,3.6-5.1,6.8-4.6
				c17.7,2.8,35.3-0.2,51-8.9c5.1-2.8,10-6.2,14.4-10c2.2-1.9,5.5-1.9,7.8,0c4.4,3.8,9.3,7.2,14.4,10c15.7,8.7,33.3,11.7,51,8.9
				c3.1-0.5,6.1,1.5,6.8,4.6c1.8,7.9,3.1,15.9,4.1,24l4.9-2.9c-1.4-10.8-3.5-21.8-6.5-33.1C348.2,407.8,319,371,319,371
				S289.8,407.8,240.4,393.9z"/>
			<path class="st11" d="M395.1,405.9c-0.7-3.1-3.6-5.1-6.8-4.6c-17.7,2.8-35.3-0.2-51-8.9c-5.1-2.8-10-6.2-14.4-10
				c-2.2-1.9-5.5-1.9-7.8,0c-4.4,3.8-9.3,7.2-14.4,10c-15.7,8.7-33.3,11.7-51,8.9c-3.1-0.5-6.1,1.5-6.8,4.6
				c-6.6,29.9-7.7,61.2-3.3,91.5l3.3,2c-4.8-30.7-3.8-62.5,2.9-92.8c0.3-1.5,1.8-2.6,3.4-2.3c18.4,2.9,36.6-0.2,52.9-9.2
				c5.2-2.9,10.3-6.4,14.9-10.3c1.1-1,2.8-1,3.9,0c4.6,3.9,9.7,7.4,14.9,10.3c16.4,9,34.5,12.1,52.9,9.2c1.6-0.2,3,0.8,3.4,2.3
				c1.8,8.3,3.2,16.6,4.2,25l2.8-1.7C398.2,421.8,396.8,413.8,395.1,405.9z"/>
			<path class="st13" d="M250,503.4c0,0.1,0.1,0.2,0.1,0.3l12.4,7.3l31.9-18.9c-10.4-3.1-20.2-6.7-29.1-11l-11.2,18.3
				c0,0,0,0-4.1-15.2c-1-3.5-1.6-7.7-1.9-12.5c-1.7-1.1-3.4-2.2-5-3.3c0,1.5,0.1,3.1,0.2,4.6c0.2,1.1,0.3,2.1,0.5,3.1
				C245.2,485.3,247.3,494.5,250,503.4z"/>
			<path class="st15" d="M252.2,412.6c43.7,4.8,67.5-20.6,67.5-20.6l-54.4,89.1c8.9,4.2,18.7,7.8,29.1,11l99.2-58.8
				c-1-8.8-2.4-17.5-4.3-26.1c-18.9,3-37.6-0.1-54.8-9.6c-5-2.7-10.5-6.5-15.4-10.7c-4.9,4.2-10.4,7.9-15.4,10.7
				c-17.2,9.5-36,12.5-54.9,9.6c-0.5,2.3-1,4.5-1.4,6.8c-0.1,0.7-0.3,1.4-0.4,2.1c-0.3,1.7-0.6,3.3-0.9,5c-0.1,0.7-0.2,1.5-0.3,2.2
				c-0.3,1.9-0.6,3.8-0.8,5.7c-0.1,0.4-0.1,0.9-0.2,1.3c-0.3,2.3-0.5,4.6-0.8,7c-0.1,0.6-0.1,1.1-0.1,1.7c-0.2,1.8-0.3,3.6-0.4,5.4
				c0,0.7-0.1,1.4-0.1,2.2c-0.1,1.8-0.2,3.6-0.3,5.3c0,0.6-0.1,1.2-0.1,1.7c-0.1,2.4-0.1,4.7-0.1,7.1c0,0.3,0,0.6,0,0.9
				c0,2,0,4.1,0.1,6.1c0,0.3,0,0.6,0,0.8c0,0,0,0,0,0c1.6,1.1,3.3,2.2,5,3.3C246.9,456.1,248.8,434.7,252.2,412.6z"/>
			<path class="st10" d="M177.1,380.4c-3.9,1.6-3,1-6.8,3.4c-16.2,10.1-36.8,28.5-47,44.7l4.8,2.8c0,0,0,0,0,0
				C139.8,410.7,159.8,395.9,177.1,380.4z"/>
			<path class="st11" d="M161.9,448.6C161.9,448.6,161.9,448.6,161.9,448.6c0.7,0.3,1.4,0.5,2.1,0.8c0.2,0.1,0.4,0.1,0.7,0.2
				c0.5,0.2,0.9,0.3,1.3,0.4c0.3,0.1,0.5,0.2,0.8,0.2c0.4,0.1,0.8,0.2,1.1,0.3c0.3,0.1,0.5,0.1,0.8,0.2c0.3,0.1,0.7,0.2,1,0.3
				c0.3,0.1,0.5,0.1,0.7,0.2c0.3,0.1,0.6,0.2,0.9,0.2c0.2,0.1,0.5,0.1,0.7,0.2c0.3,0.1,0.6,0.1,0.9,0.2c0.2,0,0.4,0.1,0.7,0.1
				c0.3,0.1,0.5,0.1,0.8,0.1c0.2,0,0.4,0.1,0.6,0.1c0.2,0,0.5,0.1,0.7,0.1c0.2,0,0.4,0.1,0.5,0.1c0.2,0,0.4,0.1,0.6,0.1
				c0.2,0,0.3,0,0.5,0.1c0.2,0,0.4,0,0.6,0.1c0.1,0,0.3,0,0.4,0c0.2,0,0.3,0,0.5,0c0.1,0,0.2,0,0.3,0c0.1,0,0.3,0,0.4,0
				c0.1,0,0.2,0,0.2,0c0.1,0,0.2,0,0.3,0c0,0,0.1,0,0.1,0c0.1,0,0.1,0,0.2,0c0,0,0.1,0,0.1,0c0.1,0,0.1,0,0.1,0l6.1-7l7.8-8.8
				l2.8-3.2l29.5,2.6c0.1-1.3,0.3-2.6,0.4-4c0-0.2,0-0.5,0.1-0.7c0-0.1,0-0.2,0-0.2l-9.7-0.8l-20.4-1.7l0,0l-7.5,8.3l-9.4,10.5
				l-0.7,0c0,0,0,0-0.1,0c0,0-0.1,0-0.1,0c-0.1,0-0.1,0-0.2,0c0,0-0.1,0-0.1,0c-0.1,0-0.2,0-0.3,0c-0.1,0-0.1,0-0.2,0
				c-0.1,0-0.2,0-0.4,0c-0.1,0-0.2,0-0.3,0c-0.2,0-0.3,0-0.5,0c-0.1,0-0.3,0-0.4,0c-0.2,0-0.3,0-0.5,0c-0.1,0-0.3,0-0.5,0
				c-0.2,0-0.4,0-0.6,0c-0.2,0-0.4,0-0.5,0c-0.2,0-0.4,0-0.7-0.1c-0.2,0-0.4,0-0.6-0.1c-0.2,0-0.5-0.1-0.7-0.1
				c-0.2,0-0.4-0.1-0.7-0.1c-0.3,0-0.5-0.1-0.8-0.1c-0.2,0-0.5-0.1-0.7-0.1c-0.3-0.1-0.6-0.1-0.9-0.2c-0.3-0.1-0.5-0.1-0.8-0.2
				c-0.3-0.1-0.6-0.1-0.9-0.2c-0.3-0.1-0.6-0.1-0.9-0.2c-0.3-0.1-0.7-0.2-1-0.3c-0.3-0.1-0.6-0.2-0.9-0.3c-0.3-0.1-0.7-0.2-1.1-0.3
				c-0.3-0.1-0.7-0.2-1-0.3c-0.4-0.1-0.7-0.3-1.1-0.4c-0.4-0.1-0.7-0.3-1.1-0.4c-0.2-0.1-0.3-0.1-0.5-0.2c-0.1-0.1-0.3-0.1-0.4-0.2
				c0,0,0,0,0,0c-0.1,0.5-0.1,1.1-0.2,1.6c-0.1,0.7-0.1,1.3-0.2,2c0.1,0.1,0.3,0.1,0.4,0.2C160.6,448.2,161.2,448.4,161.9,448.6
				C161.8,448.6,161.8,448.6,161.9,448.6z"/>
			<path class="st10" d="M192.8,378.7l-5.4,4.7c-11.9,12.6-22.2,37.3-24.7,54.5c-0.2,2.6,1.7,4.8,4.3,5c2.6,0.2,4.8-1.7,5-4.3
				c1.1-15.7,5.4-27.1,10.9-39c-0.2-0.1-0.4-0.2-0.6-0.3c1.6-2.8,3.2-5.7,4.6-8.6c0.1,0,0.1,0.1,0.2,0.1
				C189,387,190.9,383,192.8,378.7z"/>
			<path class="st10" d="M211.2,351c-1.3-0.2-2.6,0.7-2.8,2c-1.4,22.2,49,22.1,54.4,10.1l-1.1,0.8c-9.8,6.9-38.4,5.1-46.4-4
				c-1.5-1.7-2.3-3.7-2.1-6c0.1-0.6,0-1.2-0.3-1.6C212.6,351.6,212,351.1,211.2,351z"/>
			<path class="st12" d="M250.1,503.7c0-0.1-0.1-0.2-0.1-0.3c-2.7-8.9-4.8-18.1-6.3-27.2c-0.2-1-0.3-2.1-0.5-3.1c0,0,0-0.1,0-0.1
				c0,0.5,0.1,1,0.1,1.5c0.1,1.6,0.2,3.2,0.3,4.8c0.1,0.8,0.1,1.6,0.2,2.4c0.1,1.5,0.3,2.9,0.4,4.4c0.1,0.8,0.2,1.6,0.3,2.4
				c0.2,1.5,0.4,3,0.6,4.6c0.1,0.7,0.2,1.4,0.3,2.1c0.3,2.1,0.6,4.2,1,6.4L250.1,503.7z"/>
			<path class="st2" d="M319.7,392c0,0-23.8,25.4-67.5,20.6c-3.4,22.1-5.3,43.5-4.1,59.1c0.4,4.7,1,8.9,1.9,12.5
				c4.1,15.2,4.1,15.2,4.1,15.2l11.2-18.3L319.7,392z"/>
			<path class="st8" d="M182.4,399.3c0.2,0.1,0.4,0.2,0.6,0.3c0.4,0.2,0.8,0.4,1.3,0.6c0.7-1.2,1.3-2.4,1.9-3.6
				c1.3,0.6,2.5,1.2,3.8,1.7c-0.6,1.2-1.2,2.4-1.8,3.6c0.7,0.3,1.3,0.6,2,0.8c1.4-2.9,2.8-5.9,4.1-8.9c-0.6-0.3-1.2-0.5-1.8-0.8
				c-0.6,1.3-1.2,2.5-1.7,3.8c-1.3-0.6-2.5-1.1-3.8-1.7c0.6-1.2,1.3-2.5,1.9-3.7c-0.5-0.3-1.1-0.5-1.6-0.8c-0.1,0-0.1-0.1-0.2-0.1
				C185.5,393.6,184,396.5,182.4,399.3z"/>
			<path class="st8" d="M199.6,395.9c-1.2-0.4-2.2-0.4-3.3,0.1c-1,0.5-1.8,1.2-2.3,2.3c-0.2,0.5-0.5,1.1-0.7,1.6
				c-0.5,1.1-0.5,2.1-0.1,3.2c0.4,1,1.3,1.8,2.5,2.2c1.3,0.5,2.5,0.4,3.6,0c1.1-0.5,1.8-1.3,2.3-2.4c0.2-0.6,0.4-1.1,0.6-1.7
				c0.4-1.1,0.3-2.2-0.1-3.2C201.7,397,200.8,396.3,199.6,395.9z M200.3,400.5c-0.2,0.6-0.4,1.1-0.6,1.7c-0.3,0.7-0.7,1.2-1.3,1.6
				c-0.6,0.3-1.2,0.4-1.9,0.1c-0.7-0.2-1.1-0.7-1.3-1.3c-0.2-0.6-0.1-1.2,0.2-2c0.2-0.5,0.5-1.1,0.7-1.6c0.3-0.7,0.7-1.2,1.3-1.5
				c0.5-0.3,1.1-0.4,1.8-0.1c0.7,0.2,1.1,0.6,1.3,1.2C200.6,399.1,200.6,399.8,200.3,400.5z"/>
			<path class="st8" d="M204,407.7c0.8-2.1,1.5-4.2,2.2-6.3c0,0,0,0,0,0c0.7,2.5,1.4,5,2.1,7.5c0.7,0.2,1.4,0.3,2.2,0.5
				c1-3.1,1.9-6.3,2.7-9.4c-0.7-0.1-1.4-0.3-2-0.4c-0.6,2.1-1.2,4.3-1.9,6.4c0,0,0,0,0,0c-0.7-2.5-1.5-4.9-2.1-7.4
				c-0.7-0.2-1.3-0.4-2-0.6c-1,3.1-2.1,6.2-3.3,9.2C202.6,407.3,203.3,407.5,204,407.7z"/>
			<path class="st8" d="M214.8,410.1c0.4-1.3,0.7-2.6,1.1-4c0.4,0.1,0.8,0.1,1.2,0.2c0.6,1.5,1.3,3,2,4.5c0.9,0.1,1.8,0.3,2.8,0.4
				c-1-1.9-1.9-3.8-2.8-5.7c1.6-1.3,3.1-2.6,4.5-4c-0.9-0.1-1.7-0.2-2.6-0.3c-1.2,1.2-2.4,2.3-3.7,3.5c-0.3-0.1-0.6-0.1-0.9-0.2
				c0.3-1.3,0.6-2.6,0.9-3.9c-0.7-0.1-1.4-0.2-2.1-0.4c-0.8,3.2-1.6,6.3-2.6,9.5C213.3,409.9,214.1,410,214.8,410.1z"/>
			<path class="st11" d="M132.7,434.1l22.8,13.5c0-0.1,0-0.3,0-0.4c0-1,0.1-2.3,0.2-3.9c0.1-1.7,0.4-3.6,0.7-5.9
				c0.1-0.4,0.1-0.7,0.2-1.1c1.8-10.4,6.3-26.4,17.7-45.6c0.1-0.1,0.1-0.2,0.2-0.3C174.5,390.3,142,418.6,132.7,434.1z"/>
			<polygon class="st16" points="260.7,532.1 240.4,593.7 161.6,547.3 113.1,519 113.1,600.2 260.7,685.7 			"/>
			<path class="st17" d="M361.6,547.3l-78.8,46.4l-18.5-58.4v149.6l146.2-84.6l0.7-81.9L361.6,547.3z M282.7,651.7v-37.4l57.2-31.6
				V620L282.7,651.7z"/>
			<polygon class="st6" points="261.8,515.5 262.4,515.2 113.8,427 			"/>
			<polygon class="st6" points="261.8,515.5 88.6,500.5 163.5,544.2 238.4,588.3 262.1,516.4 			"/>
			<polygon class="st18" points="410.5,427.4 262.4,515.2 261.8,515.5 262.1,516.4 284.9,588.3 359.8,544.2 434.7,500.5 			"/>
			<path class="st10" d="M118.3,169.8c0,0-9.5-57.1,31.1-108.8c0,0-62.7,39.1-54.6,118.9C94.8,180,106.3,168.3,118.3,169.8z"/>
			<path class="st15" d="M210.9,149.9c-0.4-6.9-0.6-13.4-0.5-19.6c0.1-6.2,0.4-12.1,0.8-17.7c0.2-2.8,0.5-5.5,0.9-8.2
				c9-71.6,50.4-90,50.4-90c-20.7-0.1-41.4,2.9-61.2,8.9C185.5,35.9,117,97,139.9,188.6C139.9,188.6,152.8,130.5,210.9,149.9z
				 M224.6,25.9c-40.1,44.1-33.1,98.1-33.1,98.1c-27.1-7.6-37.1,9.6-37.1,9.6C163.9,50,224.6,25.9,224.6,25.9z"/>
			<path class="st15" d="M312.9,104.4c0.3,2.7,0.6,5.4,0.9,8.2c0.5,5.6,0.8,11.5,0.8,17.7c0.1,6.2-0.1,12.7-0.5,19.6
				c58.1-19.4,71,38.7,71,38.7C408,97,339.5,35.9,323.7,23.3c-19.9-6-40.5-9-61.2-8.9C262.5,14.4,303.8,32.8,312.9,104.4z"/>
			<path class="st2" d="M191.5,124.1c0,0-7-54,33.1-98.1c0,0-60.7,24.1-70.2,107.8C154.4,133.7,164.4,116.5,191.5,124.1z"/>
			<polygon class="st8" points="339.9,582.6 282.7,614.2 282.7,651.7 339.9,620 			"/>
			<polygon class="st19" points="261.8,515.5 113.8,427 88.6,500.5 			"/>
		</g>
		<g>
			<path class="st3" d="M22.5,964.4h-4.2v9.9h3.9c3.1,0,4.9-1.9,4.9-5C27.2,966.1,25.7,964.4,22.5,964.4z"/>
			<path class="st11" d="M31.9,988.7c-0.1-1.8-0.1-4.2-0.2-6.2c-0.2-4.3-1.8-6-4.8-6.3v-0.1c3.3-0.5,5.1-3.6,5.1-7.5
				c0-5.7-3.5-7.9-7.8-7.9H13.5v30.6h4.9V978h4c3.3,0,4.4,1.5,4.5,4.8c0.1,2.2,0,3.9,0.2,5.8c0.1,1.2,0.3,2.1,0.8,2.7h5.5
				C32.7,990.9,32,990.2,31.9,988.7z M22.3,974.3h-3.9v-9.9h4.2c3.2,0,4.6,1.7,4.6,5C27.2,972.4,25.4,974.3,22.3,974.3z"/>
			<g>
				<path class="st3" d="M65.1,964.4H62V975h3.5c2.6,0,4.9-1.4,4.9-5.3C70.4,966.4,69,964.4,65.1,964.4z"/>
				<path class="st3" d="M87.9,963.8c-2.9,0-5.2,1.8-5.2,12.1c0,10.5,2.3,12.3,5.2,12.3c2.9,0,5.2-1.8,5.2-12.3
					C93.2,965.6,90.8,963.8,87.9,963.8z"/>
				<path class="st3" d="M281.5,964.4h-4.2v9.9h3.9c3.1,0,4.9-1.9,4.9-5C286.2,966.1,284.7,964.4,281.5,964.4z"/>
				<path class="st3" d="M162.1,963.8c-2.9,0-5.2,1.8-5.2,12.1c0,10.5,2.3,12.3,5.2,12.3s5.2-1.8,5.2-12.3
					C167.3,965.6,165,963.8,162.1,963.8z"/>
				<path class="st3" d="M185.5,964.4h-4.2v9.9h3.9c3.1,0,4.9-1.9,4.9-5C190.2,966.1,188.8,964.4,185.5,964.4z"/>
				<path class="st3" d="M408,963.8c-2.9,0-5.2,1.8-5.2,12.1c0,10.5,2.3,12.3,5.2,12.3s5.2-1.8,5.2-12.3
					C413.2,965.6,410.9,963.8,408,963.8z"/>
				<path class="st3" d="M431.5,964.4h-4.2v9.9h3.9c3.1,0,4.9-1.9,4.9-5C436.1,966.1,434.7,964.4,431.5,964.4z"/>
				<path class="st8" d="M38.3,776.1h33.6v56.6H45.7v16.1l29.4,83h27.8v-0.9L73.5,851h9.1c10.6-0.3,15.9-5.8,15.9-16.3v-64.9
					c0-10.9-5.4-16.3-16.1-16.3H11.7v178.3h26.6V776.1z"/>
				<path class="st8" d="M188.6,931.7c5.1,0,9.1-1.4,11.9-4.2c2.8-2.8,4.2-6.8,4.2-12.1V873c0-3.4-0.4-6.1-1.3-8.2
					c-0.9-2-2.4-4.1-4.6-6.3l-53.4-50.3v-32.2h32.7v33.6h26.6v-40c0-5.2-1.4-9.2-4.2-12c-2.8-2.8-6.8-4.2-11.9-4.2h-53.7
					c-5.1,0-9.1,1.4-11.9,4.2s-4.2,6.8-4.2,12.1v39.6c0,3.4,0.4,6.1,1.3,8.2c0.9,2,2.4,4,4.5,6.1l53.4,50.6v35h-32.7v-36.4h-26.6
					v42.5c0,5.3,1.4,9.4,4.2,12.3c2.8,2.8,6.8,4.2,11.9,4.2H188.6z"/>
				<polygon class="st8" points="247.4,931.7 274,931.7 274,777 303.4,777 303.4,753.4 218.2,753.4 218.2,777 247.4,777 				"/>
				<path class="st8" d="M333,931.7h56.7c10.9,0,16.3-5.4,16.3-16.3V753.4h-26.6v155.6h-35.9V753.4h-26.6v161.9
					C316.9,926.3,322.3,931.7,333,931.7z"/>
				<polygon class="st8" points="454.1,777 500.3,777 500.3,753.4 427.5,753.4 427.5,931.7 454.1,931.7 454.1,852.8 493.5,852.8 
					493.5,829.7 454.1,829.7 				"/>
				<polygon class="st11" points="41.4,977.4 52.4,977.4 52.4,973.3 41.4,973.3 41.4,964.8 53,964.8 53,960.7 36.5,960.7 
					36.5,991.3 53.4,991.3 53.4,987.2 41.4,987.2 				"/>
				<path class="st11" d="M66.8,960.7h-9.7v30.6H62v-12.6h4.3c5.7,0,9-3.6,9-9C75.2,964.4,72.7,960.7,66.8,960.7z M65.5,975H62
					v-10.6h3.1c3.9,0,5.2,2,5.2,5.3C70.4,973.6,68.1,975,65.5,975z"/>
				<path class="st11" d="M87.9,960.1c-7,0-10.1,5-10.1,15.9c0,10.9,3.1,15.9,10.1,15.9c7,0,10.1-5,10.1-15.9
					C98,965.1,95,960.1,87.9,960.1z M87.9,988.2c-2.9,0-5.2-1.8-5.2-12.3c0-10.3,2.3-12.1,5.2-12.1c2.9,0,5.2,1.8,5.2,12.1
					C93.2,986.4,90.8,988.2,87.9,988.2z"/>
				<path class="st11" d="M114.4,974.6l-3.3-1.2c-3.3-1.2-4.6-2.6-4.6-5.2c0-3.3,2-4.4,4.1-4.4c3,0,4.3,1.6,4.3,4.4v0.6h4.9v-0.7
					c0-3.2-0.8-8.1-8.7-8.1c-5.7,0-9.5,3.1-9.5,8.7c0,4.4,1.9,6.7,6.4,8.4l3.3,1.2c2.7,0.8,4.4,2.2,4.4,5.4c0,2.3-1.5,4.5-4.6,4.5
					c-3.4,0-5-1.9-5-5.6v-0.8h-4.9v0.7c0,4.3,1.7,9.3,9.3,9.3c6.2,0,10.1-2.7,10.1-9.2C120.7,978.5,118.8,976.1,114.4,974.6z"/>
				<rect x="124.4" y="960.7" class="st11" width="4.9" height="30.6"/>
				<polygon class="st11" points="131.8,964.8 139.1,964.8 139.1,991.3 144,991.3 144,964.8 151.2,964.8 151.2,960.7 131.8,960.7 
									"/>
				<path class="st11" d="M162.1,960.1c-7,0-10.1,5-10.1,15.9c0,10.9,3.1,15.9,10.1,15.9s10.1-5,10.1-15.9
					C172.2,965.1,169.1,960.1,162.1,960.1z M162.1,988.2c-2.9,0-5.2-1.8-5.2-12.3c0-10.3,2.3-12.1,5.2-12.1s5.2,1.8,5.2,12.1
					C167.3,986.4,165,988.2,162.1,988.2z"/>
				<path class="st11" d="M194.9,988.7c-0.1-1.8-0.1-4.2-0.2-6.2c-0.2-4.3-1.8-6-4.8-6.3v-0.1c3.3-0.5,5.1-3.6,5.1-7.5
					c0-5.7-3.5-7.9-7.8-7.9h-10.8v30.6h4.9V978h4c3.3,0,4.4,1.5,4.5,4.8c0.1,2.2,0,3.9,0.2,5.8c0.1,1.2,0.3,2.1,0.8,2.7h5.5
					C195.7,990.9,195,990.2,194.9,988.7z M185.3,974.3h-3.9v-9.9h4.2c3.2,0,4.6,1.7,4.6,5C190.2,972.4,188.4,974.3,185.3,974.3z"/>
				<polygon class="st11" points="206.6,973.9 201.5,960.7 196,960.7 203.9,979.3 203.9,991.3 208.8,991.3 208.8,979.3 217,960.7 
					211.9,960.7 				"/>
				<path class="st11" d="M241.7,974.6l-3.3-1.2c-3.3-1.2-4.6-2.6-4.6-5.2c0-3.3,2-4.4,4.1-4.4c3,0,4.3,1.6,4.3,4.4v0.6h4.9v-0.7
					c0-3.2-0.8-8.1-8.7-8.1c-5.7,0-9.5,3.1-9.5,8.7c0,4.4,1.9,6.7,6.4,8.4l3.3,1.2c2.7,0.8,4.4,2.2,4.4,5.4c0,2.3-1.5,4.5-4.6,4.5
					c-3.4,0-5-1.9-5-5.6v-0.8h-4.9v0.7c0,4.3,1.7,9.3,9.3,9.3c6.2,0,10.1-2.7,10.1-9.2C247.9,978.5,246,976.1,241.7,974.6z"/>
				<polygon class="st11" points="256.8,977.4 267.7,977.4 267.7,973.3 256.8,973.3 256.8,964.8 268.4,964.8 268.4,960.7 
					251.9,960.7 251.9,991.3 268.8,991.3 268.8,987.2 256.8,987.2 				"/>
				<path class="st11" d="M290.9,988.7c-0.1-1.8-0.1-4.2-0.2-6.2c-0.2-4.3-1.8-6-4.8-6.3v-0.1c3.3-0.5,5.1-3.6,5.1-7.5
					c0-5.7-3.5-7.9-7.8-7.9h-10.8v30.6h4.9V978h4c3.3,0,4.4,1.5,4.5,4.8c0.1,2.2,0,3.9,0.2,5.8c0.1,1.2,0.3,2.1,0.8,2.7h5.5
					C291.7,990.9,291,990.2,290.9,988.7z M281.3,974.3h-3.9v-9.9h4.2c3.2,0,4.6,1.7,4.6,5C286.2,972.4,284.4,974.3,281.3,974.3z"/>
				<polygon class="st11" points="303.2,985.1 303.1,985.1 297.9,960.7 292.7,960.7 299.9,991.3 306.1,991.3 313.8,960.7 
					308.7,960.7 				"/>
				<rect x="315.9" y="960.7" class="st11" width="4.9" height="30.6"/>
				<path class="st11" d="M339.6,980.9c0,2.8-0.5,7.4-4.5,7.4c-3.6,0-5.2-2.5-5.2-12.3c0-9.9,1.6-12.1,5.2-12.1
					c3.5-0.1,4.4,3.1,4.4,6v0.5h4.9v-0.6c0-3.2-0.5-9.6-9.2-9.6c-7.8,0-10.2,5-10.2,15.9c0,10.9,2.4,15.9,10.1,15.9
					c7.2,0,9.4-5.4,9.4-10.9v-0.6h-4.9V980.9z"/>
				<polygon class="st11" points="352.7,977.4 363.7,977.4 363.7,973.3 352.7,973.3 352.7,964.8 364.4,964.8 364.4,960.7 
					347.9,960.7 347.9,991.3 364.7,991.3 364.7,987.2 352.7,987.2 				"/>
				<polygon class="st11" points="378.8,991.3 383.6,991.3 383.6,977.4 394.4,977.4 394.4,973.3 383.6,973.3 383.6,964.8 
					395.1,964.8 395.1,960.7 378.8,960.7 				"/>
				<path class="st11" d="M408,960.1c-7,0-10.1,5-10.1,15.9c0,10.9,3.1,15.9,10.1,15.9s10.1-5,10.1-15.9
					C418.1,965.1,415,960.1,408,960.1z M408,988.2c-2.9,0-5.2-1.8-5.2-12.3c0-10.3,2.3-12.1,5.2-12.1s5.2,1.8,5.2,12.1
					C413.2,986.4,410.9,988.2,408,988.2z"/>
				<path class="st11" d="M440.9,988.7c-0.1-1.8-0.1-4.2-0.2-6.2c-0.2-4.3-1.8-6-4.8-6.3v-0.1c3.3-0.5,5.1-3.6,5.1-7.5
					c0-5.7-3.5-7.9-7.8-7.9h-10.8v30.6h4.9V978h4c3.3,0,4.4,1.5,4.5,4.8c0.1,2.2,0,3.9,0.2,5.8c0.1,1.2,0.3,2.1,0.8,2.7h5.5
					C441.7,990.9,440.9,990.2,440.9,988.7z M431.2,974.3h-3.9v-9.9h4.2c3.2,0,4.6,1.7,4.6,5C436.1,972.4,434.3,974.3,431.2,974.3z"
					/>
				<polygon class="st11" points="451.9,964.8 459.1,964.8 459.1,991.3 464,991.3 464,964.8 471.2,964.8 471.2,960.7 451.9,960.7 
									"/>
				<path class="st11" d="M487.4,982.6c0,3.9-1.5,5.6-4.5,5.6c-3,0-4.5-1.7-4.5-5.6v-21.9h-4.9v21.6c0,7.1,3.5,9.6,9.4,9.6
					c5.8,0,9.3-2.6,9.3-9.6v-21.6h-4.9V982.6z"/>
				<polygon class="st11" points="513.3,964.8 513.3,960.7 497,960.7 497,991.3 501.9,991.3 501.9,977.4 512.6,977.4 512.6,973.3 
					501.9,973.3 501.9,964.8 				"/>
			</g>
		</g>
	</g>
</g>
</svg>
